<svg width="406" height="353" viewBox="0 0 406 353" fill="none" xmlns="http://www.w3.org/2000/svg">
<g opacity="0.4">
<path d="M403.367 214.865C397.76 196.928 383.261 183.473 370.139 170.009C357.017 156.545 344.111 140.705 343.193 121.931C341.879 94.9398 365.81 71.1978 363.353 44.2788C361.211 20.8698 338.387 3.27484 315.032 0.583843C291.677 -2.10716 268.511 7.05484 248.234 18.9438C227.957 30.8328 209.363 45.6018 188.24 55.9158C157.793 70.7928 123.638 75.7158 90.4551 82.5648C66.0381 87.6048 40.7031 94.3908 22.5501 111.482C8.62708 124.586 0.0590862 143.513 0.509086 162.62C0.959086 181.736 10.7781 200.636 26.7801 211.103C51.5751 227.33 84.3261 221.417 112.82 213.299C141.314 205.181 171.968 195.461 199.787 205.667C227.651 215.891 244.958 243.413 269.24 260.477C295.799 279.143 332.978 282.833 364.82 280.637C394.763 278.567 411.728 241.622 403.358 214.856L403.367 214.865Z" fill="#969696"/>
<path d="M50.3508 235.717C40.8198 231.874 31.2888 228.031 21.7668 224.188C18.6258 222.919 15.2778 221.632 11.9388 222.208C5.74683 223.279 2.29083 230.668 3.41583 236.851C4.54084 243.034 8.94184 248.065 13.5048 252.394C19.4538 258.037 26.0868 263.14 33.7008 266.2C41.3148 269.251 50.0268 270.115 57.7398 267.325C63.5088 265.246 73.9758 257.65 72.3828 250.36C70.8168 243.142 56.1198 238.057 50.3508 235.726V235.717Z" fill="#969696"/>
</g>
<path d="M380.57 184.229H256.838V351.701H380.57V184.229Z" stroke="#121D30" stroke-width="0.75" stroke-miterlimit="10"/>
<path d="M374.63 192.283H262.787V343.654H374.63V192.283Z" stroke="#121D30" stroke-width="0.75" stroke-miterlimit="10"/>
<path d="M332.707 277.27H304.699V286.477H332.707V277.27Z" stroke="#121D30" stroke-width="0.75" stroke-miterlimit="10"/>
<path d="M336.235 291.084H301.189V294.873H336.235V291.084Z" stroke="#121D30" stroke-width="0.75" stroke-miterlimit="10"/>
<path d="M275.567 340.773H266.072H270.896" stroke="#121D30" stroke-width="0.75" stroke-miterlimit="10"/>
<path d="M266.072 337.605H269.537" stroke="#121D30" stroke-width="0.75" stroke-miterlimit="10"/>
<path d="M315.518 278.764H322.583" stroke="#121D30" stroke-width="0.75" stroke-miterlimit="10"/>
<path d="M311.135 281.346H326.957" stroke="#121D30" stroke-width="0.75" stroke-miterlimit="10"/>
<path d="M315.941 284.371H322.151" stroke="#121D30" stroke-width="0.75" stroke-miterlimit="10"/>
<path d="M374.628 269.295H262.785" stroke="#121D30" stroke-width="0.75" stroke-miterlimit="10"/>
<path d="M332.707 199.006H304.699V208.213H332.707V199.006Z" stroke="#121D30" stroke-width="0.75" stroke-miterlimit="10"/>
<path d="M336.235 212.812H301.189V216.602H336.235V212.812Z" stroke="#121D30" stroke-width="0.75" stroke-miterlimit="10"/>
<path d="M357.285 266.246H371.397" stroke="#121D30" stroke-width="0.75" stroke-miterlimit="10"/>
<path d="M368.742 263.941H371.397" stroke="#121D30" stroke-width="0.75" stroke-miterlimit="10"/>
<path d="M310.963 200.734H327.091" stroke="#121D30" stroke-width="0.75" stroke-miterlimit="10"/>
<path d="M307.785 203.416H330.267" stroke="#121D30" stroke-width="0.75" stroke-miterlimit="10"/>
<path d="M262.039 194.299H267.628" stroke="#121D30" stroke-width="0.75" stroke-miterlimit="10"/>
<path d="M262.039 198.043H279.31" stroke="#121D30" stroke-width="0.75" stroke-miterlimit="10"/>
<path d="M57.4783 178.774C76.7383 182.977 95.9983 187.18 115.258 191.383C106.456 165.148 139.252 147.985 130.45 121.75C111.19 117.547 91.9304 113.344 72.6704 109.141C81.4723 135.376 48.6763 152.539 57.4783 178.774Z" fill="white"/>
<path d="M96.4929 161.88L86.0889 159.909L86.2869 158.865C86.6199 157.092 87.0969 155.697 87.7089 154.662C88.3209 153.636 89.1039 152.736 90.0759 151.98C91.0389 151.215 93.1269 149.946 96.3399 148.173C98.0499 147.246 98.9949 146.283 99.1839 145.284C99.3729 144.276 99.2289 143.439 98.7339 142.773C98.2479 142.107 97.4019 141.657 96.1959 141.423C94.8999 141.18 93.7479 141.405 92.7309 142.098C91.7229 142.791 90.8949 144.186 90.2559 146.283L79.8789 142.962C80.9859 139.128 83.0019 136.248 85.9179 134.331C88.8429 132.414 92.8569 131.946 97.9689 132.909C101.947 133.665 105.007 135.105 107.14 137.229C110.038 140.1 111.136 143.412 110.425 147.156C110.128 148.704 109.417 150.126 108.292 151.404C107.158 152.682 105.079 154.113 102.037 155.697C99.9129 156.813 98.5269 157.758 97.8789 158.559C97.2309 159.351 96.7629 160.458 96.5019 161.889L96.4929 161.88ZM85.2069 162.609L96.3489 164.715L94.4859 174.543L83.3439 172.437L85.2069 162.609Z" stroke="#121D30" stroke-width="0.75" stroke-miterlimit="10"/>
<path d="M266.35 151.513C283.324 141.487 300.298 131.461 317.272 121.435C292.972 108.196 305.329 73.3035 281.02 60.0645C264.046 70.0905 247.072 80.1165 230.098 90.1425C254.398 103.381 242.041 138.274 266.35 151.513Z" fill="white"/>
<path d="M283.567 110.392L274.342 115.594L273.82 114.667C272.938 113.101 272.398 111.724 272.2 110.545C272.002 109.366 272.029 108.169 272.281 106.963C272.533 105.757 273.307 103.444 274.621 100.015C275.332 98.2061 275.431 96.8561 274.927 95.9651C274.423 95.0741 273.775 94.5341 272.965 94.3361C272.164 94.1381 271.228 94.3361 270.157 94.9481C269.005 95.5961 268.276 96.5141 267.952 97.6931C267.628 98.8811 267.898 100.474 268.753 102.49L258.673 106.639C257.044 102.994 256.729 99.4931 257.737 96.1451C258.736 92.7971 261.508 89.8451 266.035 87.2891C269.563 85.3001 272.83 84.4271 275.827 84.6791C279.895 85.0121 282.865 86.8301 284.737 90.1511C285.511 91.5281 285.88 93.0671 285.844 94.7771C285.808 96.4871 285.133 98.9261 283.828 102.094C282.919 104.308 282.478 105.928 282.496 106.963C282.514 107.989 282.874 109.132 283.585 110.401L283.567 110.392ZM275.413 118.222L285.295 112.651L290.209 121.363L280.327 126.934L275.413 118.222Z" stroke="#121D30" stroke-width="0.75" stroke-miterlimit="10"/>
<path d="M313.779 248.228C296.805 238.202 279.831 228.176 262.857 218.15C287.166 204.911 274.8 170.018 299.109 156.779C316.083 166.805 333.057 176.831 350.031 186.857C325.722 200.096 338.088 234.989 313.779 248.228Z" fill="white"/>
<path d="M307.912 210.906L298.444 206.154L298.921 205.209C299.731 203.598 300.568 202.383 301.441 201.564C302.314 200.745 303.313 200.097 304.456 199.629C305.599 199.161 307.948 198.513 311.53 197.694C313.429 197.271 314.599 196.605 315.058 195.696C315.517 194.787 315.607 193.941 315.319 193.158C315.031 192.384 314.347 191.718 313.249 191.169C312.07 190.575 310.9 190.476 309.739 190.872C308.578 191.268 307.399 192.375 306.202 194.211L297.139 188.163C299.254 184.779 301.981 182.565 305.32 181.53C308.659 180.495 312.655 181.143 317.299 183.474C320.917 185.292 323.464 187.515 324.931 190.143C326.929 193.707 327.073 197.181 325.363 200.592C324.652 202.005 323.581 203.166 322.141 204.093C320.701 205.011 318.307 205.812 314.941 206.496C312.601 206.982 310.999 207.513 310.162 208.098C309.316 208.683 308.569 209.619 307.921 210.915L307.912 210.906ZM296.86 208.503L306.994 213.597L302.503 222.534L292.369 217.44L296.86 208.503Z" stroke="#121D30" stroke-width="0.75" stroke-miterlimit="10"/>
<path d="M188.761 106.659C188.761 106.659 203.35 85.3825 221.584 95.9845C244.417 109.269 216.841 140.904 233.716 150.057C250.591 159.21 268.042 159.921 272.911 185.247C279.265 218.349 219.388 264.897 168.754 235.431C118.12 205.965 136.129 150.813 159.907 139.842C188.518 126.63 188.752 106.668 188.752 106.668L188.761 106.659Z" fill="#848484"/>
<path d="M209.56 163.125V185.823C209.56 189.612 208.021 193.032 205.537 195.516C203.071 198 199.642 199.539 195.862 199.539C188.293 199.539 182.164 193.401 182.164 185.823V163.125H209.56Z" fill="#C6C6C6"/>
<path d="M152.221 147.562C153.355 153.115 158.782 156.697 164.335 155.563C169.888 154.429 173.47 149.002 172.336 143.449C171.202 137.896 165.775 134.314 160.222 135.448C154.669 136.582 151.087 142.009 152.221 147.562Z" fill="#C6C6C6"/>
<path d="M167.619 130.373V147.68C167.619 147.68 160.752 141.578 160.941 129.562L167.619 130.382V130.373Z" fill="#848484"/>
<path d="M155.039 143.674L163.166 149.173" stroke="#121D30" stroke-width="0.75" stroke-miterlimit="10"/>
<path d="M211.657 145.503C212.791 151.056 218.218 154.638 223.771 153.504C229.324 152.37 232.906 146.943 231.772 141.39C230.638 135.837 225.211 132.255 219.658 133.389C214.105 134.523 210.523 139.95 211.657 145.503Z" fill="#C6C6C6"/>
<path d="M221.71 143.442C221.71 143.442 227.578 137.025 225.517 121.797H217.291L221.71 143.442Z" fill="#848484"/>
<path d="M220.018 147.979L227.983 140.266" stroke="#121D30" stroke-width="0.75" stroke-miterlimit="10"/>
<path d="M194.666 103.328C179.726 103.328 167.621 115.433 167.621 130.373V150.065C167.621 154.223 169.763 158.093 173.291 160.298L188.258 169.667C192.173 172.115 197.15 172.115 201.065 169.667L216.032 160.298C219.56 158.093 221.702 154.223 221.702 150.065V130.373C221.702 115.433 209.597 103.328 194.657 103.328H194.666Z" fill="#C6C6C6"/>
<path d="M182.164 166.076L188.266 169.892C192.181 172.34 197.158 172.34 201.073 169.892" stroke="#121D30" stroke-width="0.75" stroke-miterlimit="10"/>
<path d="M192.398 103.328L199.184 150.065H190.67" stroke="#121D30" stroke-width="0.75" stroke-miterlimit="10"/>
<path d="M209.552 137.502C209.552 139.905 208.49 141.84 207.176 141.84C205.862 141.84 204.791 139.905 204.791 137.502C204.791 135.567 205.502 133.92 206.465 133.371H206.483L209.399 135.954C209.489 136.422 209.552 136.953 209.552 137.493V137.502Z" fill="#121D30"/>
<path d="M184.54 137.502C184.54 139.905 183.478 141.84 182.164 141.84C180.85 141.84 179.779 139.905 179.779 137.502C179.779 136.809 179.869 136.152 180.04 135.585L183.379 133.803C184.09 134.559 184.54 135.936 184.54 137.511V137.502Z" fill="#121D30"/>
<path d="M226.283 99.6473C208.04 89.0363 188.753 106.649 188.753 106.649C188.753 106.649 188.519 126.629 159.917 139.832C153.887 142.622 145.805 152.54 142.016 158.57C142.016 158.57 150.377 134.45 153.014 118.853C155.66 103.238 169.529 105.65 169.529 105.65C169.529 105.65 177.935 85.1123 201.173 85.2113C217.274 85.2833 226.292 99.6473 226.292 99.6473H226.283Z" fill="#848484"/>
<path d="M207.752 120.553C211.064 118.402 213.143 118.879 212.648 123.469L207.752 120.553Z" fill="#121D30"/>
<path d="M190.301 157.931C193.892 153.08 198.419 155.069 199.562 157.931" stroke="#121D30" stroke-width="0.75" stroke-miterlimit="10"/>
<path d="M310.865 250.029C315.311 244.449 314.393 236.313 308.813 231.858L258.575 191.826C252.995 187.38 244.859 188.298 240.404 193.878C235.958 199.458 236.876 207.594 242.456 212.049L292.694 252.081C298.274 256.527 306.41 255.609 310.865 250.029Z" fill="#C6C6C6"/>
<path d="M82.9839 252.234C78.5379 246.654 79.4559 238.518 85.0359 234.063L135.274 194.031C140.854 189.585 148.99 190.503 153.445 196.083C157.891 201.663 156.973 209.799 151.393 214.254L101.155 254.286C95.5749 258.732 87.4389 257.814 82.9839 252.234Z" fill="#C6C6C6"/>
<path d="M236.543 178.839L199.184 191.25V191.646L160.628 178.839C148.424 174.78 136.76 186.282 140.639 198.54L169.574 289.944H221.297L256.532 198.54C260.411 186.273 248.756 174.78 236.543 178.839Z" fill="#969696"/>
<path d="M214.609 204.813L218.452 179.442L174.928 175.221L178.969 204.813H214.609Z" fill="#969696"/>
<path d="M177.296 188.991C183.326 202.212 193.487 208.206 201.632 208.206C208.094 208.206 213.242 204.588 215.996 198.423C214.781 211.311 210.929 238.653 200.255 238.653C199.562 238.653 198.842 238.536 198.104 238.302C185.171 234.189 179.204 202.077 177.296 189M175.91 183.555C175.91 183.555 181.076 233.595 197.906 238.941C198.725 239.202 199.508 239.328 200.255 239.328C214.961 239.328 217.175 191.88 217.175 191.88C215.564 202.401 209.12 207.531 201.632 207.531C192.182 207.531 181.076 199.359 175.91 183.555Z" fill="#121D30"/>
<path d="M159.17 274.004L231.071 270.107L224.771 288.323L164.921 287.675L159.17 274.004Z" fill="#2E363D"/>
<path d="M224.771 288.324C224.771 288.324 249.395 311.094 250.862 351.702H140.729C140.729 313.533 164.921 287.676 164.921 287.676L224.771 288.324Z" fill="#2E363D"/>
<path d="M196.51 292.436L197.986 322.586C197.986 322.586 192.118 320.21 192.262 310.112" stroke="white" stroke-width="0.75" stroke-miterlimit="10"/>
<path d="M237.965 305.109H220.127C220.127 305.109 228.443 324.549 246.128 322.839" stroke="white" stroke-width="0.75" stroke-miterlimit="10"/>
<path d="M143.357 325.629C143.357 325.629 156.533 328.806 168.215 310.086" stroke="white" stroke-width="0.75" stroke-miterlimit="10"/>
<path d="M179.411 285.219H166.955V291.447H179.411V285.219Z" fill="#5C5C5C"/>
<path d="M221.647 285.219H209.191V291.447H221.647V285.219Z" fill="#5C5C5C"/>
<path d="M204.124 285.219H185.197V291.447H204.124V285.219Z" fill="#5C5C5C"/>
<path d="M199.318 283.967H190.021V292.706H199.318V283.967Z" fill="white"/>
<path d="M86.8903 232.559C94.5313 227.78 104.593 230.102 109.372 237.743L141.853 296.189L131.908 307.709L81.7153 255.05C76.9363 247.409 79.2583 237.347 86.8993 232.568L86.8903 232.559Z" fill="#C6C6C6"/>
<path d="M137.813 292.608C150.971 292.554 162.86 285.93 162.86 285.93L170.249 309.024C148.595 317.232 137.651 311.823 131.873 307.737L137.804 292.608H137.813Z" fill="#D28A7B"/>
<path d="M162.86 285.929C162.86 285.929 174.983 284.849 183.641 290.573L185.207 304.991C185.207 304.991 175.091 301.688 168.611 303.884C168.611 303.884 179.807 306.008 184.136 310.715L181.067 313.811C181.067 313.811 171.392 309.536 160.916 311.021L162.869 285.938L162.86 285.929Z" fill="#D28A7B"/>
<path d="M183.948 294.245C183.948 294.245 173.85 290.969 166.254 290.762" stroke="#121D30" stroke-width="0.75" stroke-miterlimit="10"/>
<path d="M184.65 299.879C184.65 299.879 175.749 296.288 166.506 296.963" stroke="#121D30" stroke-width="0.75" stroke-miterlimit="10"/>
<path d="M121.252 190.07L138.181 208.268L148.09 233.864L130.81 214.271L121.252 190.07Z" fill="#E69230"/>
<path d="M145.777 181.529L116.572 199.133L137.101 232.874L156.262 219.806L145.777 181.529Z" fill="#969696"/>
<path d="M121.251 190.07L130.809 214.271L148.089 233.864L133.59 239.228L120.027 220.697L110.568 197.054L121.251 190.07Z" fill="white"/>
<path d="M113.432 245.042L109.373 237.734" stroke="#121D30" stroke-width="0.75" stroke-miterlimit="10"/>
<path d="M306.959 230.354C299.318 225.575 289.256 227.897 284.477 235.538L251.996 293.984L261.941 305.504L312.134 252.845C316.913 245.204 314.591 235.142 306.95 230.363L306.959 230.354Z" fill="#C6C6C6"/>
<path d="M256.043 290.403C242.885 290.349 230.996 283.725 230.996 283.725L223.607 306.819C245.261 315.027 256.205 309.618 261.983 305.532L256.052 290.403H256.043Z" fill="#D28A7B"/>
<path d="M230.997 283.726C230.997 283.726 218.874 282.646 210.216 288.37L208.65 302.788C208.65 302.788 218.766 299.485 225.246 301.681C225.246 301.681 214.059 303.805 209.721 308.512L212.79 311.608C212.79 311.608 222.465 307.333 232.941 308.818L230.988 283.735L230.997 283.726Z" fill="#D28A7B"/>
<path d="M209.91 292.042C209.91 292.042 220.008 288.766 227.604 288.559" stroke="#121D30" stroke-width="0.75" stroke-miterlimit="10"/>
<path d="M209.209 297.676C209.209 297.676 218.11 294.085 227.353 294.76" stroke="#121D30" stroke-width="0.75" stroke-miterlimit="10"/>
<path d="M272.597 187.865L255.677 206.063L245.768 231.659L263.039 212.066L272.597 187.865Z" fill="#E69230"/>
<path d="M248.081 179.324L277.286 196.928L256.757 230.669L237.596 217.601L248.081 179.324Z" fill="#969696"/>
<path d="M272.597 187.865L263.039 212.066L245.768 231.659L260.267 237.023L273.821 218.492L283.28 194.849L272.597 187.865Z" fill="white"/>
<path d="M280.418 242.837L284.477 235.529" stroke="#121D30" stroke-width="0.75" stroke-miterlimit="10"/>
<path d="M142.277 349.189H249.773V350.377C249.773 351.115 249.179 351.709 248.441 351.709H143.609C142.871 351.709 142.277 351.115 142.277 350.377V349.189Z" fill="#DEDEDE"/>
<path d="M218.265 311.057H173.895V326.24C188.529 322.901 203.379 320.138 218.265 317.573V311.057Z" fill="#969696"/>
<path d="M173.904 326.239V341.962H218.274V317.572C203.388 320.137 188.538 322.9 173.904 326.239Z" fill="#DEDEDE"/>
<path d="M249.198 349.911H142.962C142.242 349.911 142.08 348.903 142.764 348.678L173.895 338.436H218.265L249.396 348.678C250.08 348.903 249.918 349.911 249.198 349.911Z" fill="#DEDEDE"/>
<path d="M213.232 338.436H217.219" stroke="#121D30" stroke-width="0.75" stroke-miterlimit="10"/>
<path d="M173.902 338.436H209.137" stroke="#121D30" stroke-width="0.75" stroke-miterlimit="10"/>
<path d="M173.902 326.241L207.292 319.518" stroke="#121D30" stroke-width="0.75" stroke-miterlimit="10"/>
<path d="M218.264 311.057V338.435" stroke="#121D30" stroke-width="0.75" stroke-miterlimit="10"/>
<path d="M172.984 349.91H248.476" stroke="#121D30" stroke-width="0.75" stroke-miterlimit="10"/>
<path d="M173.902 312.893V336.104" stroke="#121D30" stroke-width="0.75" stroke-miterlimit="10"/>
<path d="M283.18 184.328H108.922C104.767 184.328 101.398 187.697 101.398 191.852V306.944C101.398 311.1 104.767 314.468 108.922 314.468H283.18C287.336 314.468 290.704 311.1 290.704 306.944V191.852C290.704 187.697 287.336 184.328 283.18 184.328Z" fill="#DEDEDE"/>
<path d="M290.713 211.967V306.944C290.713 311.102 287.347 314.468 283.189 314.468H199.822" stroke="#121D30" stroke-width="0.75" stroke-miterlimit="10"/>
<path d="M101.398 289.943V191.852C101.398 187.694 104.764 184.328 108.922 184.328H283.18" stroke="#121D30" stroke-width="0.75" stroke-miterlimit="10"/>
<path d="M233.229 231.533C228.072 231.533 223.329 233.306 219.567 236.276C219.567 236.204 219.567 236.132 219.567 236.06C219.567 223.073 209.037 212.543 196.05 212.543C183.063 212.543 172.533 223.073 172.533 236.06C172.533 236.132 172.533 236.204 172.533 236.276C168.771 233.306 164.037 231.533 158.871 231.533C146.685 231.533 136.812 241.406 136.812 253.592C136.812 265.778 146.685 275.651 158.871 275.651C159.159 275.651 159.438 275.642 159.726 275.633C160.014 275.642 160.293 275.651 160.581 275.651H231.852C232.086 275.651 232.312 275.642 232.536 275.633C232.761 275.633 232.995 275.651 233.22 275.651C245.406 275.651 255.279 265.778 255.279 253.592C255.279 241.406 245.406 231.533 233.22 231.533H233.229Z" fill="white"/>
<path d="M233.229 231.533C228.072 231.533 223.33 233.306 219.568 236.276C219.568 236.204 219.568 236.132 219.568 236.06C219.568 223.073 209.037 212.543 196.05 212.543C183.063 212.543 172.533 223.073 172.533 236.06C172.533 236.132 172.533 236.204 172.533 236.276C168.771 233.306 164.037 231.533 158.871 231.533C146.685 231.533 136.812 241.406 136.812 253.592C136.812 265.778 146.685 275.651 158.871 275.651C159.159 275.651 159.438 275.642 159.726 275.633C160.014 275.642 160.293 275.651 160.581 275.651" stroke="#121D30" stroke-width="0.75" stroke-miterlimit="10"/>
<path d="M204.312 288.095C215.517 283.533 220.903 270.752 216.342 259.546C211.78 248.341 198.999 242.955 187.793 247.516C176.588 252.078 171.202 264.859 175.763 276.065C180.325 287.27 193.106 292.656 204.312 288.095Z" fill="#121D30"/>
<path d="M205.391 275.948L197.246 267.803L205.391 259.658C205.715 259.334 205.715 258.794 205.391 258.47C205.067 258.146 204.527 258.146 204.203 258.47L196.058 266.615L187.913 258.47C187.589 258.146 187.049 258.146 186.725 258.47C186.401 258.794 186.401 259.334 186.725 259.658L194.87 267.803L186.725 275.948C186.401 276.272 186.401 276.812 186.725 277.136C187.049 277.46 187.589 277.46 187.913 277.136L196.058 268.991L204.203 277.136C204.527 277.46 205.067 277.46 205.391 277.136C205.715 276.812 205.715 276.272 205.391 275.948Z" fill="white"/>
<path d="M35.4453 322.289V336.986H134.67V322.289H35.4453Z" fill="#5C5C5C"/>
<path d="M39.1172 323.819V335.438H92.6132V323.819H39.1172Z" fill="white"/>
<path d="M40.5488 324.565V334.708H41.7458V324.565H40.5488Z" fill="#5C5C5C"/>
<path d="M89.1406 324.565V334.708H90.3376V324.565H89.1406Z" fill="#5C5C5C"/>
<path d="M116.095 324.322C119.029 324.322 121.405 326.698 121.405 329.632C121.405 332.566 119.029 334.942 116.095 334.942C113.161 334.942 110.785 332.566 110.785 329.632C110.785 326.698 113.161 324.322 116.095 324.322Z" fill="#969696"/>
<path d="M116.096 325.133C118.58 325.133 120.596 327.149 120.596 329.633C120.596 332.117 118.58 334.133 116.096 334.133C113.612 334.133 111.596 332.117 111.596 329.633C111.596 327.149 113.612 325.133 116.096 325.133Z" fill="#DEDEDE"/>
<path d="M133.043 335.699V333.242" stroke="#121D30" stroke-width="0.75" stroke-miterlimit="10"/>
<path d="M131.197 335.699V334.277" stroke="#121D30" stroke-width="0.75" stroke-miterlimit="10"/>
<path d="M35.4453 336.987V351.684H134.67V336.987H35.4453Z" fill="#969696"/>
<path d="M39.127 338.516V350.135H92.623V338.516H39.127Z" fill="white"/>
<path d="M40.5488 339.262V349.405H41.7458V339.262H40.5488Z" fill="#DEDEDE"/>
<path d="M89.1484 339.262V349.405H90.3455V339.262H89.1484Z" fill="#DEDEDE"/>
<path d="M116.095 339.029C119.029 339.029 121.405 341.405 121.405 344.339C121.405 347.273 119.029 349.649 116.095 349.649C113.161 349.649 110.785 347.273 110.785 344.339C110.785 341.405 113.161 339.029 116.095 339.029Z" fill="#5C5C5C"/>
<path d="M116.096 339.83C118.58 339.83 120.596 341.846 120.596 344.33C120.596 346.814 118.58 348.83 116.096 348.83C113.612 348.83 111.596 346.814 111.596 344.33C111.596 341.846 113.612 339.83 116.096 339.83Z" fill="#DEDEDE"/>
<path d="M131.402 340.586V341.828" stroke="#121D30" stroke-width="0.75" stroke-miterlimit="10"/>
<path d="M133.238 344.276V341" stroke="#121D30" stroke-width="0.75" stroke-miterlimit="10"/>
<path d="M8.48242 351.709H383.629" stroke="#121D30" stroke-miterlimit="10"/>
<path d="M360.725 135.341C359.024 134.954 357.395 134.171 356.027 133.082L356.468 132.524C357.755 133.55 359.285 134.279 360.878 134.648L360.725 135.341ZM365.936 135.341L365.774 134.648C367.376 134.279 368.897 133.55 370.184 132.515L370.625 133.073C369.257 134.171 367.628 134.954 365.927 135.341H365.936ZM352.76 129.014C351.986 127.421 351.599 125.711 351.59 123.929H352.301C352.301 125.603 352.67 127.205 353.399 128.699L352.76 129.005V129.014ZM373.874 128.996L373.235 128.69C373.955 127.196 374.324 125.585 374.324 123.911L374.837 123.875L375.035 123.893C375.035 125.693 374.648 127.403 373.874 128.996ZM353.381 119.159L352.742 118.853C353.498 117.278 354.614 115.865 355.982 114.767L356.423 115.325C355.136 116.351 354.083 117.683 353.381 119.159ZM373.217 119.096C372.497 117.62 371.435 116.306 370.148 115.28L370.589 114.722C371.966 115.811 373.091 117.215 373.856 118.781L373.217 119.096ZM360.833 113.183L360.671 112.49C361.535 112.292 362.417 112.193 363.308 112.193C364.172 112.193 365.045 112.292 365.882 112.472L365.729 113.165C364.937 112.985 364.127 112.895 363.308 112.895C362.471 112.895 361.643 112.985 360.833 113.174V113.183Z" fill="#2E363D"/>
<path d="M22.8732 151.937H22.6662V151.226H22.8642C24.4302 151.226 25.9962 151.055 27.5172 150.722L27.6702 151.415C26.1042 151.757 24.4842 151.937 22.8642 151.937H22.8732ZM17.6622 151.325C16.0242 150.938 14.4312 150.353 12.9192 149.606L13.2342 148.967C14.6922 149.696 16.2402 150.254 17.8242 150.632L17.6622 151.325ZM32.4492 149.786L32.1432 149.147C33.6102 148.454 35.0052 147.581 36.2922 146.573L36.7332 147.131C35.4102 148.175 33.9702 149.075 32.4492 149.786ZM8.68923 146.87C7.38423 145.799 6.20524 144.584 5.17924 143.261L5.73723 142.829C6.73623 144.116 7.87923 145.295 9.13923 146.33L8.68923 146.879V146.87ZM40.3062 143.585L39.7482 143.144C40.7742 141.875 41.6562 140.489 42.3672 139.022L43.0062 139.328C42.2682 140.84 41.3592 142.271 40.3062 143.585ZM2.55124 138.95C1.84024 137.42 1.30924 135.809 0.967235 134.162L1.66024 134.018C1.99324 135.611 2.50623 137.168 3.19923 138.653L2.55124 138.95ZM44.6802 134.567L43.9872 134.405C44.3472 132.821 44.5362 131.192 44.5362 129.554H45.2472C45.2472 131.246 45.0582 132.929 44.6802 134.558V134.567ZM1.20124 129.158H0.490234C0.517234 127.457 0.742234 125.774 1.14723 124.145L1.84023 124.316C1.45323 125.891 1.23724 127.52 1.21024 129.158H1.20124ZM44.1492 125.486C43.8432 123.884 43.3572 122.318 42.7002 120.824L43.3482 120.536C44.0232 122.075 44.5272 123.695 44.8422 125.351L44.1402 125.486H44.1492ZM3.54123 119.744L2.91123 119.42C3.67623 117.926 4.61224 116.504 5.69223 115.208L6.24123 115.667C5.19723 116.918 4.28823 118.286 3.55023 119.744H3.54123ZM40.2432 116.612C39.2712 115.307 38.1462 114.11 36.9042 113.048L37.3632 112.508C38.6412 113.597 39.8022 114.839 40.8102 116.189L40.2432 116.612ZM9.76024 112.301L9.32824 111.734C10.6692 110.717 12.1272 109.844 13.6572 109.151L13.9542 109.799C12.4692 110.465 11.0652 111.311 9.76024 112.301ZM32.8542 110.33C31.4052 109.574 29.8752 108.989 28.3002 108.584L28.4802 107.9C30.1092 108.323 31.6932 108.926 33.1872 109.709L32.8632 110.339L32.8542 110.33ZM18.5982 108.314L18.4632 107.621C19.9032 107.333 21.3792 107.189 22.8642 107.189C23.0802 107.189 23.2782 107.189 23.4852 107.189L23.4672 107.9C23.2692 107.9 23.0532 107.882 22.8642 107.9C21.4332 107.9 19.9932 108.044 18.6072 108.323L18.5982 108.314Z" fill="#2E363D"/>
<path d="M43.8262 148.742C47.5541 148.742 50.5762 145.72 50.5762 141.992C50.5762 138.264 47.5541 135.242 43.8262 135.242C40.0982 135.242 37.0762 138.264 37.0762 141.992C37.0762 145.72 40.0982 148.742 43.8262 148.742Z" fill="#2E363D"/>
<path d="M286.034 23.2817C286.034 26.0267 283.811 28.2587 281.057 28.2587C278.303 28.2587 276.08 26.0357 276.08 23.2817C276.08 20.5277 278.303 18.3047 281.057 18.3047C283.811 18.3047 286.034 20.5277 286.034 23.2817Z" fill="#2E363D"/>
<path d="M358.708 115.36C358.708 117.322 357.115 118.915 355.153 118.915C353.191 118.915 351.598 117.322 351.598 115.36C351.598 113.398 353.191 111.805 355.153 111.805C357.115 111.805 358.708 113.398 358.708 115.36Z" fill="#2E363D"/>
<path d="M114.404 92.8435C117.347 92.8435 119.732 90.4581 119.732 87.5155C119.732 84.5729 117.347 82.1875 114.404 82.1875C111.462 82.1875 109.076 84.5729 109.076 87.5155C109.076 90.4581 111.462 92.8435 114.404 92.8435Z" fill="#2E363D"/>
<path d="M123.996 103.858C123.573 103.858 123.15 103.831 122.736 103.777L122.826 103.075C124.401 103.282 126.039 103.057 127.506 102.427L127.785 103.075C126.588 103.588 125.31 103.858 123.996 103.858ZM118.038 101.788C116.679 100.708 115.635 99.2857 115.023 97.6747L115.689 97.4227C116.256 98.9167 117.219 100.231 118.479 101.23L118.038 101.788ZM131.763 99.8887L131.187 99.4747C132.123 98.1787 132.699 96.6487 132.834 95.0467L133.545 95.1097C133.392 96.8377 132.78 98.4847 131.763 99.8887ZM115.113 94.2727H114.402C114.402 92.5357 114.87 90.8347 115.761 89.3587L116.373 89.7277C115.554 91.0957 115.122 92.6707 115.122 94.2817L115.113 94.2727ZM131.988 90.4117C131.286 88.9717 130.215 87.7387 128.874 86.8567L129.261 86.2627C130.71 87.2167 131.871 88.5397 132.627 90.0967L131.988 90.4027V90.4117ZM119.775 86.4607L119.433 85.8397C120.945 85.0207 122.7 84.6247 124.401 84.7057L124.374 85.4167C122.799 85.3447 121.17 85.7137 119.775 86.4697V86.4607Z" fill="#2E363D"/>
<path d="M291.964 42.3076C290.245 42.1816 288.598 41.7046 287.077 40.8946L287.41 40.2646C288.841 41.0206 290.389 41.4706 292.009 41.5966L291.955 42.3076H291.964ZM297.004 41.6506L296.77 40.9846C298.3 40.4536 299.677 39.6166 300.874 38.5096L301.36 39.0316C300.091 40.2016 298.633 41.0926 297.004 41.6506ZM283.171 37.6456C282.1 36.2956 281.326 34.7656 280.885 33.1096L281.569 32.9296C281.983 34.4956 282.712 35.9356 283.72 37.2046L283.162 37.6456H283.171ZM304.294 34.8826L303.646 34.5946C304.294 33.1096 304.618 31.5346 304.618 29.9056H305.329C305.329 31.6336 304.978 33.3076 304.294 34.8826ZM304.555 28.6276C304.384 27.0166 303.88 25.4776 303.07 24.0736L303.682 23.7226C304.537 25.2166 305.068 26.8456 305.257 28.5556L304.555 28.6276ZM281.317 28.1416L280.615 28.0336C280.876 26.3326 281.47 24.7306 282.388 23.2726L282.991 23.6506C282.118 25.0276 281.56 26.5306 281.317 28.1416ZM299.893 20.4916C298.588 19.5196 297.121 18.8446 295.546 18.4846L295.708 17.7916C297.382 18.1786 298.939 18.8986 300.325 19.9246L299.902 20.4916H299.893ZM286.321 20.2036L285.925 19.6186C287.356 18.6466 288.931 17.9986 290.623 17.6836L290.749 18.3856C289.156 18.6826 287.662 19.2946 286.321 20.2126V20.2036Z" fill="#2E363D"/>
</svg>
