<svg width="16" height="17" viewBox="0 0 16 17" fill="none" xmlns="http://www.w3.org/2000/svg">
<path d="M7.16196 4.13316C7.4329 4.0931 7.7124 4.07161 8.00028 4.07161C11.4036 4.07161 13.6369 7.07484 14.3871 8.26283C14.4779 8.40662 14.5233 8.47851 14.5488 8.5894C14.5678 8.67267 14.5678 8.80406 14.5487 8.88733C14.5233 8.99822 14.4776 9.07059 14.3861 9.21533C14.1862 9.53171 13.8814 9.97635 13.4777 10.4586M4.48288 5.21497C3.0415 6.19275 2.06297 7.5512 1.61407 8.2618C1.52286 8.4062 1.47725 8.47839 1.45183 8.58927C1.43273 8.67254 1.43272 8.80391 1.45181 8.88719C1.47722 8.99807 1.52262 9.06996 1.61342 9.21373C2.36369 10.4017 4.59694 13.4049 8.00028 13.4049C9.37255 13.4049 10.5546 12.9167 11.5259 12.256M2.00028 2.73828L14.0003 14.7383M6.58606 7.32407C6.22413 7.686 6.00028 8.186 6.00028 8.73828C6.00028 9.84285 6.89571 10.7383 8.00028 10.7383C8.55256 10.7383 9.05256 10.5144 9.41449 10.1525" stroke="black" stroke-linecap="round" stroke-linejoin="round"/>
</svg>
