<svg width="16" height="17" viewBox="0 0 16 17" fill="none" xmlns="http://www.w3.org/2000/svg">
<path d="M1.61342 9.21438C1.52262 9.07063 1.47723 8.99874 1.45182 8.88788C1.43273 8.8046 1.43273 8.67327 1.45182 8.58999C1.47723 8.47912 1.52262 8.40724 1.61341 8.26348C2.36369 7.07549 4.59693 4.07227 8.00027 4.07227C11.4036 4.07227 13.6369 7.07549 14.3871 8.26348C14.4779 8.40724 14.5233 8.47912 14.5487 8.58999C14.5678 8.67327 14.5678 8.8046 14.5487 8.88788C14.5233 8.99874 14.4779 9.07062 14.3871 9.21438C13.6369 10.4024 11.4036 13.4056 8.00027 13.4056C4.59693 13.4056 2.36369 10.4024 1.61342 9.21438Z" stroke="black" stroke-linecap="round" stroke-linejoin="round"/>
<path d="M8.00027 10.7389C9.10484 10.7389 10.0003 9.8435 10.0003 8.73893C10.0003 7.63436 9.10484 6.73893 8.00027 6.73893C6.8957 6.73893 6.00027 7.63436 6.00027 8.73893C6.00027 9.8435 6.8957 10.7389 8.00027 10.7389Z" stroke="black" stroke-linecap="round" stroke-linejoin="round"/>
</svg>
