<svg width="880" height="92" viewBox="0 0 880 92" fill="none" xmlns="http://www.w3.org/2000/svg">
<rect x="420" y="3" width="40" height="40" rx="20" fill="#F2F4F7"/>
<rect x="420" y="3" width="40" height="40" rx="20" stroke="#F9FAFB" stroke-width="6"/>
<path d="M436.666 26.3333L439.999 23M439.999 23L443.333 26.3333M439.999 23V30.5M446.666 26.9524C447.684 26.1117 448.333 24.8399 448.333 23.4167C448.333 20.8854 446.281 18.8333 443.749 18.8333C443.567 18.8333 443.397 18.7383 443.304 18.5814C442.218 16.7374 440.211 15.5 437.916 15.5C434.464 15.5 431.666 18.2982 431.666 21.75C431.666 23.4718 432.362 25.0309 433.488 26.1613" stroke="#475467" stroke-width="1.66667" stroke-linecap="round" stroke-linejoin="round"/>
<g clip-path="url(#clip0_1349_21377)">
<path d="M394.936 70.168C394.199 70.168 393.513 70.0327 392.878 69.762C392.253 69.4913 391.707 69.118 391.24 68.642C390.783 68.1567 390.423 67.5873 390.162 66.934C389.901 66.2807 389.77 65.562 389.77 64.778C389.77 64.0033 389.896 63.2893 390.148 62.636C390.409 61.9733 390.773 61.404 391.24 60.928C391.707 60.4427 392.253 60.0693 392.878 59.808C393.503 59.5373 394.189 59.402 394.936 59.402C395.673 59.402 396.331 59.528 396.91 59.78C397.498 60.032 397.993 60.3633 398.394 60.774C398.795 61.1753 399.085 61.614 399.262 62.09L397.778 62.79C397.554 62.23 397.195 61.7773 396.7 61.432C396.215 61.0773 395.627 60.9 394.936 60.9C394.245 60.9 393.634 61.0633 393.102 61.39C392.57 61.7167 392.155 62.1693 391.856 62.748C391.567 63.3267 391.422 64.0033 391.422 64.778C391.422 65.5527 391.567 66.234 391.856 66.822C392.155 67.4007 392.57 67.8533 393.102 68.18C393.634 68.4973 394.245 68.656 394.936 68.656C395.627 68.656 396.215 68.4833 396.7 68.138C397.195 67.7927 397.554 67.34 397.778 66.78L399.262 67.48C399.085 67.9467 398.795 68.3853 398.394 68.796C397.993 69.2067 397.498 69.538 396.91 69.79C396.331 70.042 395.673 70.168 394.936 70.168ZM400.807 70V59.402H402.389V70H400.807ZM404.238 70V62.426H405.82V70H404.238ZM404.238 61.39V59.57H405.82V61.39H404.238ZM411.268 70.168C410.512 70.168 409.84 69.9953 409.252 69.65C408.673 69.2953 408.211 68.8193 407.866 68.222C407.53 67.6247 407.362 66.948 407.362 66.192C407.362 65.4453 407.53 64.7733 407.866 64.176C408.202 63.5787 408.664 63.112 409.252 62.776C409.84 62.4307 410.512 62.258 411.268 62.258C411.781 62.258 412.262 62.3513 412.71 62.538C413.158 62.7153 413.545 62.9627 413.872 63.28C414.208 63.5973 414.455 63.966 414.614 64.386L413.228 65.03C413.069 64.638 412.813 64.3253 412.458 64.092C412.113 63.8493 411.716 63.728 411.268 63.728C410.839 63.728 410.451 63.8353 410.106 64.05C409.77 64.2553 409.504 64.5493 409.308 64.932C409.112 65.3053 409.014 65.73 409.014 66.206C409.014 66.682 409.112 67.1113 409.308 67.494C409.504 67.8673 409.77 68.1613 410.106 68.376C410.451 68.5907 410.839 68.698 411.268 68.698C411.725 68.698 412.122 68.5813 412.458 68.348C412.803 68.1053 413.06 67.7833 413.228 67.382L414.614 68.04C414.465 68.4413 414.222 68.8053 413.886 69.132C413.559 69.4493 413.172 69.7013 412.724 69.888C412.276 70.0747 411.791 70.168 411.268 70.168ZM416.16 70V59.402H417.742V66.5L417.126 66.346L420.92 62.426H422.894L420.038 65.464L423.02 70H421.2L418.54 65.982L419.478 65.856L417.238 68.236L417.742 67.186V70H416.16ZM429.827 70.084C429.034 70.084 428.418 69.86 427.979 69.412C427.54 68.964 427.321 68.334 427.321 67.522V63.854H425.991V62.426H426.201C426.556 62.426 426.831 62.3233 427.027 62.118C427.223 61.9127 427.321 61.6327 427.321 61.278V60.69H428.903V62.426H430.625V63.854H428.903V67.452C428.903 67.7133 428.945 67.9373 429.029 68.124C429.113 68.3013 429.248 68.4413 429.435 68.544C429.622 68.6373 429.864 68.684 430.163 68.684C430.238 68.684 430.322 68.6793 430.415 68.67C430.508 68.6607 430.597 68.6513 430.681 68.642V70C430.55 70.0187 430.406 70.0373 430.247 70.056C430.088 70.0747 429.948 70.084 429.827 70.084ZM435.742 70.168C435.014 70.168 434.347 69.9953 433.74 69.65C433.143 69.3047 432.667 68.8333 432.312 68.236C431.957 67.6387 431.78 66.962 431.78 66.206C431.78 65.4407 431.957 64.764 432.312 64.176C432.667 63.5787 433.143 63.112 433.74 62.776C434.337 62.4307 435.005 62.258 435.742 62.258C436.489 62.258 437.156 62.4307 437.744 62.776C438.341 63.112 438.813 63.5787 439.158 64.176C439.513 64.764 439.69 65.4407 439.69 66.206C439.69 66.9713 439.513 67.6527 439.158 68.25C438.803 68.8473 438.327 69.3187 437.73 69.664C437.133 70 436.47 70.168 435.742 70.168ZM435.742 68.698C436.19 68.698 436.587 68.5907 436.932 68.376C437.277 68.1613 437.548 67.8673 437.744 67.494C437.949 67.1113 438.052 66.682 438.052 66.206C438.052 65.73 437.949 65.3053 437.744 64.932C437.548 64.5587 437.277 64.2647 436.932 64.05C436.587 63.8353 436.19 63.728 435.742 63.728C435.303 63.728 434.907 63.8353 434.552 64.05C434.207 64.2647 433.931 64.5587 433.726 64.932C433.53 65.3053 433.432 65.73 433.432 66.206C433.432 66.682 433.53 67.1113 433.726 67.494C433.931 67.8673 434.207 68.1613 434.552 68.376C434.907 68.5907 435.303 68.698 435.742 68.698ZM446.384 70.168C445.814 70.168 445.315 70.042 444.886 69.79C444.456 69.5287 444.12 69.1693 443.878 68.712C443.644 68.2453 443.528 67.7087 443.528 67.102V62.426H445.11V66.962C445.11 67.3073 445.18 67.6107 445.32 67.872C445.46 68.1333 445.656 68.3387 445.908 68.488C446.16 68.628 446.449 68.698 446.776 68.698C447.112 68.698 447.406 68.6233 447.658 68.474C447.91 68.3247 448.106 68.1147 448.246 67.844C448.395 67.5733 448.47 67.256 448.47 66.892V62.426H450.038V70H448.54V68.516L448.708 68.712C448.53 69.1787 448.236 69.538 447.826 69.79C447.415 70.042 446.934 70.168 446.384 70.168ZM451.885 72.8V62.426H453.397V63.994L453.215 63.63C453.495 63.2007 453.868 62.8647 454.335 62.622C454.802 62.3793 455.334 62.258 455.931 62.258C456.65 62.258 457.294 62.4307 457.863 62.776C458.442 63.1213 458.894 63.5927 459.221 64.19C459.557 64.7873 459.725 65.4593 459.725 66.206C459.725 66.9527 459.557 67.6247 459.221 68.222C458.894 68.8193 458.446 69.2953 457.877 69.65C457.308 69.9953 456.659 70.168 455.931 70.168C455.343 70.168 454.806 70.0467 454.321 69.804C453.845 69.5613 453.476 69.2113 453.215 68.754L453.467 68.46V72.8H451.885ZM455.777 68.698C456.225 68.698 456.622 68.5907 456.967 68.376C457.312 68.1613 457.583 67.8673 457.779 67.494C457.984 67.1113 458.087 66.682 458.087 66.206C458.087 65.73 457.984 65.3053 457.779 64.932C457.583 64.5587 457.312 64.2647 456.967 64.05C456.622 63.8353 456.225 63.728 455.777 63.728C455.338 63.728 454.942 63.8353 454.587 64.05C454.242 64.2647 453.966 64.5587 453.761 64.932C453.565 65.3053 453.467 65.73 453.467 66.206C453.467 66.682 453.565 67.1113 453.761 67.494C453.966 67.8673 454.242 68.1613 454.587 68.376C454.942 68.5907 455.338 68.698 455.777 68.698ZM461.264 70V59.402H462.846V70H461.264ZM468.349 70.168C467.621 70.168 466.954 69.9953 466.347 69.65C465.75 69.3047 465.274 68.8333 464.919 68.236C464.565 67.6387 464.387 66.962 464.387 66.206C464.387 65.4407 464.565 64.764 464.919 64.176C465.274 63.5787 465.75 63.112 466.347 62.776C466.945 62.4307 467.612 62.258 468.349 62.258C469.096 62.258 469.763 62.4307 470.351 62.776C470.949 63.112 471.42 63.5787 471.765 64.176C472.12 64.764 472.297 65.4407 472.297 66.206C472.297 66.9713 472.12 67.6527 471.765 68.25C471.411 68.8473 470.935 69.3187 470.337 69.664C469.74 70 469.077 70.168 468.349 70.168ZM468.349 68.698C468.797 68.698 469.194 68.5907 469.539 68.376C469.885 68.1613 470.155 67.8673 470.351 67.494C470.557 67.1113 470.659 66.682 470.659 66.206C470.659 65.73 470.557 65.3053 470.351 64.932C470.155 64.5587 469.885 64.2647 469.539 64.05C469.194 63.8353 468.797 63.728 468.349 63.728C467.911 63.728 467.514 63.8353 467.159 64.05C466.814 64.2647 466.539 64.5587 466.333 64.932C466.137 65.3053 466.039 65.73 466.039 66.206C466.039 66.682 466.137 67.1113 466.333 67.494C466.539 67.8673 466.814 68.1613 467.159 68.376C467.514 68.5907 467.911 68.698 468.349 68.698ZM476.11 70.168C475.597 70.168 475.144 70.0793 474.752 69.902C474.369 69.7153 474.071 69.4633 473.856 69.146C473.641 68.8193 473.534 68.4367 473.534 67.998C473.534 67.5873 473.623 67.2187 473.8 66.892C473.987 66.5653 474.271 66.29 474.654 66.066C475.037 65.842 475.517 65.6833 476.096 65.59L478.728 65.156V66.402L476.404 66.808C475.984 66.8827 475.676 67.018 475.48 67.214C475.284 67.4007 475.186 67.6433 475.186 67.942C475.186 68.2313 475.293 68.4693 475.508 68.656C475.732 68.8333 476.017 68.922 476.362 68.922C476.791 68.922 477.165 68.8287 477.482 68.642C477.809 68.4553 478.061 68.208 478.238 67.9C478.415 67.5827 478.504 67.2327 478.504 66.85V64.904C478.504 64.5307 478.364 64.2273 478.084 63.994C477.813 63.7513 477.449 63.63 476.992 63.63C476.572 63.63 476.203 63.742 475.886 63.966C475.578 64.1807 475.349 64.4607 475.2 64.806L473.884 64.148C474.024 63.7747 474.253 63.448 474.57 63.168C474.887 62.8787 475.256 62.6547 475.676 62.496C476.105 62.3373 476.558 62.258 477.034 62.258C477.631 62.258 478.159 62.37 478.616 62.594C479.083 62.818 479.442 63.1307 479.694 63.532C479.955 63.924 480.086 64.3813 480.086 64.904V70H478.574V68.628L478.896 68.67C478.719 68.978 478.49 69.244 478.21 69.468C477.939 69.692 477.627 69.8647 477.272 69.986C476.927 70.1073 476.539 70.168 476.11 70.168ZM485.436 70.168C484.708 70.168 484.054 69.9953 483.476 69.65C482.906 69.2953 482.454 68.8193 482.118 68.222C481.791 67.6247 481.628 66.9527 481.628 66.206C481.628 65.4593 481.796 64.7873 482.132 64.19C482.468 63.5927 482.92 63.1213 483.49 62.776C484.059 62.4307 484.703 62.258 485.422 62.258C486.028 62.258 486.565 62.3793 487.032 62.622C487.498 62.8647 487.867 63.2007 488.138 63.63L487.9 63.994V59.402H489.468V70H487.97V68.46L488.152 68.754C487.89 69.2113 487.517 69.5613 487.032 69.804C486.546 70.0467 486.014 70.168 485.436 70.168ZM485.59 68.698C486.028 68.698 486.42 68.5907 486.766 68.376C487.12 68.1613 487.396 67.8673 487.592 67.494C487.797 67.1113 487.9 66.682 487.9 66.206C487.9 65.73 487.797 65.3053 487.592 64.932C487.396 64.5587 487.12 64.2647 486.766 64.05C486.42 63.8353 486.028 63.728 485.59 63.728C485.151 63.728 484.754 63.8353 484.4 64.05C484.045 64.2647 483.77 64.5587 483.574 64.932C483.378 65.3053 483.28 65.73 483.28 66.206C483.28 66.682 483.378 67.1113 483.574 67.494C483.77 67.8673 484.04 68.1613 484.386 68.376C484.74 68.5907 485.142 68.698 485.59 68.698Z" fill="#B2B7BF"/>
</g>
<path d="M382.615 89V80.06H385.687C386.271 80.06 386.783 80.176 387.223 80.408C387.663 80.632 388.003 80.952 388.243 81.368C388.491 81.776 388.615 82.252 388.615 82.796C388.615 83.34 388.491 83.816 388.243 84.224C388.003 84.632 387.663 84.952 387.223 85.184C386.791 85.408 386.279 85.52 385.687 85.52H383.575V89H382.615ZM383.575 84.62H385.735C386.119 84.62 386.455 84.548 386.743 84.404C387.031 84.252 387.255 84.04 387.415 83.768C387.575 83.488 387.655 83.16 387.655 82.784C387.655 82.408 387.575 82.084 387.415 81.812C387.255 81.54 387.031 81.332 386.743 81.188C386.455 81.036 386.119 80.96 385.735 80.96H383.575V84.62ZM390.326 89V80.06H393.266C394.154 80.06 394.926 80.244 395.582 80.612C396.238 80.972 396.746 81.488 397.106 82.16C397.466 82.824 397.646 83.612 397.646 84.524C397.646 85.428 397.466 86.216 397.106 86.888C396.746 87.56 396.238 88.08 395.582 88.448C394.926 88.816 394.154 89 393.266 89H390.326ZM391.286 88.1H393.266C393.954 88.1 394.55 87.956 395.054 87.668C395.558 87.372 395.946 86.956 396.218 86.42C396.498 85.884 396.638 85.252 396.638 84.524C396.638 83.796 396.498 83.168 396.218 82.64C395.938 82.104 395.546 81.692 395.042 81.404C394.538 81.108 393.946 80.96 393.266 80.96H391.286V88.1ZM399.232 89V80.06H404.752V80.96H400.192V84.068H404.392V84.968H400.192V89H399.232ZM405.511 90.56V90.14C405.751 90.076 405.927 89.952 406.039 89.768C406.151 89.584 406.207 89.328 406.207 89H405.751V87.68H406.711V88.688C406.711 89.208 406.611 89.624 406.411 89.936C406.211 90.256 405.911 90.464 405.511 90.56ZM410.88 89V80.06H413.952C414.536 80.06 415.048 80.176 415.488 80.408C415.928 80.632 416.268 80.952 416.508 81.368C416.756 81.776 416.88 82.252 416.88 82.796C416.88 83.34 416.756 83.816 416.508 84.224C416.268 84.632 415.928 84.952 415.488 85.184C415.056 85.408 414.544 85.52 413.952 85.52H411.84V89H410.88ZM411.84 84.62H414C414.384 84.62 414.72 84.548 415.008 84.404C415.296 84.252 415.52 84.04 415.68 83.768C415.84 83.488 415.92 83.16 415.92 82.784C415.92 82.408 415.84 82.084 415.68 81.812C415.52 81.54 415.296 81.332 415.008 81.188C414.72 81.036 414.384 80.96 414 80.96H411.84V84.62ZM418.591 89V80.06H419.431L424.675 87.584H424.351V80.06H425.311V89H424.471L419.227 81.428H419.551V89H418.591ZM431.507 89.144C430.875 89.144 430.295 89.032 429.767 88.808C429.239 88.576 428.779 88.256 428.387 87.848C428.003 87.432 427.703 86.944 427.487 86.384C427.271 85.824 427.163 85.208 427.163 84.536C427.163 83.864 427.271 83.248 427.487 82.688C427.703 82.128 428.003 81.64 428.387 81.224C428.779 80.808 429.239 80.488 429.767 80.264C430.295 80.032 430.875 79.916 431.507 79.916C432.115 79.916 432.659 80.024 433.139 80.24C433.627 80.456 434.035 80.736 434.363 81.08C434.699 81.416 434.939 81.772 435.083 82.148L434.219 82.568C433.995 82.024 433.651 81.596 433.187 81.284C432.723 80.972 432.163 80.816 431.507 80.816C430.851 80.816 430.267 80.972 429.755 81.284C429.243 81.596 428.843 82.032 428.555 82.592C428.267 83.144 428.123 83.792 428.123 84.536C428.123 85.272 428.267 85.92 428.555 86.48C428.843 87.04 429.243 87.476 429.755 87.788C430.267 88.092 430.851 88.244 431.507 88.244C432.091 88.244 432.615 88.116 433.079 87.86C433.551 87.604 433.923 87.256 434.195 86.816C434.467 86.368 434.603 85.856 434.603 85.28V84.788L435.035 85.22H431.507V84.38H435.563V85.124C435.563 85.708 435.459 86.248 435.251 86.744C435.043 87.232 434.755 87.656 434.387 88.016C434.019 88.376 433.587 88.656 433.091 88.856C432.603 89.048 432.075 89.144 431.507 89.144ZM437.187 90.56V90.14C437.427 90.076 437.603 89.952 437.715 89.768C437.827 89.584 437.883 89.328 437.883 89H437.427V87.68H438.387V88.688C438.387 89.208 438.287 89.624 438.087 89.936C437.887 90.256 437.587 90.464 437.187 90.56ZM442.16 89V88.04H442.64C443.088 88.04 443.44 87.908 443.696 87.644C443.952 87.372 444.08 87.004 444.08 86.54V80.06H445.04V86.54C445.04 87.044 444.94 87.48 444.74 87.848C444.548 88.216 444.272 88.5 443.912 88.7C443.552 88.9 443.128 89 442.64 89H442.16ZM447.15 89V80.06H450.222C450.806 80.06 451.318 80.176 451.758 80.408C452.198 80.632 452.538 80.952 452.778 81.368C453.026 81.776 453.15 82.252 453.15 82.796C453.15 83.34 453.026 83.816 452.778 84.224C452.538 84.632 452.198 84.952 451.758 85.184C451.326 85.408 450.814 85.52 450.222 85.52H448.11V89H447.15ZM448.11 84.62H450.27C450.654 84.62 450.99 84.548 451.278 84.404C451.566 84.252 451.79 84.04 451.95 83.768C452.11 83.488 452.19 83.16 452.19 82.784C452.19 82.408 452.11 82.084 451.95 81.812C451.79 81.54 451.566 81.332 451.278 81.188C450.99 81.036 450.654 80.96 450.27 80.96H448.11V84.62ZM458.941 89.144C458.309 89.144 457.729 89.032 457.201 88.808C456.673 88.576 456.213 88.256 455.821 87.848C455.437 87.432 455.137 86.944 454.921 86.384C454.705 85.824 454.597 85.208 454.597 84.536C454.597 83.864 454.705 83.248 454.921 82.688C455.137 82.128 455.437 81.64 455.821 81.224C456.213 80.808 456.673 80.488 457.201 80.264C457.729 80.032 458.309 79.916 458.941 79.916C459.549 79.916 460.093 80.024 460.573 80.24C461.061 80.456 461.469 80.736 461.797 81.08C462.133 81.416 462.373 81.772 462.517 82.148L461.653 82.568C461.429 82.024 461.085 81.596 460.621 81.284C460.157 80.972 459.597 80.816 458.941 80.816C458.285 80.816 457.701 80.972 457.189 81.284C456.677 81.596 456.277 82.032 455.989 82.592C455.701 83.144 455.557 83.792 455.557 84.536C455.557 85.272 455.701 85.92 455.989 86.48C456.277 87.04 456.677 87.476 457.189 87.788C457.701 88.092 458.285 88.244 458.941 88.244C459.525 88.244 460.049 88.116 460.513 87.86C460.985 87.604 461.357 87.256 461.629 86.816C461.901 86.368 462.037 85.856 462.037 85.28V84.788L462.469 85.22H458.941V84.38H462.997V85.124C462.997 85.708 462.893 86.248 462.685 86.744C462.477 87.232 462.189 87.656 461.821 88.016C461.453 88.376 461.021 88.656 460.525 88.856C460.037 89.048 459.509 89.144 458.941 89.144ZM464.62 90.56V90.14C464.86 90.076 465.036 89.952 465.148 89.768C465.26 89.584 465.316 89.328 465.316 89H464.86V87.68H465.82V88.688C465.82 89.208 465.72 89.624 465.52 89.936C465.32 90.256 465.02 90.464 464.62 90.56ZM469.594 89V88.04H470.074C470.522 88.04 470.874 87.908 471.13 87.644C471.386 87.372 471.514 87.004 471.514 86.54V80.06H472.474V86.54C472.474 87.044 472.374 87.48 472.174 87.848C471.982 88.216 471.706 88.5 471.346 88.7C470.986 88.9 470.562 89 470.074 89H469.594ZM474.583 89V80.06H477.655C478.239 80.06 478.751 80.176 479.191 80.408C479.631 80.632 479.971 80.952 480.211 81.368C480.459 81.776 480.583 82.252 480.583 82.796C480.583 83.34 480.459 83.816 480.211 84.224C479.971 84.632 479.631 84.952 479.191 85.184C478.759 85.408 478.247 85.52 477.655 85.52H475.543V89H474.583ZM475.543 84.62H477.703C478.087 84.62 478.423 84.548 478.711 84.404C478.999 84.252 479.223 84.04 479.383 83.768C479.543 83.488 479.623 83.16 479.623 82.784C479.623 82.408 479.543 82.084 479.383 81.812C479.223 81.54 478.999 81.332 478.711 81.188C478.423 81.036 478.087 80.96 477.703 80.96H475.543V84.62ZM482.294 89V80.06H488.054V80.96H483.254V84.068H487.814V84.968H483.254V88.1H488.054V89H482.294ZM493.722 89.144C493.09 89.144 492.51 89.032 491.982 88.808C491.454 88.576 490.994 88.256 490.602 87.848C490.218 87.432 489.918 86.944 489.702 86.384C489.486 85.824 489.378 85.208 489.378 84.536C489.378 83.864 489.486 83.248 489.702 82.688C489.918 82.128 490.218 81.64 490.602 81.224C490.994 80.808 491.454 80.488 491.982 80.264C492.51 80.032 493.09 79.916 493.722 79.916C494.33 79.916 494.874 80.024 495.354 80.24C495.842 80.456 496.25 80.736 496.578 81.08C496.914 81.416 497.154 81.772 497.298 82.148L496.434 82.568C496.21 82.024 495.866 81.596 495.402 81.284C494.938 80.972 494.378 80.816 493.722 80.816C493.066 80.816 492.482 80.972 491.97 81.284C491.458 81.596 491.058 82.032 490.77 82.592C490.482 83.144 490.338 83.792 490.338 84.536C490.338 85.272 490.482 85.92 490.77 86.48C491.058 87.04 491.458 87.476 491.97 87.788C492.482 88.092 493.066 88.244 493.722 88.244C494.306 88.244 494.83 88.116 495.294 87.86C495.766 87.604 496.138 87.256 496.41 86.816C496.682 86.368 496.818 85.856 496.818 85.28V84.788L497.25 85.22H493.722V84.38H497.778V85.124C497.778 85.708 497.674 86.248 497.466 86.744C497.258 87.232 496.97 87.656 496.602 88.016C496.234 88.376 495.802 88.656 495.306 88.856C494.818 89.048 494.29 89.144 493.722 89.144Z" fill="#475467"/>
<defs>
<clipPath id="clip0_1349_21377">
<rect width="102" height="18" fill="white" transform="translate(389 55)"/>
</clipPath>
</defs>
</svg>
