<svg width="16" height="14" viewBox="0 0 16 14" fill="none" xmlns="http://www.w3.org/2000/svg">
<path d="M11.334 8.66704V6.66332C11.334 6.54367 11.334 6.48384 11.3158 6.43102C11.2997 6.38432 11.2734 6.34177 11.2388 6.30647C11.1997 6.26656 11.1462 6.2398 11.0392 6.18629L8.00065 4.66704M2.66732 5.3337V9.87145C2.66732 10.1194 2.66732 10.2434 2.706 10.3519C2.74019 10.4479 2.79592 10.5347 2.8689 10.6058C2.95146 10.6862 3.06417 10.7378 3.28955 10.8411L7.55622 12.7967C7.71971 12.8716 7.80145 12.9091 7.88661 12.9239C7.96207 12.937 8.03923 12.937 8.11469 12.9239C8.19985 12.9091 8.28159 12.8716 8.44508 12.7967L12.7118 10.8411C12.9371 10.7378 13.0498 10.6862 13.1324 10.6058C13.2054 10.5347 13.2611 10.4479 13.2953 10.3519C13.334 10.2434 13.334 10.1194 13.334 9.87145V5.3337M1.33398 4.66704L7.76214 1.45296C7.84959 1.40923 7.89332 1.38737 7.93919 1.37876C7.97981 1.37114 8.02149 1.37114 8.06212 1.37876C8.10798 1.38737 8.15171 1.40923 8.23917 1.45296L14.6673 4.66704L8.23917 7.88111C8.15171 7.92484 8.10798 7.9467 8.06212 7.95531C8.02149 7.96293 7.97981 7.96293 7.93919 7.95531C7.89332 7.9467 7.84959 7.92484 7.76214 7.88111L1.33398 4.66704Z" stroke="#747474" stroke-linecap="round" stroke-linejoin="round"/>
</svg>
