<svg width="450" height="300" viewBox="0 0 450 300" fill="none" xmlns="http://www.w3.org/2000/svg">
<path d="M351.39 121.578H436.884L422.958 131.628V151.428C422.958 152.523 422.523 153.573 421.749 154.347C420.975 155.121 419.925 155.556 418.83 155.556H351.39C350.295 155.556 349.245 155.121 348.471 154.347C347.697 153.573 347.262 152.523 347.262 151.428V125.706C347.262 124.611 347.697 123.561 348.471 122.787C349.245 122.013 350.295 121.578 351.39 121.578Z" fill="#F5F5F5"/>
<path d="M354.955 135.552C354.955 135.636 367.849 135.702 383.755 135.702C399.661 135.702 412.555 135.636 412.555 135.552C412.555 135.468 399.661 135.402 383.755 135.402C367.849 135.402 354.955 135.468 354.955 135.552Z" fill="#E0E0E0"/>
<path d="M354.955 143.143C354.955 143.227 367.849 143.293 383.755 143.293C399.661 143.293 412.555 143.227 412.555 143.143C412.555 143.059 399.661 142.993 383.755 142.993C367.849 142.993 354.955 143.065 354.955 143.143Z" fill="#E0E0E0"/>
<path d="M221.543 48.6187H217.541V62.0227H221.543V48.6187Z" fill="#E0E0E0"/>
<path d="M188.123 46.6802H184.121V62.0222H188.123V46.6802Z" fill="#E0E0E0"/>
<path d="M196.482 43.4819H192.48V62.0219H196.482V43.4819Z" fill="#E0E0E0"/>
<path d="M204.834 44.4966H200.832V62.0226H204.834V44.4966Z" fill="#E0E0E0"/>
<path d="M213.186 38.5684H209.184V62.0224H213.186V38.5684Z" fill="#E0E0E0"/>
<path d="M229.897 38.6821H225.895V62.0221H229.897V38.6821Z" fill="#E0E0E0"/>
<path d="M238.254 46.3501H234.252V62.0221H238.254V46.3501Z" fill="#E0E0E0"/>
<path d="M246.606 39.708H242.604V62.022H246.606V39.708Z" fill="#E0E0E0"/>
<path d="M254.965 34.686H250.963V62.022H254.965V34.686Z" fill="#E0E0E0"/>
<path d="M263.316 39.5942H259.314V62.0222H263.316V39.5942Z" fill="#E0E0E0"/>
<path d="M368.735 60.7802L401.819 55.7222C402.88 62.6381 401.747 69.7125 398.58 75.9515C395.414 82.1906 390.372 87.2807 384.163 90.5067C377.954 93.7327 370.891 94.9326 363.965 93.9377C357.04 92.9428 350.6 89.8031 345.55 84.9598C340.501 80.1165 337.096 73.8129 335.813 66.9347C334.531 60.0565 335.435 52.9493 338.4 46.6117C341.365 40.2741 346.241 35.0246 352.342 31.6007C358.444 28.1767 365.465 26.7504 372.419 27.5222L368.735 60.7802Z" fill="#EBEBEB"/>
<path d="M379.471 27.6001L375.457 53.2441L400.657 48.5161C400.657 48.5161 396.931 34.1641 379.471 27.6001Z" fill="#E0E0E0"/>
<path d="M30.888 123C30.8481 119.758 31.7695 116.578 33.5359 113.86C35.3022 111.141 37.8344 109.008 40.8126 107.727C43.7908 106.447 47.0816 106.078 50.2694 106.667C53.4572 107.255 56.3991 108.775 58.7238 111.035C61.0484 113.294 62.6515 116.192 63.3307 119.361C64.0098 122.531 63.7346 125.831 62.5397 128.844C61.3449 131.858 59.2839 134.45 56.6171 136.293C53.9503 138.136 50.7972 139.147 47.556 139.2C43.1996 139.254 38.9992 137.58 35.875 134.544C32.7508 131.507 30.9575 127.356 30.888 123ZM55.134 122.604C55.1007 121.056 54.6098 119.552 53.7234 118.283C52.837 117.013 51.5945 116.035 50.1528 115.47C48.711 114.906 47.1344 114.781 45.6217 115.111C44.1089 115.441 42.7278 116.212 41.6523 117.326C40.5768 118.439 39.8551 119.847 39.5782 121.37C39.3013 122.893 39.4815 124.465 40.0962 125.886C40.7109 127.307 41.7325 128.514 43.0322 129.356C44.332 130.197 45.8518 130.635 47.4 130.614C48.434 130.597 49.4545 130.376 50.4031 129.964C51.3517 129.552 52.2097 128.957 52.928 128.213C53.6464 127.469 54.211 126.59 54.5895 125.628C54.968 124.666 55.153 123.638 55.134 122.604Z" fill="#F5F5F5"/>
<path d="M30.8872 123C30.8117 118.641 32.4686 114.429 35.4944 111.29C38.5203 108.15 42.6678 106.34 47.0272 106.254L47.1652 114.852C45.1075 114.931 43.1621 115.811 41.7451 117.305C40.3281 118.799 39.5518 120.789 39.5824 122.848C39.613 124.907 40.4479 126.872 41.9087 128.323C43.3694 129.775 45.3401 130.597 47.3992 130.614L47.5552 139.2C43.1984 139.257 38.9971 137.583 35.8725 134.546C32.748 131.509 30.9552 127.357 30.8872 123Z" fill="#E0E0E0"/>
<path d="M45.5586 104.928C48.0522 104.869 50.5326 105.308 52.8545 106.219C55.1765 107.13 57.2933 108.496 59.0812 110.235C60.8691 111.974 62.2921 114.053 63.267 116.349C64.2418 118.644 64.7489 121.112 64.7586 123.606L54.7386 123.762C54.6606 118.68 50.7906 115.482 45.7386 115.566L45.5586 104.928Z" fill="#EBEBEB"/>
<path d="M137.471 180.864H116.615V205.656H137.471V180.864Z" fill="#F5F5F5"/>
<path d="M117.342 179.245H23.0996V207.211H117.342V179.245Z" fill="#E0E0E0"/>
<path d="M138.103 181.597H114.811V179.245H138.103C138.421 179.245 138.726 179.371 138.951 179.596C139.176 179.821 139.303 180.126 139.303 180.445C139.29 180.754 139.158 181.048 138.935 181.262C138.711 181.477 138.413 181.597 138.103 181.597Z" fill="#E0E0E0"/>
<path d="M138.103 207.21H114.811V204.858H138.103C138.421 204.858 138.726 204.984 138.951 205.209C139.176 205.434 139.303 205.74 139.303 206.058C139.29 206.368 139.158 206.661 138.935 206.876C138.711 207.09 138.413 207.21 138.103 207.21Z" fill="#E0E0E0"/>
<path d="M109.933 179.245H98.7969V207.211H109.933V179.245Z" fill="#EBEBEB"/>
<path d="M43.1946 179.556H32.0586V207.522H43.1946V179.556Z" fill="#EBEBEB"/>
<path d="M137.472 184.962C137.472 185.034 132.961 185.088 127.393 185.088C121.825 185.088 117.312 185.034 117.312 184.962C117.312 184.89 121.825 184.836 127.393 184.836C132.961 184.836 137.472 184.896 137.472 184.962Z" fill="#E0E0E0"/>
<path d="M137.472 188.682C137.472 188.748 132.961 188.802 127.393 188.802C121.825 188.802 117.312 188.748 117.312 188.682C117.312 188.616 121.825 188.556 127.393 188.556C132.961 188.556 137.472 188.61 137.472 188.682Z" fill="#E0E0E0"/>
<path d="M137.472 193.26C137.472 193.326 132.961 193.38 127.393 193.38C121.825 193.38 117.312 193.326 117.312 193.26C117.312 193.194 121.825 193.134 127.393 193.134C132.961 193.134 137.472 193.2 137.472 193.26Z" fill="#E0E0E0"/>
<path d="M137.472 197.832C137.472 197.904 132.961 197.958 127.393 197.958C121.825 197.958 117.312 197.904 117.312 197.832C117.312 197.76 121.825 197.712 127.393 197.712C132.961 197.712 137.472 197.766 137.472 197.832Z" fill="#E0E0E0"/>
<path d="M137.472 202.41C137.472 202.482 132.961 202.536 127.393 202.536C121.825 202.536 117.312 202.482 117.312 202.41C117.312 202.338 121.825 202.29 127.393 202.29C132.961 202.29 137.472 202.344 137.472 202.41Z" fill="#E0E0E0"/>
<path d="M92.8081 190.74H50.4121V195.774H92.8081V190.74Z" fill="#EBEBEB"/>
<path d="M137.262 207.762H116.088V222.87H137.262V207.762Z" fill="#FAFAFA"/>
<path d="M116.329 207.21H26.2207V223.41H116.329V207.21Z" fill="#F5F5F5"/>
<path d="M115.668 208.308H138.426C138.498 208.308 138.569 208.294 138.635 208.266C138.701 208.239 138.761 208.199 138.812 208.148C138.863 208.097 138.903 208.037 138.93 207.971C138.958 207.905 138.972 207.834 138.972 207.762C138.972 207.617 138.915 207.477 138.812 207.374C138.71 207.27 138.571 207.212 138.426 207.21H115.668V208.308Z" fill="#F5F5F5"/>
<path d="M115.668 222.318H138.72C138.787 222.318 138.851 222.345 138.898 222.392C138.945 222.439 138.972 222.504 138.972 222.57V223.17C138.972 223.237 138.945 223.301 138.898 223.349C138.851 223.396 138.787 223.422 138.72 223.422H115.668V222.324V222.318Z" fill="#F5F5F5"/>
<path d="M137.262 210.63C137.262 210.696 132.57 210.756 126.792 210.756C121.014 210.756 116.322 210.696 116.322 210.63C116.322 210.564 121.008 210.504 126.792 210.504C132.576 210.504 137.262 210.564 137.262 210.63Z" fill="#E0E0E0"/>
<path d="M137.262 213.486C137.262 213.558 132.57 213.612 126.792 213.612C121.014 213.612 116.322 213.558 116.322 213.486C116.322 213.414 121.008 213.366 126.792 213.366C132.576 213.366 137.262 213.42 137.262 213.486Z" fill="#E0E0E0"/>
<path d="M137.262 216.348C137.262 216.414 132.57 216.468 126.792 216.468C121.014 216.468 116.322 216.414 116.322 216.348C116.322 216.282 121.008 216.222 126.792 216.222C132.576 216.222 137.262 216.276 137.262 216.348Z" fill="#E0E0E0"/>
<path d="M137.262 219.204C137.262 219.27 132.57 219.324 126.792 219.324C121.014 219.324 116.322 219.27 116.322 219.204C116.322 219.138 121.008 219.078 126.792 219.078C132.576 219.078 137.262 219.132 137.262 219.204Z" fill="#E0E0E0"/>
<path d="M140.471 224.856H118.859V265.806H140.471V224.856Z" fill="#EBEBEB"/>
<path d="M118.86 223.416H17.418V267.816H118.86V223.416Z" fill="#E0E0E0"/>
<path d="M142.164 267.81H116.088V264.93H142.164C142.545 264.932 142.911 265.084 143.18 265.354C143.45 265.623 143.602 265.989 143.604 266.37C143.604 266.559 143.567 266.747 143.494 266.921C143.422 267.096 143.316 267.255 143.182 267.388C143.048 267.522 142.89 267.628 142.715 267.701C142.54 267.773 142.353 267.81 142.164 267.81Z" fill="#E0E0E0"/>
<path d="M116.088 223.416H142.944C143.031 223.416 143.116 223.433 143.196 223.466C143.277 223.499 143.349 223.548 143.411 223.609C143.472 223.671 143.52 223.743 143.554 223.823C143.587 223.904 143.604 223.989 143.604 224.076V225.636C143.604 225.811 143.534 225.979 143.411 226.103C143.287 226.226 143.119 226.296 142.944 226.296H116.088V223.416Z" fill="#E0E0E0"/>
<path d="M140.471 230.34C140.471 230.412 135.635 230.466 129.671 230.466C123.707 230.466 118.871 230.412 118.871 230.34C118.871 230.268 123.707 230.22 129.671 230.22C135.635 230.22 140.471 230.274 140.471 230.34Z" fill="#E0E0E0"/>
<path d="M140.471 235.596C140.471 235.662 135.635 235.716 129.671 235.716C123.707 235.716 118.871 235.662 118.871 235.596C118.871 235.53 123.707 235.47 129.671 235.47C135.635 235.47 140.471 235.524 140.471 235.596Z" fill="#E0E0E0"/>
<path d="M140.471 240.846C140.471 240.912 135.635 240.972 129.671 240.972C123.707 240.972 118.871 240.912 118.871 240.846C118.871 240.78 123.707 240.72 129.671 240.72C135.635 240.72 140.471 240.78 140.471 240.846Z" fill="#E0E0E0"/>
<path d="M140.471 246.096C140.471 246.168 135.635 246.222 129.671 246.222C123.707 246.222 118.871 246.168 118.871 246.096C118.871 246.024 123.707 245.976 129.671 245.976C135.635 245.976 140.471 246.03 140.471 246.096Z" fill="#E0E0E0"/>
<path d="M140.471 251.352C140.471 251.418 135.635 251.472 129.671 251.472C123.707 251.472 118.871 251.418 118.871 251.352C118.871 251.286 123.707 251.226 129.671 251.226C135.635 251.226 140.471 251.28 140.471 251.352Z" fill="#E0E0E0"/>
<path d="M140.471 256.602C140.471 256.668 135.635 256.728 129.671 256.728C123.707 256.728 118.871 256.668 118.871 256.602C118.871 256.536 123.707 256.476 129.671 256.476C135.635 256.476 140.471 256.536 140.471 256.602Z" fill="#E0E0E0"/>
<path d="M140.471 261.852C140.471 261.924 135.635 261.978 129.671 261.978C123.707 261.978 118.871 261.924 118.871 261.852C118.871 261.78 123.707 261.732 129.671 261.732C135.635 261.732 140.471 261.786 140.471 261.852Z" fill="#E0E0E0"/>
<path d="M52.128 248.04V250.512C52.128 253.512 50.64 255.186 47.772 255.186C44.904 255.186 43.416 253.488 43.416 250.512V240.846C43.416 237.846 44.904 236.166 47.772 236.166C50.64 236.166 52.128 237.87 52.128 240.846V242.646H49.368V240.66C49.368 239.328 48.768 238.824 47.856 238.824C46.944 238.824 46.338 239.328 46.338 240.66V250.698C46.338 252.03 46.938 252.498 47.856 252.498C48.774 252.498 49.368 252.024 49.368 250.698V248.04H52.128Z" fill="#EBEBEB"/>
<path d="M53.6699 240.846C53.6699 237.846 55.2359 236.166 58.1039 236.166C60.9719 236.166 62.5379 237.87 62.5379 240.846V250.512C62.5379 253.512 60.9719 255.186 58.1039 255.186C55.2359 255.186 53.6699 253.488 53.6699 250.512V240.846ZM56.5919 250.698C56.5919 252.03 57.1919 252.534 58.1039 252.534C59.0159 252.534 59.6159 252.03 59.6159 250.698V240.66C59.6159 239.328 59.0159 238.824 58.1039 238.824C57.1919 238.824 56.5919 239.328 56.5919 240.66V250.698Z" fill="#EBEBEB"/>
<path d="M64.4219 236.4H67.3439V252.336H72.1439V255H64.4219V236.4Z" fill="#EBEBEB"/>
<path d="M73.2012 240.846C73.2012 237.846 74.7672 236.166 77.6352 236.166C80.5032 236.166 82.0752 237.87 82.0752 240.846V250.512C82.0752 253.512 80.5092 255.186 77.6352 255.186C74.7612 255.186 73.2012 253.488 73.2012 250.512V240.846ZM76.1232 250.698C76.1232 252.03 76.7232 252.534 77.6352 252.534C78.5472 252.534 79.1532 252.03 79.1532 250.698V240.66C79.1532 239.328 78.5532 238.824 77.6352 238.824C76.7172 238.824 76.1232 239.328 76.1232 240.66V250.698Z" fill="#EBEBEB"/>
<path d="M86.7365 236.4V250.746C86.7365 252.072 87.3365 252.546 88.2485 252.546C89.1605 252.546 89.7605 252.066 89.7605 250.746V236.4H92.5265V250.56C92.5265 253.53 91.0385 255.234 88.1705 255.234C85.3024 255.234 83.8145 253.53 83.8145 250.56V236.4H86.7365Z" fill="#EBEBEB"/>
<path d="M100.626 255C100.379 254.265 100.287 253.487 100.356 252.714V249.792C100.356 248.064 99.7557 247.428 98.4477 247.428H97.4337V255H94.5117V236.4H98.9217C101.922 236.4 103.254 237.81 103.254 240.678V242.136C103.254 244.05 102.654 245.298 101.34 245.91C102.804 246.51 103.278 247.926 103.278 249.864V252.738C103.225 253.505 103.336 254.274 103.602 254.994L100.626 255ZM97.4337 239.064V244.77H98.5797C99.6657 244.77 100.332 244.296 100.332 242.808V240.972C100.332 239.646 99.8817 239.064 98.8437 239.064H97.4337Z" fill="#EBEBEB"/>
<path d="M51.4972 213.6H49.3672L49.4812 213.048H54.3712L54.2512 213.6H52.1272L51.0292 219.084H50.3992L51.4972 213.6Z" fill="#E0E0E0"/>
<path d="M58.4773 214.542L55.1653 219.666C54.6013 220.53 54.1813 220.8 53.5273 220.8C53.3294 220.809 53.1318 220.778 52.9462 220.709C52.7606 220.64 52.5909 220.534 52.4473 220.398L52.7713 219.948C52.8753 220.056 53.0005 220.14 53.1388 220.197C53.2772 220.254 53.4258 220.281 53.5753 220.278C53.9653 220.278 54.2653 220.092 54.6193 219.54L54.9373 219.06L53.8093 214.548H54.4093L55.3693 218.4L57.8473 214.536L58.4773 214.542Z" fill="#E0E0E0"/>
<path d="M63.5155 216.42C63.5352 216.769 63.4832 217.118 63.3629 217.445C63.2425 217.773 63.0563 218.073 62.8157 218.326C62.575 218.579 62.2851 218.78 61.9638 218.916C61.6425 219.053 61.2967 219.122 60.9475 219.12C60.5921 219.157 60.2339 219.082 59.9238 218.904C59.6137 218.726 59.3673 218.456 59.2195 218.13L58.7035 220.752H58.1035L59.3395 214.542H59.9395L59.7955 215.268C60.0208 215.016 60.299 214.817 60.6102 214.686C60.9214 214.554 61.2579 214.493 61.5955 214.506C61.8505 214.493 62.1054 214.534 62.3438 214.626C62.5821 214.717 62.7987 214.858 62.9795 215.038C63.1604 215.218 63.3015 215.434 63.3938 215.672C63.4861 215.91 63.5276 216.165 63.5155 216.42ZM62.9155 216.456C62.9295 216.26 62.8997 216.063 62.8284 215.879C62.7571 215.696 62.646 215.531 62.5032 215.395C62.3603 215.26 62.1892 215.158 62.0022 215.096C61.8151 215.035 61.6168 215.016 61.4215 215.04C61.1461 215.04 60.8737 215.097 60.6217 215.208C60.3696 215.319 60.1435 215.481 59.9577 215.684C59.772 215.888 59.6306 216.128 59.5428 216.389C59.4549 216.65 59.4225 216.926 59.4475 217.2C59.4323 217.397 59.4612 217.594 59.5322 217.778C59.6031 217.961 59.7143 218.127 59.8576 218.262C60.0008 218.397 60.1725 218.499 60.3601 218.559C60.5477 218.619 60.7463 218.637 60.9415 218.61C61.2148 218.608 61.4847 218.549 61.7342 218.437C61.9836 218.326 62.2073 218.164 62.391 217.961C62.5747 217.759 62.7146 217.521 62.8018 217.262C62.8889 217.003 62.9215 216.728 62.8975 216.456H62.9155Z" fill="#E0E0E0"/>
<path d="M64.2294 217.2C64.2129 216.848 64.2689 216.496 64.3938 216.167C64.5188 215.837 64.7102 215.537 64.956 215.284C65.2018 215.032 65.4969 214.832 65.8229 214.698C66.149 214.564 66.499 214.499 66.8514 214.506C68.1114 214.506 68.9154 215.25 68.9154 216.42C68.9318 216.772 68.8759 217.124 68.751 217.454C68.626 217.784 68.4348 218.085 68.1891 218.338C67.9433 218.591 67.6483 218.791 67.3223 218.925C66.9962 219.06 66.646 219.126 66.2934 219.12C66.0276 219.148 65.7588 219.119 65.5052 219.035C65.2516 218.951 65.019 218.813 64.8233 218.631C64.6276 218.449 64.4733 218.227 64.3708 217.98C64.2684 217.733 64.2201 217.467 64.2294 217.2ZM68.3034 216.456C68.3173 216.26 68.2876 216.063 68.2163 215.879C68.145 215.696 68.0339 215.53 67.891 215.395C67.7482 215.259 67.5771 215.157 67.39 215.096C67.203 215.035 67.0047 215.015 66.8094 215.04C66.538 215.043 66.2703 215.102 66.0224 215.212C65.7745 215.323 65.5517 215.483 65.3675 215.682C65.1834 215.881 65.0417 216.116 64.9513 216.372C64.8608 216.628 64.8234 216.899 64.8414 217.17C64.8273 217.366 64.857 217.563 64.9283 217.746C64.9996 217.929 65.1108 218.094 65.2538 218.229C65.3969 218.364 65.5681 218.466 65.7551 218.526C65.9422 218.587 66.1404 218.605 66.3354 218.58C66.6067 218.578 66.8748 218.521 67.1231 218.411C67.3713 218.302 67.5946 218.143 67.779 217.944C67.9634 217.745 68.1051 217.51 68.1952 217.254C68.2854 216.998 68.3222 216.727 68.3034 216.456Z" fill="#E0E0E0"/>
<path d="M74.7839 214.542L73.9919 218.526C73.6739 220.134 72.8279 220.794 71.3519 220.794C70.6182 220.833 69.8974 220.59 69.3359 220.116L69.6959 219.648C70.1641 220.063 70.7755 220.278 71.3999 220.248C71.6356 220.271 71.8733 220.246 72.0995 220.177C72.3257 220.107 72.5359 219.993 72.7182 219.842C72.9004 219.691 73.0511 219.506 73.1616 219.296C73.272 219.087 73.3401 218.858 73.3619 218.622L73.4699 218.124C73.2437 218.376 72.9656 218.575 72.6549 218.709C72.3441 218.842 72.0081 218.907 71.6699 218.898C70.4699 218.898 69.6659 218.202 69.6659 217.098C69.6568 216.757 69.7175 216.417 69.8444 216.1C69.9712 215.783 70.1616 215.495 70.4037 215.254C70.6459 215.013 70.9347 214.824 71.2526 214.698C71.5704 214.573 71.9104 214.514 72.2519 214.524C72.6189 214.487 72.9881 214.568 73.3062 214.755C73.6244 214.941 73.875 215.224 74.0219 215.562L74.2139 214.56L74.7839 214.542ZM73.7519 216.342C73.7519 215.514 73.1939 215.022 72.2519 215.022C71.9883 215.016 71.7261 215.063 71.4815 215.162C71.237 215.26 71.0153 215.408 70.8302 215.596C70.6451 215.784 70.5006 216.008 70.4056 216.254C70.3106 216.5 70.2672 216.763 70.2779 217.026C70.2779 217.854 70.8299 218.346 71.7779 218.346C72.04 218.353 72.3007 218.306 72.544 218.209C72.7873 218.111 73.0081 217.965 73.1929 217.779C73.3777 217.593 73.5226 217.371 73.6187 217.127C73.7149 216.883 73.7602 216.622 73.7519 216.36V216.342Z" fill="#E0E0E0"/>
<path d="M78.7855 214.506L78.6715 215.106H78.5035C77.5375 215.106 76.8895 215.658 76.6615 216.786L76.2055 219.09H75.6055L76.5055 214.554H77.1055L76.9195 215.4C77.1239 215.1 77.4042 214.859 77.732 214.702C78.0597 214.545 78.4232 214.477 78.7855 214.506Z" fill="#E0E0E0"/>
<path d="M84.0004 214.542L83.0944 219.078H82.4944L82.6383 218.364C82.4157 218.609 82.1429 218.803 81.8386 218.934C81.5342 219.064 81.2054 219.128 80.8743 219.12C80.614 219.142 80.3519 219.108 80.1059 219.02C79.8598 218.932 79.6355 218.792 79.4479 218.61C79.2603 218.428 79.1138 218.208 79.0183 217.965C78.9229 217.722 78.8806 217.461 78.8944 217.2C78.8756 216.852 78.928 216.505 79.0483 216.178C79.1687 215.851 79.3546 215.553 79.5944 215.301C79.8343 215.048 80.1232 214.848 80.4434 214.711C80.7636 214.575 81.1082 214.505 81.4563 214.506C81.8111 214.469 82.1688 214.543 82.4788 214.72C82.7888 214.896 83.0356 215.166 83.1844 215.49L83.3764 214.542H84.0004ZM82.9804 216.456C82.9943 216.26 82.9645 216.063 82.8932 215.879C82.8219 215.696 82.7108 215.53 82.568 215.395C82.4251 215.26 82.254 215.158 82.067 215.096C81.88 215.035 81.6817 215.016 81.4863 215.04C81.2153 215.043 80.9477 215.102 80.7001 215.213C80.4525 215.323 80.2301 215.483 80.0464 215.682C79.8627 215.882 79.7217 216.116 79.6319 216.372C79.5421 216.628 79.5055 216.9 79.5243 217.17C79.5096 217.365 79.5382 217.56 79.6082 217.743C79.6781 217.925 79.7876 218.089 79.9288 218.224C80.07 218.359 80.2393 218.461 80.4246 218.522C80.6099 218.584 80.8065 218.604 81.0004 218.58C81.2717 218.578 81.5397 218.521 81.788 218.411C82.0363 218.302 82.2595 218.143 82.4439 217.944C82.6284 217.745 82.77 217.51 82.8602 217.254C82.9504 216.998 82.9872 216.727 82.9684 216.456H82.9804Z" fill="#E0E0E0"/>
<path d="M89.8749 216.42C89.8946 216.769 89.8426 217.117 89.7222 217.445C89.6019 217.773 89.4156 218.072 89.175 218.325C88.9344 218.578 88.6445 218.779 88.3232 218.916C88.0019 219.053 87.656 219.122 87.3069 219.12C86.9514 219.157 86.5933 219.081 86.2832 218.904C85.9731 218.726 85.7267 218.455 85.5789 218.13L85.0629 220.752H84.4629L85.6929 214.542H86.2929L86.1489 215.268C86.3697 215.02 86.642 214.824 86.9467 214.692C87.2514 214.56 87.5811 214.497 87.9129 214.506C88.1711 214.488 88.4302 214.525 88.6732 214.614C88.9162 214.703 89.1375 214.842 89.3228 215.023C89.5081 215.204 89.653 215.422 89.7482 215.663C89.8433 215.903 89.8865 216.161 89.8749 216.42ZM89.2749 216.456C89.2888 216.26 89.2591 216.063 89.1878 215.879C89.1165 215.696 89.0054 215.53 88.8625 215.395C88.7197 215.259 88.5486 215.157 88.3615 215.096C88.1745 215.035 87.9762 215.015 87.7809 215.04C87.505 215.039 87.2319 215.095 86.9792 215.206C86.7264 215.316 86.4995 215.479 86.3131 215.682C86.1267 215.885 85.9848 216.125 85.8966 216.387C85.8084 216.648 85.7758 216.925 85.8009 217.2C85.7858 217.396 85.8146 217.592 85.8853 217.776C85.9559 217.959 86.0665 218.124 86.2091 218.259C86.3516 218.394 86.5226 218.496 86.7094 218.557C86.8962 218.617 87.0942 218.635 87.2889 218.61C87.5632 218.609 87.8344 218.552 88.0853 218.441C88.3362 218.33 88.5613 218.168 88.7463 217.965C88.9313 217.763 89.0723 217.524 89.1602 217.264C89.2481 217.004 89.281 216.729 89.2569 216.456H89.2749Z" fill="#E0E0E0"/>
<path d="M95.3628 216C95.3638 216.174 95.3478 216.346 95.3148 216.516L94.7988 219.096H94.1988L94.7208 216.51C94.7454 216.374 94.7595 216.235 94.7628 216.096C94.7628 215.448 94.3728 215.076 93.5628 215.076C93.1103 215.054 92.6667 215.207 92.3237 215.503C91.9808 215.799 91.7649 216.215 91.7208 216.666L91.2348 219.096H90.6348L91.9128 212.694H92.5128L92.0028 215.238C92.2227 215.001 92.4917 214.814 92.7911 214.69C93.0906 214.567 93.4132 214.51 93.7368 214.524C94.7988 214.506 95.3628 215.058 95.3628 216Z" fill="#E0E0E0"/>
<path d="M101.1 214.542L97.8 219.666C97.236 220.53 96.816 220.794 96.162 220.794C95.9642 220.804 95.7666 220.773 95.581 220.704C95.3954 220.635 95.2257 220.529 95.082 220.392L95.412 219.942C95.5145 220.05 95.6385 220.135 95.776 220.192C95.9134 220.249 96.0613 220.276 96.21 220.272C96.6 220.272 96.9 220.086 97.254 219.534L97.578 219.054L96.444 214.542H97.044L97.98 218.406L100.458 214.542H101.1Z" fill="#E0E0E0"/>
<path d="M114.768 28.0742H22.7344L37.7344 38.8742V60.1562C37.7336 60.7403 37.848 61.3188 38.0712 61.8586C38.2944 62.3984 38.6218 62.8888 39.0348 63.3018C39.4478 63.7148 39.9383 64.0423 40.478 64.2654C41.0178 64.4886 41.5963 64.603 42.1804 64.6022H114.78C115.96 64.6022 117.09 64.1338 117.924 63.3C118.758 62.4662 119.226 61.3354 119.226 60.1562V32.5202C119.226 31.9354 119.111 31.3562 118.887 30.816C118.663 30.2759 118.334 29.7852 117.92 29.3722C117.506 28.9592 117.014 28.6319 116.473 28.4092C115.933 28.1865 115.353 28.0727 114.768 28.0742Z" fill="#F5F5F5"/>
<path d="M110.928 43.1161C110.928 43.2061 97.0497 43.2781 79.9317 43.2781C62.8137 43.2781 48.9297 43.2001 48.9297 43.1161C48.9297 43.0321 62.8077 42.9541 79.9317 42.9541C97.0557 42.9541 110.928 43.0261 110.928 43.1161Z" fill="#E0E0E0"/>
<path d="M110.928 51.2885C110.928 51.3785 97.0497 51.4505 79.9317 51.4505C62.8137 51.4505 48.9297 51.3785 48.9297 51.2885C48.9297 51.1985 62.8077 51.1265 79.9317 51.1265C97.0557 51.1265 110.928 51.1985 110.928 51.2885Z" fill="#E0E0E0"/>
<path d="M433.963 267.809C433.963 267.899 339.859 267.965 223.813 267.965C107.767 267.965 13.6387 267.899 13.6387 267.809C13.6387 267.719 107.719 267.653 223.813 267.653C339.907 267.653 433.963 267.725 433.963 267.809Z" fill="#263238"/>
<path d="M394.471 237.186C394.471 237.186 378.565 218.886 372.565 200.586C366.565 182.286 369.415 184.386 369.415 184.386C369.415 184.386 377.515 202.17 383.665 210.756C389.815 219.342 400.801 231.936 400.801 231.936L394.471 237.186Z" fill="#747474"/>
<path d="M397.64 187.2C397.535 187.007 397.366 186.858 397.161 186.779C396.957 186.7 396.731 186.697 396.524 186.769C396.317 186.841 396.143 186.984 396.032 187.173C395.921 187.362 395.88 187.584 395.918 187.8C396.884 194.232 398.984 209.322 398.918 219.108C398.81 231.822 398.918 236.736 398.918 236.736H405.518C405.518 236.736 404.318 210.456 402.848 202.44C401.804 196.836 399.602 190.596 397.64 187.2Z" fill="#747474"/>
<path d="M401.252 234.6C404.025 228.314 405.861 221.655 406.7 214.836C407.246 210.156 406.268 203.832 404.822 195.39C404.266 192.303 403.987 189.173 403.988 186.036C403.99 185.686 404.109 185.347 404.325 185.072C404.541 184.796 404.842 184.601 405.182 184.516C405.521 184.431 405.879 184.461 406.2 184.601C406.52 184.742 406.785 184.985 406.952 185.292C407.75 186.72 410.066 191.592 410.654 194.64C412.256 202.974 414.068 207.144 412.682 215.04C411.296 222.936 406.166 235.128 406.166 235.128L401.252 234.6Z" fill="#747474"/>
<path d="M407.209 235.146C407.209 235.146 424.675 197.616 425.887 192.048C427.099 186.48 431.209 173.652 431.695 174.378C432.181 175.104 432.895 181.884 429.757 189.63C426.619 197.376 413.173 236.286 413.173 236.286H407.209" fill="#747474"/>
<path d="M399.337 233.466C399.165 233.366 399.001 233.254 398.845 233.13C398.539 232.896 398.065 232.566 397.495 232.098C395.861 230.798 394.294 229.414 392.803 227.952C387.884 223.112 383.623 217.645 380.131 211.692C376.648 205.743 373.753 199.47 371.485 192.96C370.609 190.47 369.967 188.43 369.553 187.008C369.337 186.306 369.187 185.748 369.085 185.376C369.022 185.181 368.977 184.98 368.953 184.776C369.036 184.956 369.104 185.143 369.157 185.334L369.691 186.948C370.147 188.352 370.825 190.38 371.731 192.852C374.07 199.315 376.99 205.552 380.455 211.488C383.937 217.419 388.152 222.888 393.001 227.766C394.867 229.626 396.469 231.036 397.597 231.966C398.155 232.452 398.611 232.8 398.905 233.052C399.06 233.178 399.205 233.316 399.337 233.466Z" fill="white"/>
<path d="M401.246 215.46C401.163 215.099 401.111 214.731 401.09 214.362C401.006 213.582 400.898 212.562 400.772 211.362C400.496 208.818 400.064 205.32 399.446 201.474C398.828 197.628 398.138 194.166 397.604 191.67C397.346 190.47 397.13 189.474 396.968 188.712C396.871 188.352 396.805 187.985 396.77 187.614C396.912 187.957 397.025 188.313 397.106 188.676C397.304 189.366 397.561 190.368 397.861 191.61C398.461 194.094 399.193 197.556 399.811 201.414C400.429 205.272 400.819 208.782 401.011 211.332C401.119 212.61 401.186 213.642 401.216 214.332C401.265 214.706 401.275 215.084 401.246 215.46Z" fill="white"/>
<path d="M405.338 185.01C405.421 185.164 405.489 185.324 405.542 185.49C405.68 185.844 405.854 186.306 406.07 186.882C406.286 187.458 406.562 188.232 406.82 189.12C407.078 190.008 407.42 190.992 407.666 192.12L408.098 193.884C408.248 194.484 408.35 195.15 408.482 195.816C408.77 197.148 408.944 198.594 409.154 200.112C409.951 206.721 409.712 213.413 408.446 219.948C408.128 221.448 407.846 222.876 407.468 224.184C407.288 224.838 407.138 225.48 406.946 226.08C406.754 226.68 406.568 227.28 406.388 227.814C406.052 228.924 405.65 229.89 405.326 230.748C405.002 231.606 404.69 232.338 404.42 232.926L403.82 234.276C403.756 234.438 403.675 234.593 403.58 234.738C403.622 234.569 403.68 234.404 403.754 234.246L404.306 232.866C404.558 232.266 404.858 231.54 405.152 230.676C405.446 229.812 405.842 228.84 406.16 227.73C406.328 227.178 406.508 226.602 406.694 226.002C406.88 225.402 407.018 224.76 407.192 224.106C407.558 222.798 407.792 221.376 408.134 219.906C409.352 213.4 409.591 206.749 408.842 200.172C408.638 198.66 408.476 197.22 408.206 195.894C408.074 195.228 407.978 194.58 407.84 193.968C407.702 193.356 407.564 192.768 407.432 192.204C407.198 191.076 406.88 190.08 406.64 189.204C406.4 188.328 406.166 187.572 405.956 186.96C405.746 186.348 405.614 185.904 405.5 185.544C405.428 185.372 405.373 185.193 405.338 185.01Z" fill="white"/>
<path d="M431.491 175.134C431.501 175.19 431.501 175.247 431.491 175.302C431.491 175.434 431.443 175.596 431.413 175.788C431.335 176.214 431.239 176.85 431.071 177.66C430.735 179.274 430.171 181.596 429.271 184.416C428.371 187.236 427.213 190.536 425.797 194.172C424.381 197.808 422.749 201.762 421.201 205.974C419.653 210.186 418.411 214.29 417.271 218.01C416.131 221.73 415.075 225.09 414.037 227.85C413.237 230.039 412.318 232.183 411.283 234.27C410.923 235.014 410.599 235.566 410.395 235.95L410.149 236.376C410.124 236.429 410.092 236.477 410.053 236.52C410.066 236.464 410.086 236.409 410.113 236.358L410.329 235.914C410.515 235.518 410.815 234.954 411.151 234.204C411.853 232.716 412.801 230.532 413.791 227.76C414.781 224.988 415.831 221.646 416.947 217.914C418.063 214.182 419.269 210.066 420.847 205.848C422.425 201.63 424.051 197.67 425.479 194.046C426.907 190.422 428.125 187.134 429.019 184.332C429.913 181.53 430.525 179.226 430.903 177.624C431.095 176.826 431.215 176.196 431.317 175.776C431.365 175.584 431.401 175.428 431.431 175.296C431.442 175.239 431.462 175.185 431.491 175.134Z" fill="white"/>
<path d="M377.647 166.842C377.406 166.611 377.095 166.468 376.763 166.433C376.431 166.399 376.098 166.476 375.814 166.651C375.531 166.827 375.313 167.092 375.197 167.404C375.08 167.717 375.07 168.059 375.169 168.378C375.767 170.307 376.501 172.192 377.365 174.018C379.765 179.124 386.821 197.418 390.121 207.48C393.421 217.542 398.071 236.28 398.071 236.28L405.121 235.14C405.121 235.14 398.671 204.33 392.401 193.2C387.307 184.302 382.243 171.414 377.647 166.842Z" fill="#747474"/>
<path d="M392.047 213.768C392.2 214.035 392.323 214.319 392.413 214.614C392.623 215.166 392.905 215.97 393.223 216.978C393.871 218.988 394.669 221.778 395.467 224.916C396.265 228.054 396.931 230.88 397.393 232.938C397.609 233.91 397.783 234.738 397.927 235.38C398.004 235.677 398.053 235.98 398.071 236.286C397.944 236.007 397.848 235.715 397.783 235.416C397.615 234.774 397.399 233.964 397.141 233.016L395.107 225C394.309 221.88 393.553 219.066 392.971 217.044L392.275 214.644C392.17 214.36 392.094 214.067 392.047 213.768Z" fill="white"/>
<path d="M401.61 235.716C401.591 235.655 401.579 235.593 401.574 235.53C401.574 235.38 401.526 235.2 401.49 234.972C401.418 234.486 401.352 233.772 401.202 232.836C400.944 230.988 400.482 228.318 399.726 225.066C398.822 221.257 397.721 217.498 396.426 213.804C394.98 209.604 393.168 205.116 391.11 200.442C386.964 191.112 382.824 182.838 380.1 176.724C378.726 173.67 377.658 171.18 376.956 169.44C376.596 168.576 376.356 167.898 376.164 167.436C376.086 167.22 376.02 167.052 375.966 166.908C375.94 166.85 375.922 166.79 375.912 166.728C375.912 166.728 375.948 166.782 376.002 166.896C376.056 167.01 376.14 167.202 376.236 167.406L377.088 169.386C377.832 171.102 378.936 173.586 380.34 176.586C383.118 182.676 387.3 190.926 391.452 200.268C393.51 204.948 395.316 209.472 396.75 213.666C398.035 217.381 399.115 221.165 399.984 225C400.568 227.575 401.023 230.178 401.346 232.8C401.472 233.73 401.514 234.456 401.568 234.948C401.568 235.176 401.598 235.356 401.61 235.506C401.62 235.575 401.62 235.646 401.61 235.716Z" fill="white"/>
<path d="M405.122 235.146C405.012 234.752 404.932 234.351 404.882 233.946C404.744 233.118 404.558 232.026 404.336 230.706C403.85 227.976 403.136 224.214 402.044 220.122C400.952 216.03 399.794 212.376 398.882 209.76L397.802 206.676C397.645 206.303 397.521 205.918 397.43 205.524C397.627 205.876 397.798 206.243 397.94 206.622C398.24 207.336 398.666 208.38 399.14 209.682C400.415 213.073 401.508 216.53 402.416 220.038C403.323 223.545 404.054 227.095 404.606 230.676C404.81 232.05 404.96 233.166 405.038 233.94C405.096 234.339 405.124 234.742 405.122 235.146Z" fill="white"/>
<path d="M419.586 234.131H392.07V267.653H419.586V234.131Z" fill="#C7C7C7"/>
<g opacity="0.3">
<path d="M419.586 234.131H392.07V267.653H419.586V234.131Z" fill="black"/>
</g>
<path d="M410.808 234.131H386.4V267.653H410.808V234.131Z" fill="#C7C7C7"/>
<path d="M53.119 222.48C48.427 219.48 41.9351 219.42 37.3751 222.606C33.0431 225.636 30.8411 231.144 31.0331 236.406C31.2251 241.668 33.787 248.136 38.569 250.914L52.6091 250.854C54.8653 249.212 56.729 247.089 58.0654 244.64C59.4018 242.19 60.1777 239.474 60.337 236.688C60.547 231.144 57.805 225.48 53.119 222.48Z" fill="#747474"/>
<path d="M46.201 251.441C46.135 251.045 46.1069 250.643 46.117 250.241C46.117 249.377 46.057 248.273 46.021 246.947C45.949 244.169 45.841 240.347 45.655 236.093C45.469 231.839 45.241 228.017 45.055 225.239C44.977 223.919 44.911 222.839 44.857 221.951C44.8185 221.552 44.8185 221.151 44.857 220.751C44.9575 221.145 45.0217 221.546 45.049 221.951C45.145 222.725 45.259 223.847 45.391 225.233C45.643 228.005 45.919 231.833 46.111 236.087C46.303 240.341 46.357 244.181 46.345 246.965C46.345 248.357 46.345 249.479 46.297 250.259C46.3005 250.656 46.2684 251.051 46.201 251.441Z" fill="#263238"/>
<path d="M32.4502 235.229C32.4502 235.349 31.6762 235.391 30.7462 235.313C29.8162 235.235 29.0722 235.073 29.0782 234.953C29.0842 234.833 29.8522 234.791 30.7822 234.863C31.7122 234.935 32.4622 235.103 32.4502 235.229Z" fill="#263238"/>
<path d="M32.714 230.49C32.66 230.604 32.006 230.424 31.244 230.082C30.482 229.74 29.906 229.38 29.954 229.266C30.002 229.152 30.662 229.338 31.424 229.674C32.186 230.01 32.762 230.4 32.714 230.49Z" fill="#263238"/>
<path d="M35.149 226.974C35.083 227.076 34.345 226.728 33.577 226.092C32.809 225.456 32.323 224.79 32.413 224.712C32.503 224.634 33.115 225.126 33.859 225.744C34.603 226.362 35.215 226.866 35.149 226.974Z" fill="#263238"/>
<path d="M37.6036 223.656C37.4896 223.704 37.1356 223.152 36.8116 222.42C36.4876 221.688 36.3136 221.052 36.4276 220.998C36.5416 220.944 36.8956 221.502 37.2196 222.24C37.5436 222.978 37.7116 223.608 37.6036 223.656Z" fill="#263238"/>
<path d="M41.4501 221.304C41.3361 221.352 40.9581 220.764 40.7001 219.948C40.4421 219.132 40.4241 218.424 40.5441 218.406C40.6641 218.388 40.8861 219.006 41.1441 219.81C41.4021 220.614 41.5641 221.25 41.4501 221.304Z" fill="#263238"/>
<path d="M47.8625 218.646C47.9825 218.688 47.9105 219.192 47.7065 219.774C47.5025 220.356 47.2385 220.788 47.1065 220.746C46.9745 220.704 47.0585 220.206 47.2625 219.624C47.4665 219.042 47.7485 218.604 47.8625 218.646Z" fill="#263238"/>
<path d="M52.6272 220.692C52.7112 220.782 52.4052 221.202 51.9432 221.628C51.4812 222.054 51.0432 222.324 50.9592 222.228C50.8752 222.132 51.1812 221.718 51.6372 221.292C52.0932 220.866 52.5432 220.602 52.6272 220.692Z" fill="#263238"/>
<path d="M56.8154 223.398C56.8874 223.5 56.5154 223.872 55.9874 224.232C55.4594 224.592 54.9734 224.796 54.9014 224.694C54.8294 224.592 55.2074 224.22 55.7354 223.86C56.2634 223.5 56.7494 223.296 56.8154 223.398Z" fill="#263238"/>
<path d="M59.7909 227.43C59.8389 227.544 59.2569 227.904 58.4829 228.234C57.7089 228.564 57.0429 228.738 56.9949 228.624C56.9469 228.51 57.5349 228.15 58.3089 227.826C59.0829 227.502 59.7429 227.316 59.7909 227.43Z" fill="#263238"/>
<path d="M60.9685 231.834C60.9685 231.954 60.3685 232.134 59.6305 232.224C58.8925 232.314 58.2625 232.296 58.2445 232.17C58.2265 232.044 58.8445 231.876 59.5765 231.78C60.3085 231.684 60.9505 231.708 60.9685 231.834Z" fill="#263238"/>
<path d="M61.5731 237.252C61.5251 237.366 60.8891 237.198 60.1571 236.88C59.4251 236.562 58.8611 236.208 58.9091 236.094C58.9571 235.98 59.5991 236.148 60.3311 236.466C61.0631 236.784 61.6271 237.138 61.5731 237.252Z" fill="#263238"/>
<path d="M61.039 241.902C60.997 242.016 60.193 241.824 59.353 241.272C58.513 240.72 58.015 240.072 58.099 239.982C58.183 239.892 58.801 240.378 59.599 240.894C60.397 241.41 61.081 241.8 61.039 241.902Z" fill="#263238"/>
<path d="M58.6162 246.132C58.5442 246.228 57.9022 245.856 57.2902 245.19C56.6782 244.524 56.3482 243.864 56.4442 243.792C56.5402 243.72 57.0442 244.254 57.6442 244.884C58.2442 245.514 58.7002 246.036 58.6162 246.132Z" fill="#263238"/>
<path d="M35.6346 246.63C35.6886 246.738 35.0346 247.23 34.1286 247.662C33.2226 248.094 32.4786 248.4 32.4006 248.304C32.3226 248.208 33.0006 247.704 33.9006 247.266C34.8006 246.828 35.5746 246.522 35.6346 246.63Z" fill="#263238"/>
<path d="M33.5351 242.802C33.5831 242.916 33.0431 243.27 32.3351 243.594C31.6271 243.918 30.9971 244.092 30.9431 243.978C30.8891 243.864 31.4351 243.51 32.1431 243.186C32.8511 242.862 33.4811 242.688 33.5351 242.802Z" fill="#263238"/>
<path d="M31.9932 239.4C31.9932 239.52 31.3452 239.718 30.5052 239.838C29.6652 239.958 28.9812 239.952 28.9632 239.838C28.9452 239.724 29.6112 239.52 30.4452 239.406C31.2792 239.292 31.9752 239.286 31.9932 239.4Z" fill="#263238"/>
<path d="M37.0515 237.54C37.0875 237.66 36.4515 237.96 35.5815 238.056C34.7115 238.152 34.0155 238.002 34.0275 237.882C34.0395 237.762 34.7115 237.708 35.5275 237.612C36.3435 237.516 37.0155 237.42 37.0515 237.54Z" fill="#263238"/>
<path d="M41.2565 233.358C41.2925 233.472 40.7765 233.736 40.0565 233.802C39.3365 233.868 38.8085 233.718 38.8205 233.598C38.8325 233.478 39.3725 233.424 40.0205 233.358C40.6685 233.292 41.2205 233.238 41.2565 233.358Z" fill="#263238"/>
<path d="M42.0614 230.004C42.0194 230.124 41.4614 230.034 40.8134 229.812C40.1654 229.59 39.6734 229.314 39.7154 229.212C39.7574 229.11 40.3154 229.182 40.9634 229.41C41.6114 229.638 42.1034 229.89 42.0614 230.004Z" fill="#263238"/>
<path d="M43.6039 226.614C43.5199 226.704 43.1359 226.452 42.8599 225.972C42.5839 225.492 42.5599 225.042 42.6799 225.012C42.7999 224.982 43.0039 225.33 43.2799 225.75C43.5559 226.17 43.6939 226.53 43.6039 226.614Z" fill="#263238"/>
<path d="M41.7438 240.492C41.7738 240.612 41.2938 240.834 40.6638 240.99C40.3678 241.068 40.0639 241.112 39.7578 241.122L39.6738 240.858C39.8358 240.858 39.9378 240.858 39.9618 240.888C39.9858 240.918 39.9138 241.014 39.7818 241.116L39.6918 240.852C39.97 240.72 40.2617 240.619 40.5618 240.552C41.1858 240.402 41.7138 240.372 41.7438 240.492Z" fill="#263238"/>
<path d="M42.6015 246.438C42.6435 246.552 42.0015 246.9 41.2215 247.218C40.4415 247.536 39.7275 247.698 39.6855 247.584C39.6435 247.47 40.2855 247.116 41.0595 246.804C41.8335 246.492 42.5655 246.324 42.6015 246.438Z" fill="#263238"/>
<path d="M37.8618 243.798C37.9038 243.912 37.4898 244.158 36.9438 244.344C36.3978 244.53 35.9238 244.59 35.8818 244.47C35.8398 244.35 36.2538 244.11 36.7998 243.924C37.3458 243.738 37.8018 243.678 37.8618 243.798Z" fill="#263238"/>
<path d="M38.2207 231.701C38.2207 231.821 37.4767 231.749 36.6547 231.455C35.8327 231.161 35.2267 230.765 35.2807 230.657C35.3347 230.549 36.0007 230.747 36.8047 231.029C37.6087 231.311 38.2507 231.599 38.2207 231.701Z" fill="#263238"/>
<path d="M49.7164 230.4C49.7884 230.502 49.3864 230.886 48.8224 231.258C48.2584 231.63 47.7424 231.858 47.6704 231.744C47.5984 231.63 48.0064 231.258 48.5704 230.886C49.1344 230.514 49.6504 230.28 49.7164 230.4Z" fill="#263238"/>
<path d="M50.3469 236.351C50.3469 236.471 49.9449 236.663 49.3989 236.777C48.8529 236.891 48.3908 236.885 48.3608 236.777C48.3308 236.669 48.7628 236.465 49.3088 236.351C49.8548 236.237 50.3169 236.231 50.3469 236.351Z" fill="#263238"/>
<path d="M51.0737 243.066C51.0197 243.174 50.4077 243.006 49.7117 242.682C49.0157 242.358 48.5117 242.004 48.5117 241.89C48.5117 241.776 49.1777 241.95 49.8737 242.274C50.5697 242.598 51.1217 242.952 51.0737 243.066Z" fill="#263238"/>
<path d="M49.5315 249.6C49.4355 249.684 49.0395 249.36 48.6495 248.88C48.2595 248.4 48.0495 247.95 48.1155 247.872C48.1815 247.794 48.6015 248.118 48.9975 248.598C49.3935 249.078 49.6275 249.516 49.5315 249.6Z" fill="#263238"/>
<path d="M49.2019 225.99C49.2799 226.086 49.0159 226.416 48.5659 226.638C48.1159 226.86 47.7019 226.878 47.6719 226.758C47.6419 226.638 47.9659 226.446 48.3679 226.242C48.7699 226.038 49.1419 225.894 49.2019 225.99Z" fill="#263238"/>
<path d="M54.8532 232.008C54.8952 232.122 54.3732 232.41 53.6532 232.512C52.9332 232.614 52.3632 232.476 52.3692 232.356C52.3752 232.236 52.9272 232.158 53.5692 232.068C54.2112 231.978 54.8112 231.894 54.8532 232.008Z" fill="#263238"/>
<path d="M53.7309 226.608C53.7849 226.716 53.2689 227.088 52.5309 227.322C51.7929 227.556 51.1629 227.556 51.1449 227.436C51.1269 227.316 51.6969 227.118 52.3929 226.89C53.0889 226.662 53.6709 226.494 53.7309 226.608Z" fill="#263238"/>
<path d="M56.0821 240.378C56.0821 240.498 55.1941 240.576 54.1261 240.378C53.0581 240.18 52.2601 239.778 52.3261 239.688C52.3921 239.598 53.2081 239.754 54.2341 239.934C55.2601 240.114 56.0821 240.252 56.0821 240.378Z" fill="#263238"/>
<path d="M54.002 248.226C53.93 248.322 53.276 247.938 52.628 247.284C51.98 246.63 51.602 246 51.68 245.904C51.758 245.808 52.2801 246.336 52.9341 246.972C53.5881 247.608 54.068 248.13 54.002 248.226Z" fill="#263238"/>
<path d="M44.7861 220.2C43.3534 221.07 42.0334 222.114 40.8561 223.308C38.1255 226.301 36.4117 230.081 35.9601 234.108C35.7567 236.321 35.8556 238.551 36.2541 240.738C36.5755 242.532 36.9901 244.308 37.4961 246.06C37.9281 247.554 38.3241 248.754 38.5881 249.588C38.7478 250.013 38.8742 250.451 38.9661 250.896C38.7464 250.498 38.5655 250.08 38.4261 249.648C38.1081 248.832 37.6641 247.644 37.1961 246.15C36.6376 244.399 36.1887 242.616 35.8521 240.81C35.4169 238.587 35.3038 236.314 35.5161 234.06C35.9657 229.933 37.7623 226.07 40.6281 223.068C41.4985 222.184 42.4833 221.422 43.5561 220.8C43.8452 220.623 44.1459 220.467 44.4561 220.332C44.5597 220.273 44.6707 220.229 44.7861 220.2Z" fill="#263238"/>
<path d="M50.8996 251.22C50.7976 251.166 51.9016 249.468 52.9096 246.42C54.2589 242.442 54.6696 238.205 54.1096 234.042C53.8071 231.746 53.164 229.507 52.2016 227.4C51.3966 225.706 50.2952 224.17 48.9496 222.864C47.9979 222.029 46.9207 221.349 45.7576 220.848C44.9296 220.506 44.4316 220.422 44.4376 220.386C44.5588 220.367 44.6823 220.367 44.8036 220.386C45.1484 220.448 45.4876 220.538 45.8176 220.656C47.0353 221.103 48.1647 221.761 49.1536 222.6C50.5723 223.901 51.7326 225.459 52.5736 227.19C53.5741 229.315 54.2419 231.582 54.5536 233.91C55.1272 238.14 54.6639 242.445 53.2036 246.456C52.9516 247.23 52.6036 247.89 52.3816 248.49C52.1596 249.09 51.8536 249.57 51.6376 249.966C51.4236 250.402 51.1769 250.821 50.8996 251.22Z" fill="#263238"/>
<path d="M33.5352 250.158H58.2432L58.3932 255.102H33.5352V250.158Z" fill="#C7C7C7"/>
<path d="M35.6348 252.629L37.0508 267.725H55.1168L56.5688 252.797L35.6348 252.629Z" fill="#C7C7C7"/>
<path d="M58.393 255.162C58.393 255.288 52.831 255.384 45.967 255.384C39.103 255.384 33.541 255.288 33.541 255.162C33.541 255.036 39.103 254.94 45.967 254.94C52.831 254.94 58.393 255.036 58.393 255.162Z" fill="white"/>
<path d="M55.8844 259.757C55.7557 260.097 55.5778 260.417 55.3564 260.705C54.799 261.526 54.1554 262.284 53.4364 262.967L53.3224 263.075L53.2144 262.955C51.73 261.399 50.1073 259.982 48.3664 258.719H48.6424L46.4944 260.603L43.9564 262.799L43.8184 262.925L43.6744 262.805L39.5524 259.337L39.7924 259.307C38.9404 260.351 38.2204 261.221 37.6564 261.917C37.4103 262.251 37.1287 262.557 36.8164 262.829C37.0141 262.465 37.2451 262.119 37.5064 261.797L39.5224 259.103L39.6304 258.965L39.7684 259.073L43.9684 262.469H43.6924L46.2184 260.249L48.3724 258.371L48.5044 258.257L48.6484 258.359C50.3937 259.649 52.0021 261.115 53.4484 262.733H53.2204C54.189 261.817 55.08 260.821 55.8844 259.757Z" fill="white"/>
<path d="M352.769 79.062H91.2166C86.3885 79.062 82.4746 82.9759 82.4746 87.804V254.844C82.4746 259.672 86.3885 263.586 91.2166 263.586H352.769C357.597 263.586 361.511 259.672 361.511 254.844V87.804C361.511 82.9759 357.597 79.062 352.769 79.062Z" fill="#DBDBDB"/>
<path d="M73.3424 251.664H375.652V257.13C375.652 259.963 374.527 262.679 372.524 264.682C370.521 266.685 367.805 267.81 364.972 267.81H83.9984C81.1658 267.81 78.4493 266.685 76.4465 264.682C74.4436 262.679 73.3184 259.963 73.3184 257.13V251.664H73.3424Z" fill="#DBDBDB"/>
<path d="M194.488 249.936L198.238 255.906H251.026L254.506 249.936H194.488Z" fill="#8B8B8B"/>
<path d="M359.111 249.936C359.111 250.038 297.179 250.116 220.805 250.116C144.431 250.116 82.4746 250.038 82.4746 249.936C82.4746 249.834 144.395 249.756 220.805 249.756C297.215 249.756 359.111 249.834 359.111 249.936Z" fill="#8B8B8B"/>
<path d="M350.465 89.6699H92.4288C91.3452 89.6699 90.4668 90.5483 90.4668 91.6319V243.096C90.4668 244.18 91.3452 245.058 92.4288 245.058H350.465C351.548 245.058 352.427 244.18 352.427 243.096V91.6319C352.427 90.5483 351.548 89.6699 350.465 89.6699Z" fill="#EBEBEB"/>
<path d="M352.144 245.286H90.1836L90.4656 101.286H352.144V245.286Z" fill="white"/>
<path d="M111.952 95.6761C111.955 96.091 111.835 96.4976 111.607 96.8443C111.38 97.191 111.054 97.4622 110.671 97.6235C110.289 97.7847 109.868 97.8288 109.46 97.75C109.053 97.6713 108.678 97.4733 108.383 97.1812C108.089 96.889 107.888 96.516 107.805 96.1093C107.723 95.7026 107.763 95.2807 107.921 94.897C108.079 94.5133 108.348 94.1852 108.692 93.9543C109.037 93.7234 109.443 93.6001 109.858 93.6001C110.41 93.5985 110.941 93.8161 111.334 94.2053C111.726 94.5945 111.948 95.1234 111.952 95.6761Z" fill="#263238"/>
<path d="M99.2739 95.6757C99.2774 96.0914 99.1572 96.4987 98.9285 96.8458C98.6998 97.1929 98.3729 97.464 97.9895 97.6248C97.6062 97.7855 97.1837 97.8285 96.7758 97.7482C96.3679 97.668 95.9932 97.4682 95.6993 97.1743C95.4053 96.8804 95.2055 96.5056 95.1253 96.0977C95.0451 95.6899 95.0881 95.2674 95.2488 94.884C95.4095 94.5006 95.6807 94.1738 96.0278 93.9451C96.3749 93.7164 96.7822 93.5961 97.1979 93.5997C97.7475 93.6028 98.2737 93.8226 98.6623 94.2112C99.051 94.5999 99.2707 95.1261 99.2739 95.6757Z" fill="#263238"/>
<path d="M105.358 95.676C105.358 96.0902 105.235 96.495 105.005 96.8394C104.775 97.1838 104.448 97.4522 104.065 97.6106C103.683 97.7691 103.262 97.8106 102.855 97.7298C102.449 97.649 102.076 97.4496 101.783 97.1567C101.49 96.8639 101.291 96.4908 101.21 96.0846C101.129 95.6784 101.171 95.2573 101.329 94.8747C101.488 94.4921 101.756 94.165 102.101 93.9349C102.445 93.7048 102.85 93.582 103.264 93.582C103.539 93.5812 103.812 93.6349 104.066 93.7398C104.321 93.8448 104.552 93.999 104.746 94.1936C104.941 94.3882 105.095 94.6194 105.2 94.8738C105.305 95.1282 105.359 95.4008 105.358 95.676Z" fill="#263238"/>
<path d="M352.426 231.378H90.1836V245.286H352.426V231.378Z" fill="#EBEBEB"/>
<path d="M100.097 239.94V240.384H98.0085V240.036L99.1305 238.968C99.4065 238.704 99.4545 238.536 99.4545 238.368C99.4545 238.11 99.2745 237.96 98.9265 237.96C98.8011 237.953 98.6758 237.976 98.5611 238.027C98.4463 238.078 98.3453 238.156 98.2665 238.254L97.8945 237.972C98.0261 237.816 98.1921 237.692 98.3795 237.611C98.5669 237.53 98.7706 237.493 98.9745 237.504C99.5745 237.504 99.9885 237.81 99.9885 238.314C99.9846 238.489 99.9397 238.662 99.8574 238.817C99.7751 238.972 99.6577 239.106 99.5145 239.208L98.7585 239.928L100.097 239.94Z" fill="#A5A5A5"/>
<path d="M100.378 238.536C100.378 238.469 100.398 238.404 100.435 238.349C100.472 238.293 100.525 238.25 100.587 238.225C100.649 238.2 100.716 238.194 100.782 238.207C100.847 238.221 100.907 238.253 100.954 238.301C101 238.348 101.032 238.409 101.044 238.474C101.057 238.54 101.049 238.608 101.023 238.669C100.996 238.73 100.952 238.782 100.896 238.818C100.84 238.855 100.775 238.873 100.708 238.872C100.664 238.873 100.62 238.865 100.579 238.848C100.538 238.832 100.502 238.807 100.471 238.775C100.44 238.744 100.416 238.706 100.4 238.665C100.384 238.624 100.376 238.58 100.378 238.536ZM100.378 240.078C100.372 240.031 100.375 239.982 100.389 239.936C100.403 239.891 100.427 239.848 100.458 239.812C100.49 239.776 100.528 239.747 100.572 239.727C100.616 239.708 100.663 239.697 100.711 239.697C100.759 239.697 100.806 239.708 100.85 239.727C100.894 239.747 100.932 239.776 100.964 239.812C100.995 239.848 101.019 239.891 101.033 239.936C101.047 239.982 101.05 240.031 101.044 240.078C101.05 240.126 101.047 240.174 101.033 240.22C101.019 240.266 100.995 240.308 100.964 240.344C100.932 240.38 100.894 240.409 100.85 240.429C100.806 240.449 100.759 240.459 100.711 240.459C100.663 240.459 100.616 240.449 100.572 240.429C100.528 240.409 100.49 240.38 100.458 240.344C100.427 240.308 100.403 240.266 100.389 240.22C100.375 240.174 100.372 240.126 100.378 240.078Z" fill="#A5A5A5"/>
<path d="M102.358 237.552V240.384H101.836V237.984H101.236V237.54L102.358 237.552Z" fill="#A5A5A5"/>
<path d="M105.449 239.742H104.945V240.384H104.435V239.742H102.881V239.4L104.279 237.6H104.843L103.523 239.346H104.453V238.776H104.945V239.346H105.449V239.742Z" fill="#A5A5A5"/>
<path d="M325.018 238.608H110.074V239.586H325.018V238.608Z" fill="white"/>
<path d="M177.082 237.558H109.912V240.174H177.082V237.558Z" fill="#C7C7C7"/>
<path d="M179.255 239.1C179.255 239.747 179.063 240.379 178.704 240.917C178.344 241.455 177.834 241.874 177.236 242.121C176.639 242.369 175.981 242.433 175.347 242.307C174.713 242.181 174.13 241.87 173.673 241.412C173.215 240.955 172.904 240.372 172.778 239.738C172.652 239.104 172.716 238.446 172.964 237.849C173.211 237.251 173.63 236.741 174.168 236.381C174.706 236.022 175.338 235.83 175.985 235.83C176.852 235.83 177.684 236.175 178.297 236.788C178.91 237.401 179.255 238.233 179.255 239.1Z" fill="#C7C7C7"/>
<path d="M330.429 239.07C330.428 239.201 330.4 239.33 330.347 239.449C330.293 239.568 330.215 239.675 330.118 239.762C330.021 239.85 329.907 239.916 329.783 239.957C329.659 239.998 329.528 240.013 329.397 240C328.623 240 328.197 239.502 328.197 238.59C328.174 238.397 328.193 238.2 328.252 238.014C328.312 237.829 328.412 237.658 328.545 237.515C328.677 237.371 328.839 237.259 329.02 237.184C329.2 237.11 329.394 237.076 329.589 237.084C329.85 237.078 330.107 237.142 330.333 237.27L330.135 237.666C329.975 237.568 329.789 237.52 329.601 237.528C329.067 237.528 328.731 237.858 328.731 238.5C328.828 238.399 328.946 238.32 329.077 238.269C329.207 238.219 329.348 238.197 329.487 238.206C329.607 238.198 329.726 238.214 329.839 238.254C329.952 238.293 330.056 238.355 330.144 238.436C330.232 238.517 330.303 238.615 330.352 238.724C330.401 238.833 330.427 238.951 330.429 239.07ZM329.919 239.07C329.919 238.776 329.697 238.59 329.355 238.59C329.283 238.578 329.21 238.582 329.139 238.6C329.069 238.619 329.003 238.652 328.946 238.698C328.889 238.744 328.843 238.802 328.81 238.867C328.777 238.932 328.759 239.003 328.755 239.076C328.755 239.34 328.965 239.55 329.355 239.55C329.423 239.561 329.492 239.558 329.558 239.54C329.625 239.523 329.686 239.492 329.74 239.449C329.793 239.406 329.836 239.352 329.867 239.291C329.898 239.23 329.916 239.163 329.919 239.094V239.07Z" fill="#A5A5A5"/>
<path d="M330.689 238.098C330.682 238.051 330.686 238.002 330.7 237.956C330.714 237.911 330.737 237.868 330.769 237.832C330.8 237.796 330.839 237.767 330.883 237.747C330.926 237.728 330.974 237.717 331.022 237.717C331.069 237.717 331.117 237.728 331.16 237.747C331.204 237.767 331.243 237.796 331.274 237.832C331.306 237.868 331.329 237.911 331.343 237.956C331.357 238.002 331.361 238.051 331.355 238.098C331.361 238.146 331.357 238.194 331.343 238.24C331.329 238.286 331.306 238.328 331.274 238.364C331.243 238.4 331.204 238.429 331.16 238.449C331.117 238.469 331.069 238.479 331.022 238.479C330.974 238.479 330.926 238.469 330.883 238.449C330.839 238.429 330.8 238.4 330.769 238.364C330.737 238.328 330.714 238.286 330.7 238.24C330.686 238.194 330.682 238.146 330.689 238.098ZM330.689 239.64C330.682 239.593 330.686 239.544 330.7 239.498C330.714 239.453 330.737 239.41 330.769 239.374C330.8 239.338 330.839 239.309 330.883 239.289C330.926 239.27 330.974 239.259 331.022 239.259C331.069 239.259 331.117 239.27 331.16 239.289C331.204 239.309 331.243 239.338 331.274 239.374C331.306 239.41 331.329 239.453 331.343 239.498C331.357 239.544 331.361 239.593 331.355 239.64C331.361 239.688 331.357 239.736 331.343 239.782C331.329 239.828 331.306 239.87 331.274 239.906C331.243 239.942 331.204 239.971 331.16 239.991C331.117 240.011 331.069 240.021 331.022 240.021C330.974 240.021 330.926 240.011 330.883 239.991C330.839 239.971 330.8 239.942 330.769 239.906C330.737 239.87 330.714 239.828 330.7 239.782C330.686 239.736 330.682 239.688 330.689 239.64Z" fill="#A5A5A5"/>
<path d="M331.689 238.53C331.689 237.6 332.199 237.072 332.889 237.072C333.579 237.072 334.089 237.6 334.089 238.53C334.089 239.46 333.579 239.988 332.889 239.988C332.199 239.988 331.689 239.46 331.689 238.53ZM333.525 238.53C333.525 237.846 333.261 237.534 332.871 237.534C332.481 237.534 332.217 237.846 332.217 238.53C332.217 239.214 332.487 239.532 332.871 239.532C333.255 239.532 333.525 239.214 333.525 238.53Z" fill="#A5A5A5"/>
<path d="M334.408 238.53C334.408 237.6 334.918 237.072 335.608 237.072C336.298 237.072 336.808 237.6 336.808 238.53C336.808 239.46 336.298 239.988 335.608 239.988C334.918 239.988 334.408 239.46 334.408 238.53ZM336.25 238.53C336.25 237.846 335.98 237.534 335.59 237.534C335.2 237.534 334.942 237.846 334.942 238.53C334.942 239.214 335.206 239.532 335.59 239.532C335.974 239.532 336.25 239.214 336.25 238.53Z" fill="#A5A5A5"/>
<path d="M341.357 238.356H340.373V235.53H343.199V236.508H341.357V238.356Z" fill="#A5A5A5"/>
<path d="M343.199 242.04H340.373V239.22H341.351V241.062H343.199V242.04Z" fill="#A5A5A5"/>
<path d="M347.699 242.04H344.879V241.062H346.715V239.214H347.699V242.04Z" fill="#A5A5A5"/>
<path d="M347.699 238.35H346.721V236.508H344.873V235.53H347.699V238.35Z" fill="#A5A5A5"/>
<path d="M170.399 123.084C170.399 123.168 163.457 123.24 154.895 123.24C146.333 123.24 139.391 123.168 139.391 123.084C139.391 123 146.333 122.928 154.895 122.928C163.457 122.928 170.399 123 170.399 123.084Z" fill="#263238"/>
<path d="M323.008 152.156C323.008 152.24 316.066 152.312 307.504 152.312C298.942 152.312 292 152.24 292 152.156C292 152.072 298.942 152 307.504 152C316.066 152 323.008 152.072 323.008 152.156Z" fill="#263238"/>
<path d="M156.052 126.329C156.052 126.413 152.368 126.485 147.82 126.485C143.272 126.485 139.588 126.413 139.588 126.329C139.588 126.245 143.272 126.167 147.82 126.167C152.368 126.167 156.052 126.239 156.052 126.329Z" fill="#263238"/>
<path d="M308.661 155.402C308.661 155.486 304.977 155.558 300.429 155.558C295.881 155.558 292.197 155.486 292.197 155.402C292.197 155.318 295.881 155.24 300.429 155.24C304.977 155.24 308.661 155.312 308.661 155.402Z" fill="#263238"/>
<path d="M263.274 147.054C265.99 148.598 268.372 150.666 270.284 153.138C272.195 155.61 273.598 158.436 274.41 161.454C277.308 171.822 286.17 198.822 286.17 198.822C286.17 198.822 291.234 204.78 291.774 209.19C292.314 213.6 291.234 224.274 289.602 226.266C289.129 226.844 288.522 227.297 287.834 227.587C287.146 227.877 286.397 227.994 285.654 227.928L264.336 225.906L255.936 169.698L263.274 147.054Z" fill="#AFAFAF"/>
<path d="M192.786 146.076C192.786 146.076 177.54 150.876 173.742 155.016L186.222 213.072L186 231.396H258.288C258.288 230.49 258.936 170.568 258.936 170.568L263.274 147.054L237.6 142.536L232.536 138.552L203.958 140.004L199.614 144.342L192.786 146.076Z" fill="#AFAFAF"/>
<g opacity="0.3">
<path d="M198.602 196.446C198.38 195.954 198.056 195.42 197.528 195.312C196.658 195.132 196.076 196.158 195.782 196.998C193.477 203.58 190.283 209.816 186.29 215.532L186.104 224.448C190.304 220.902 194.468 217.104 197.156 212.298C199.844 207.492 200.846 201.462 198.602 196.446Z" fill="black"/>
</g>
<path d="M173.742 155.016C173.742 155.016 168.72 161.862 166.638 166.332C164.556 170.802 147.27 208.332 146.238 212.214C145.206 216.096 142.518 228.3 150.408 231.132H166.65L182.946 198.174L183.78 159.924L173.742 155.016Z" fill="#AFAFAF"/>
<path d="M167.676 207.324C167.676 207.324 167.316 207.006 166.566 206.58C165.496 206.006 164.348 205.59 163.158 205.344C162.341 205.165 161.51 205.048 160.674 204.996C159.712 204.923 158.743 204.992 157.8 205.2C155.666 205.748 153.756 206.948 152.334 208.632C150.89 210.297 149.832 212.263 149.238 214.386C148.748 216.122 148.423 217.899 148.266 219.696C148.11 221.232 148.056 222.486 148.002 223.344C148.002 223.752 147.954 224.082 147.942 224.34C147.943 224.458 147.927 224.575 147.894 224.688C147.887 224.572 147.887 224.456 147.894 224.34C147.894 224.076 147.894 223.74 147.894 223.344C147.894 222.474 147.93 221.226 148.056 219.678C148.183 217.852 148.491 216.043 148.974 214.278C149.564 212.107 150.637 210.096 152.112 208.398C153.578 206.667 155.551 205.441 157.752 204.894C158.715 204.694 159.702 204.639 160.68 204.732C161.528 204.794 162.368 204.925 163.194 205.122C164.397 205.389 165.551 205.843 166.614 206.466C166.901 206.643 167.172 206.844 167.424 207.066C167.517 207.143 167.602 207.229 167.676 207.324Z" fill="#263238"/>
<path d="M159.979 200.76C160.156 200.708 160.34 200.68 160.525 200.676C161.026 200.637 161.529 200.637 162.031 200.676C162.777 200.72 163.518 200.83 164.245 201.006C166.032 201.438 167.71 202.239 169.171 203.358C169.765 203.81 170.318 204.317 170.821 204.87C171.161 205.245 171.472 205.646 171.751 206.07C171.864 206.217 171.957 206.378 172.027 206.55C171.979 206.586 171.535 205.95 170.659 205.038C170.141 204.519 169.585 204.04 168.997 203.604C168.271 203.076 167.5 202.614 166.693 202.224C165.88 201.845 165.037 201.536 164.173 201.3C163.463 201.117 162.741 200.989 162.013 200.916C160.765 200.754 159.979 200.82 159.979 200.76Z" fill="#263238"/>
<path d="M174.655 198.954C174.404 198.964 174.152 198.946 173.905 198.9C173.425 198.84 172.735 198.768 171.871 198.702C167.384 198.367 162.875 198.907 158.593 200.292C157.771 200.556 157.111 200.79 156.661 200.964C156.432 201.065 156.192 201.144 155.947 201.198C156.154 201.054 156.378 200.938 156.613 200.85C157.051 200.64 157.705 200.376 158.521 200.082C162.806 198.565 167.374 198.02 171.895 198.486C172.753 198.576 173.449 198.678 173.923 198.78C174.172 198.814 174.417 198.873 174.655 198.954Z" fill="#263238"/>
<path d="M220.908 166.884C220.842 166.827 220.786 166.76 220.74 166.686L220.296 166.086L218.664 163.83C217.266 161.85 215.31 159.09 213.012 155.85L213.264 155.814C212.388 158.382 211.422 161.214 210.408 164.214L210.342 164.4L210.174 164.292L209.838 164.076C208.531 163.239 207.342 162.23 206.304 161.076C205.345 160.002 204.498 158.832 203.778 157.584C202.579 155.473 201.646 153.222 201 150.882C200.566 149.302 200.216 147.699 199.95 146.082C199.854 145.542 199.782 145.104 199.722 144.774C199.705 144.662 199.679 144.552 199.644 144.444C199.644 144.372 199.602 144.336 199.608 144.33C199.614 144.324 199.854 144.93 200.07 146.064C200.286 147.198 200.628 148.83 201.216 150.804C201.88 153.122 202.825 155.351 204.03 157.44C204.748 158.664 205.586 159.814 206.532 160.872C207.552 161.999 208.718 162.983 210 163.8L210.33 164.016L210.102 164.1C211.128 161.1 212.1 158.286 212.988 155.7L213.078 155.436L213.24 155.664C215.496 158.934 217.44 161.718 218.802 163.71C219.456 164.682 220.002 165.456 220.368 166.02L220.77 166.62C220.825 166.703 220.871 166.792 220.908 166.884Z" fill="#263238"/>
<g opacity="0.3">
<path d="M239.72 194.599C239.072 201.369 240.54 208.173 243.92 214.075C247.28 219.919 252.212 225.133 258.35 227.929C258.548 221.971 258.26 214.951 258.458 208.993L239.72 194.599Z" fill="black"/>
</g>
<path d="M239.04 186.756C239.04 186.756 236.412 187.482 238.38 192.864C240.348 198.246 241.008 197.916 242.322 202.944C243.636 207.972 245.166 212.544 247.458 215.412C249.75 218.28 258.288 224.052 258.288 224.052L265.944 216.852C265.944 216.852 264.684 211.452 264.984 207.816C265.284 204.18 266.052 195.216 265.944 193.662C265.836 192.108 264.192 188.412 264.192 188.412V185.868L260.256 173.76C260.256 173.76 258.066 172.776 257.304 176.274L255.99 172.56C255.99 172.56 253.914 172.23 253.368 176.496C252.822 180.762 253.806 186.666 253.806 186.666L252.708 194.1L251.07 199.134L249.648 199.35C249.648 199.35 247.506 198.75 246.336 194.736C245.166 190.722 241.992 185.88 239.04 186.756Z" fill="#E0E0E0"/>
<path d="M263.399 205.8C263.399 205.8 263.399 205.71 263.363 205.53C263.327 205.35 263.327 205.056 263.309 204.726C263.267 203.994 263.213 202.98 263.147 201.726C263.027 199.116 262.865 195.48 262.673 191.238L262.703 191.328C262.508 191.125 262.26 190.979 261.987 190.908C261.714 190.836 261.426 190.84 261.155 190.92C260.862 190.991 260.586 191.12 260.342 191.3C260.099 191.479 259.894 191.705 259.739 191.964C259.067 193.038 259.031 194.442 258.821 195.792C258.407 198.858 258.011 201.792 257.651 204.438C257.471 205.77 257.279 207.03 257.021 208.2C256.779 209.285 256.46 210.352 256.067 211.392C255.731 212.346 255.431 213.192 255.245 213.99C255.08 214.647 254.997 215.323 254.999 216C255.021 216.583 255.122 217.161 255.299 217.716C255.228 217.582 255.167 217.441 255.119 217.296C254.977 216.88 254.896 216.446 254.879 216.006C254.851 215.31 254.918 214.614 255.077 213.936C255.288 213.046 255.55 212.168 255.863 211.308C256.234 210.272 256.535 209.211 256.763 208.134C257.009 206.976 257.195 205.734 257.363 204.39C257.711 201.726 258.101 198.81 258.509 195.738C258.605 195.06 258.677 194.382 258.797 193.71C258.896 193.031 259.124 192.377 259.469 191.784C259.648 191.493 259.883 191.24 260.16 191.04C260.437 190.84 260.751 190.698 261.083 190.62C261.407 190.523 261.751 190.519 262.077 190.608C262.403 190.697 262.697 190.876 262.925 191.124L262.955 191.166V191.214C263.105 195.456 263.231 199.092 263.321 201.708C263.321 202.974 263.375 203.988 263.399 204.708C263.399 205.038 263.399 205.308 263.399 205.512C263.41 205.608 263.41 205.704 263.399 205.8Z" fill="#747474"/>
<path d="M259.199 192C259.063 191.787 258.954 191.557 258.875 191.316C258.625 190.677 258.41 190.024 258.233 189.36C257.976 188.375 257.793 187.372 257.687 186.36C257.613 185.763 257.601 185.16 257.651 184.56C257.707 183.89 257.934 183.245 258.311 182.688C258.648 182.189 259.142 181.817 259.715 181.632L259.829 181.602L259.889 181.704C260.999 183.66 261.965 185.388 262.637 186.63L263.423 188.1C263.531 188.272 263.616 188.458 263.675 188.652C263.541 188.5 263.424 188.332 263.327 188.154L262.463 186.732C261.743 185.532 260.741 183.81 259.625 181.86L259.799 181.932C259.297 182.1 258.865 182.429 258.569 182.868C258.224 183.383 258.017 183.978 257.969 184.596C257.909 185.183 257.909 185.774 257.969 186.36C258.06 187.37 258.218 188.372 258.443 189.36C258.635 190.2 258.845 190.872 258.983 191.334C259.077 191.548 259.15 191.771 259.199 192Z" fill="#747474"/>
<path d="M257.365 192.984C257.311 192.754 257.287 192.518 257.293 192.282C257.293 191.766 257.245 191.13 257.215 190.38C257.167 188.772 257.113 186.552 257.083 184.098C256.993 182 257.025 179.898 257.179 177.804C257.254 177.168 257.39 176.541 257.587 175.932C257.645 175.702 257.74 175.483 257.869 175.284C257.648 176.119 257.49 176.969 257.395 177.828C257.245 179.418 257.395 181.638 257.395 184.092C257.395 186.546 257.443 188.766 257.437 190.374C257.437 191.13 257.437 191.766 257.437 192.282C257.438 192.518 257.414 192.753 257.365 192.984Z" fill="#747474"/>
<path d="M250.889 213.15C250.847 213.114 251.327 212.55 251.915 211.524C252.26 210.925 252.559 210.301 252.809 209.658C253.104 208.866 253.333 208.051 253.493 207.222C253.633 206.389 253.704 205.546 253.703 204.702C253.694 204.012 253.634 203.324 253.523 202.644C253.325 201.474 253.073 200.778 253.127 200.76C253.222 200.906 253.295 201.066 253.343 201.234C253.513 201.678 253.645 202.136 253.739 202.602C253.886 203.291 253.971 203.992 253.991 204.696C254.044 206.431 253.731 208.159 253.073 209.766C252.808 210.417 252.485 211.044 252.107 211.638C251.857 212.04 251.574 212.422 251.261 212.778C251.039 213.03 250.907 213.162 250.889 213.15Z" fill="#747474"/>
<path d="M264.329 209.4L270.971 211.704C270.971 211.704 277.319 208.422 281.693 211.704C286.067 214.986 289.865 223.632 288.665 227.13C288.665 227.13 285.665 230.862 283.349 231.408C281.033 231.954 272.123 229.788 268.409 229.008C264.695 228.228 258.287 224.064 258.287 224.064L264.329 209.4Z" fill="#E0E0E0"/>
<path d="M265.147 219.174C265.1 218.977 265.076 218.776 265.075 218.574C265.075 218.124 265.021 217.59 264.985 216.966C264.913 215.61 264.823 213.738 264.793 211.662C264.763 209.586 264.823 207.708 264.943 206.352C265.003 205.674 265.081 205.152 265.147 204.75C265.162 204.544 265.208 204.342 265.285 204.15C265.333 204.15 265.231 204.99 265.165 206.346C265.099 207.702 265.075 209.568 265.105 211.638C265.135 213.708 265.177 215.496 265.201 216.936C265.201 217.614 265.201 218.166 265.201 218.544C265.217 218.755 265.199 218.968 265.147 219.174Z" fill="#747474"/>
<path d="M287.052 211.427C286.364 210.713 285.626 210.047 284.844 209.435C282.923 207.998 280.62 207.161 278.224 207.03C275.828 206.898 273.447 207.479 271.38 208.697C270.542 209.22 269.74 209.799 268.98 210.431C269.139 210.211 269.322 210.01 269.526 209.831C270.066 209.33 270.655 208.884 271.284 208.499C273.371 207.2 275.808 206.575 278.263 206.712C280.718 206.848 283.071 207.739 285 209.261C285.584 209.71 286.119 210.219 286.596 210.779C286.773 210.977 286.926 211.194 287.052 211.427Z" fill="#263238"/>
<path d="M286.201 205.89C285.343 205.274 284.415 204.762 283.435 204.366C281.028 203.511 278.413 203.434 275.959 204.144C274.609 204.523 273.31 205.063 272.089 205.752C271.095 206.323 270.157 206.986 269.287 207.732C268.543 208.368 267.973 208.932 267.583 209.31C267.392 209.529 267.181 209.729 266.953 209.91C267.109 209.668 267.29 209.443 267.493 209.238C268.011 208.653 268.562 208.098 269.143 207.576C270.005 206.797 270.944 206.108 271.945 205.518C273.178 204.797 274.499 204.239 275.875 203.856C278.389 203.122 281.075 203.233 283.519 204.174C284.249 204.466 284.937 204.853 285.565 205.326C285.787 205.488 285.937 205.644 286.051 205.74C286.165 205.836 286.201 205.884 286.201 205.89Z" fill="#263238"/>
<path d="M286.253 201.09C286.253 201.15 285.053 200.796 283.145 200.538C282.018 200.386 280.881 200.314 279.743 200.322C278.35 200.337 276.96 200.461 275.585 200.694C274.214 200.946 272.864 201.303 271.547 201.762C270.474 202.143 269.43 202.6 268.421 203.13C266.699 204.03 265.727 204.762 265.691 204.708C265.895 204.51 266.118 204.333 266.357 204.18C266.619 203.974 266.893 203.786 267.179 203.616C267.509 203.406 267.881 203.16 268.313 202.932C269.322 202.374 270.371 201.892 271.451 201.492C272.777 201.008 274.142 200.638 275.531 200.388C276.919 200.153 278.324 200.034 279.731 200.034C280.883 200.039 282.032 200.134 283.169 200.316C283.655 200.376 284.087 200.49 284.465 200.568C284.794 200.634 285.118 200.718 285.437 200.82C285.717 200.886 285.99 200.976 286.253 201.09Z" fill="#263238"/>
<path d="M235.356 142.338C235.605 142.897 235.759 143.493 235.812 144.102C235.991 145.823 235.906 147.561 235.56 149.256C235.349 150.473 235.063 151.675 234.702 152.856C234.229 154.23 233.647 155.564 232.962 156.846C231.528 159.606 229.728 162.612 227.64 165.846L227.4 166.224V165.774C227.4 163.65 227.4 161.424 227.4 159.114L227.634 159.228L222 163.722L222.048 163.65C220.711 168.03 219.89 172.55 219.6 177.12C219.048 184.422 219.492 191.406 219.834 197.742C220.176 204.078 220.326 209.796 220.524 214.596C220.722 219.396 220.884 223.272 221.028 225.954C221.112 227.286 221.172 228.318 221.214 229.038C221.214 229.38 221.256 229.638 221.268 229.842C221.28 230.046 221.268 230.118 221.268 230.118C221.268 230.118 221.268 230.028 221.226 229.848C221.184 229.668 221.178 229.386 221.142 229.044C221.076 228.342 220.992 227.304 220.902 225.96C220.722 223.284 220.512 219.402 220.302 214.602C220.092 209.802 219.834 204.096 219.546 197.754C219.258 191.412 218.736 184.422 219.288 177.096C219.591 172.499 220.435 167.954 221.802 163.554V163.512H221.838L227.454 159.006L227.688 158.814V159.114C227.688 161.424 227.688 163.65 227.688 165.774L227.442 165.696C231.564 159.306 234.918 153.75 235.434 149.256C235.79 147.577 235.899 145.855 235.758 144.144C235.709 143.694 235.627 143.249 235.512 142.812C235.392 142.488 235.356 142.338 235.356 142.338Z" fill="#263238"/>
<path d="M224.592 219.732H224.4C223.963 219.76 223.555 219.957 223.26 220.281C222.966 220.605 222.809 221.031 222.823 221.469C222.837 221.906 223.021 222.321 223.335 222.626C223.65 222.93 224.07 223.1 224.508 223.1C224.946 223.1 225.367 222.93 225.681 222.626C225.996 222.321 226.179 221.906 226.193 221.469C226.207 221.031 226.051 220.605 225.756 220.281C225.462 219.957 225.053 219.76 224.616 219.732H224.592Z" fill="white"/>
<path d="M224.592 196.608H224.4C223.965 196.636 223.557 196.832 223.264 197.155C222.971 197.478 222.815 197.902 222.829 198.338C222.843 198.774 223.026 199.188 223.339 199.491C223.653 199.795 224.072 199.964 224.508 199.964C224.944 199.964 225.363 199.795 225.677 199.491C225.99 199.188 226.173 198.774 226.187 198.338C226.201 197.902 226.045 197.478 225.752 197.155C225.459 196.832 225.051 196.636 224.616 196.608H224.592Z" fill="white"/>
<path d="M224.401 175.92C224.849 175.949 225.29 175.8 225.628 175.504C225.965 175.208 226.172 174.79 226.201 174.342C226.23 173.894 226.081 173.453 225.785 173.115C225.489 172.778 225.071 172.571 224.623 172.542H224.401C223.952 172.542 223.522 172.72 223.205 173.038C222.887 173.355 222.709 173.785 222.709 174.234C222.709 174.683 222.887 175.113 223.205 175.43C223.522 175.748 223.952 175.926 224.401 175.926V175.92Z" fill="white"/>
<path d="M198.462 115.242C196.362 112.908 194.262 110.556 192.708 107.82C191.154 105.084 190.26 101.886 190.764 98.8199C191.064 97.0199 191.832 95.2799 191.964 93.4199C192.132 90.8999 191.076 88.2659 191.964 85.9079C193.356 82.2119 198.33 81.6419 201.342 79.0919C203.688 77.1059 204.828 73.8839 207.408 72.2159C209.664 70.7519 212.562 70.7879 215.208 71.1599C217.854 71.5319 220.542 72.2099 223.206 71.8499C225.102 71.5979 226.89 70.8299 228.744 70.3679C230.598 69.9059 232.68 69.7679 234.33 70.7519C235.98 71.7359 236.916 74.0579 235.83 75.6359C238.914 74.2139 242.832 76.6199 243.678 79.9079C244.524 83.1959 242.832 86.7539 240.216 88.9079C237.6 91.0619 234.216 92.0879 230.886 92.7179C221.442 94.5179 211.188 93.4919 203.046 88.3799" fill="#263238"/>
<path d="M231.684 147C231.222 143.4 230.844 140.442 230.82 140.07C230.82 140.07 242.772 137.382 242.112 125.298C241.794 119.454 240.162 107.478 238.554 96.6596C237.728 91.0515 234.818 85.9609 230.406 82.4024C225.993 78.8439 220.402 77.079 214.746 77.4596L213.546 77.5316C201.036 79.1096 195.378 90.6175 197.298 103.086L204.054 144.888C204.054 144.888 206.934 154.134 213.096 155.736L220.896 166.848L222.18 162.048L227.976 156.996C229.087 155.689 230.047 154.262 230.838 152.742C231.723 150.966 232.019 148.955 231.684 147Z" fill="#E0E0E0"/>
<path d="M230.825 139.902C230.825 139.902 223.235 141.03 214.781 136.476C214.781 136.476 219.089 144.918 231.065 143.028L230.825 139.902Z" fill="#747474"/>
<path d="M234.673 107.052C234.707 107.502 234.564 107.947 234.275 108.293C233.986 108.639 233.573 108.859 233.125 108.906C232.907 108.938 232.684 108.926 232.471 108.87C232.257 108.815 232.057 108.717 231.882 108.583C231.707 108.448 231.56 108.28 231.451 108.089C231.342 107.897 231.273 107.685 231.247 107.466C231.207 107.013 231.348 106.562 231.639 106.212C231.93 105.863 232.348 105.643 232.801 105.6C233.02 105.569 233.242 105.582 233.456 105.639C233.67 105.695 233.87 105.794 234.044 105.93C234.219 106.065 234.364 106.234 234.472 106.427C234.58 106.62 234.649 106.832 234.673 107.052Z" fill="#263238"/>
<path d="M236.357 102.768C236.159 103.008 234.785 102.126 232.931 102.258C231.077 102.39 229.799 103.404 229.559 103.2C229.457 103.11 229.649 102.69 230.213 102.216C230.978 101.605 231.913 101.246 232.889 101.19C233.856 101.119 234.819 101.361 235.637 101.88C236.237 102.264 236.453 102.66 236.357 102.768Z" fill="#263238"/>
<path d="M217.14 108.306C217.175 108.755 217.033 109.201 216.743 109.546C216.454 109.892 216.04 110.11 215.592 110.154C215.374 110.187 215.152 110.176 214.938 110.121C214.724 110.066 214.524 109.969 214.349 109.835C214.174 109.701 214.027 109.534 213.918 109.342C213.809 109.151 213.74 108.939 213.714 108.72C213.68 108.271 213.822 107.827 214.11 107.481C214.398 107.135 214.809 106.915 215.256 106.866C215.475 106.834 215.697 106.846 215.911 106.902C216.125 106.957 216.326 107.055 216.501 107.189C216.677 107.323 216.824 107.491 216.934 107.683C217.043 107.875 217.113 108.087 217.14 108.306Z" fill="#263238"/>
<path d="M218.141 104.334C217.937 104.574 216.569 103.692 214.715 103.824C212.861 103.956 211.559 104.97 211.343 104.754C211.235 104.664 211.427 104.244 211.991 103.77C212.758 103.16 213.695 102.802 214.673 102.744C215.637 102.675 216.599 102.917 217.415 103.434C218.015 103.83 218.237 104.226 218.141 104.334Z" fill="#263238"/>
<path d="M225.793 117.648C225.793 117.54 226.921 117.264 228.793 116.898C229.261 116.82 229.705 116.694 229.765 116.37C229.771 115.876 229.626 115.393 229.351 114.984L227.707 111.468C225.421 106.464 223.729 102.33 223.933 102.24C224.137 102.15 226.153 106.134 228.445 111.144L230.029 114.684C230.364 115.235 230.496 115.887 230.401 116.526C230.343 116.697 230.247 116.853 230.12 116.982C229.993 117.11 229.839 117.209 229.669 117.27C229.411 117.359 229.143 117.416 228.871 117.438C226.975 117.666 225.811 117.75 225.793 117.648Z" fill="#263238"/>
<path d="M218.13 97.0256C217.98 97.5476 216.114 97.4276 213.93 97.8356C211.746 98.2436 210.048 98.9576 209.73 98.5256C209.586 98.3156 209.862 97.8236 210.54 97.2836C211.449 96.6245 212.494 96.1796 213.599 95.9822C214.703 95.7848 215.838 95.8399 216.918 96.1436C217.764 96.4136 218.196 96.7856 218.13 97.0256Z" fill="#263238"/>
<path d="M235.314 97.4401C235.02 97.8841 233.712 97.5361 232.17 97.6141C230.628 97.6921 229.35 98.0881 229.02 97.6681C228.876 97.4641 229.056 97.0261 229.62 96.5881C230.353 96.0609 231.225 95.7625 232.128 95.7304C233.03 95.6984 233.922 95.9342 234.69 96.4081C235.242 96.8041 235.446 97.2001 235.314 97.4401Z" fill="#263238"/>
<path d="M198.912 111.996C198.702 111.924 190.452 110.1 191.268 118.338C192.084 126.576 201 123.888 201 123.654C201 123.42 198.912 111.996 198.912 111.996Z" fill="#E0E0E0"/>
<path d="M197.352 120.948C197.31 120.948 197.22 121.062 196.986 121.194C196.661 121.375 196.277 121.423 195.918 121.326C195.012 121.092 194.118 119.784 193.956 118.326C193.866 117.622 193.934 116.906 194.154 116.232C194.207 115.968 194.324 115.722 194.493 115.513C194.662 115.304 194.879 115.139 195.126 115.032C195.287 114.972 195.464 114.971 195.626 115.028C195.788 115.085 195.925 115.196 196.014 115.344C196.146 115.566 196.11 115.734 196.152 115.74C196.194 115.746 196.314 115.59 196.218 115.254C196.15 115.054 196.017 114.882 195.84 114.768C195.718 114.686 195.581 114.629 195.436 114.6C195.292 114.571 195.144 114.571 195 114.6C194.669 114.701 194.369 114.886 194.13 115.136C193.89 115.386 193.719 115.693 193.632 116.028C193.35 116.776 193.258 117.581 193.362 118.374C193.578 120.03 194.562 121.5 195.804 121.722C196.032 121.765 196.267 121.756 196.492 121.696C196.716 121.636 196.924 121.526 197.1 121.374C197.358 121.146 197.4 120.96 197.352 120.948Z" fill="#747474"/>
<path d="M237.947 85.41C237.383 88.692 230.747 91.698 225.215 91.536C220.133 91.386 217.619 88.866 213.929 87.072C211.589 85.938 211.589 85.938 208.415 86.472C205.853 86.886 204.521 89.916 203.081 92.076C205.823 98.076 204.713 105.012 203.549 111.492C203.499 112.223 203.205 112.916 202.715 113.46C201.791 114.276 200.315 113.79 199.379 112.956C197.921 111.618 197.255 109.638 196.781 107.718C195.619 103.351 195.341 98.7957 195.965 94.32C196.596 89.8224 198.532 85.6085 201.533 82.2C205.458 78.0638 210.837 75.6136 216.533 75.366C222.202 75.1628 227.79 76.7499 232.505 79.902C234.689 81.336 236.705 83.106 237.965 85.404" fill="#263238"/>
<path d="M227.01 121.8L222.81 119.844C222.579 119.708 222.315 119.641 222.048 119.652C221.752 119.719 221.493 119.894 221.322 120.144C220.829 120.733 220.522 121.455 220.439 122.218C220.356 122.982 220.5 123.752 220.854 124.434C221.238 125.098 221.843 125.606 222.562 125.872C223.282 126.137 224.072 126.142 224.796 125.886C226.284 125.286 227.004 123.54 227.124 121.932L227.01 121.8Z" fill="#747474"/>
<path d="M224.929 126.198C224.929 126.234 224.731 126.354 224.329 126.444C223.727 126.552 223.108 126.507 222.529 126.312C221.643 126.014 220.901 125.396 220.447 124.578C220.16 124.08 219.988 123.525 219.943 122.951C219.899 122.378 219.983 121.803 220.189 121.266C220.4 120.71 220.732 120.208 221.161 119.796C221.369 119.599 221.599 119.426 221.845 119.28C221.993 119.192 222.159 119.141 222.331 119.13C222.498 119.124 222.664 119.154 222.817 119.22C223.041 119.333 223.259 119.457 223.471 119.592L224.041 119.946L225.067 120.582C226.309 121.374 227.059 121.902 227.017 121.974C226.975 122.046 226.147 121.662 224.845 120.966L223.783 120.366L223.183 120.036C222.979 119.934 222.763 119.796 222.583 119.724C222.509 119.689 222.427 119.675 222.345 119.683C222.264 119.692 222.186 119.722 222.121 119.772C221.922 119.898 221.737 120.045 221.569 120.21C221.213 120.565 220.935 120.99 220.753 121.458C220.579 121.913 220.505 122.399 220.536 122.885C220.567 123.371 220.702 123.844 220.933 124.272C221.307 124.99 221.92 125.555 222.667 125.868C223.184 126.076 223.736 126.18 224.293 126.174C224.689 126.192 224.911 126.156 224.929 126.198Z" fill="#263238"/>
<path d="M223.601 107.262C223.541 106.559 223.431 105.861 223.271 105.174C222.974 104.025 222.44 102.951 221.703 102.021C220.966 101.091 220.042 100.325 218.992 99.773C217.941 99.221 216.787 98.8948 215.603 98.8154C214.419 98.736 213.232 98.9051 212.117 99.312C211.349 99.5877 210.626 99.9781 209.975 100.47C209.28 100.967 208.672 101.575 208.175 102.27C207.105 103.716 206.528 105.467 206.528 107.265C206.528 109.063 207.105 110.814 208.175 112.26C208.672 112.955 209.28 113.563 209.975 114.06C210.626 114.552 211.349 114.942 212.117 115.218C213.232 115.621 214.419 115.787 215.601 115.706C216.784 115.625 217.937 115.298 218.987 114.747C220.036 114.195 220.959 113.431 221.697 112.503C222.434 111.575 222.97 110.503 223.271 109.356C223.43 108.671 223.54 107.975 223.601 107.274C223.608 107.32 223.608 107.366 223.601 107.412C223.601 107.52 223.601 107.658 223.601 107.82C223.606 108.043 223.59 108.266 223.553 108.486C223.519 108.789 223.465 109.09 223.391 109.386C223.201 110.203 222.887 110.986 222.461 111.708C221.436 113.46 219.83 114.797 217.922 115.487C216.013 116.178 213.923 116.178 212.015 115.488C211.22 115.204 210.473 114.799 209.801 114.288C209.085 113.775 208.456 113.149 207.941 112.434C206.833 110.936 206.234 109.122 206.234 107.259C206.234 105.396 206.833 103.582 207.941 102.084C208.453 101.368 209.079 100.742 209.795 100.23C210.467 99.7191 211.214 99.3143 212.009 99.03C213.479 98.502 215.064 98.3777 216.599 98.67C217.814 98.9024 218.965 99.3921 219.975 100.106C220.985 100.82 221.831 101.742 222.455 102.81C222.881 103.532 223.195 104.315 223.385 105.132C223.459 105.428 223.513 105.729 223.547 106.032C223.584 106.252 223.6 106.475 223.595 106.698C223.595 106.86 223.595 106.998 223.595 107.106C223.605 107.157 223.607 107.21 223.601 107.262Z" fill="#263238"/>
<path d="M244.147 106.452C244.088 105.767 243.982 105.088 243.829 104.418C243.348 102.603 242.27 101.003 240.769 99.8759C239.746 99.0981 238.553 98.5738 237.289 98.3459C235.838 98.0796 234.342 98.206 232.957 98.7119C232.211 98.9816 231.51 99.3596 230.875 99.8339C230.206 100.323 229.619 100.914 229.135 101.586C228.098 102.996 227.538 104.701 227.538 106.452C227.538 108.203 228.098 109.908 229.135 111.318C229.618 111.989 230.205 112.578 230.875 113.064C231.508 113.542 232.21 113.923 232.957 114.192C234.343 114.695 235.838 114.821 237.289 114.558C238.553 114.33 239.746 113.806 240.769 113.028C242.27 111.901 243.348 110.301 243.829 108.486C243.982 107.816 244.088 107.136 244.147 106.452C244.161 106.63 244.161 106.808 244.147 106.986C244.149 107.205 244.133 107.424 244.099 107.64C244.067 107.935 244.015 108.228 243.943 108.516C243.56 110.087 242.735 111.516 241.566 112.633C240.396 113.749 238.93 114.507 237.343 114.816C235.846 115.099 234.301 114.976 232.867 114.462C231.281 113.884 229.9 112.854 228.895 111.498C227.815 110.037 227.232 108.268 227.232 106.452C227.232 104.635 227.815 102.867 228.895 101.406C229.9 100.05 231.281 99.0196 232.867 98.4419C234.301 97.9276 235.846 97.8054 237.343 98.0879C238.93 98.3968 240.396 99.1545 241.566 100.271C242.735 101.388 243.56 102.817 243.943 104.388C244.015 104.676 244.067 104.969 244.099 105.264C244.133 105.48 244.149 105.699 244.147 105.918C244.161 106.096 244.161 106.274 244.147 106.452Z" fill="#263238"/>
<path d="M227.4 104.556C227.364 104.586 227.166 104.424 226.8 104.25C226.328 104.025 225.811 103.913 225.288 103.92C224.767 103.928 224.254 104.059 223.794 104.304C223.434 104.49 223.242 104.664 223.194 104.628C223.146 104.592 223.302 104.364 223.662 104.112C224.136 103.789 224.694 103.612 225.268 103.602C225.842 103.593 226.405 103.751 226.89 104.058C227.256 104.298 227.4 104.532 227.4 104.556Z" fill="#263238"/>
<path d="M206.911 106.038C205.724 107.116 204.469 108.118 203.155 109.038C201.898 110.037 200.579 110.957 199.207 111.792C200.393 110.709 201.65 109.707 202.969 108.792C204.222 107.79 205.539 106.87 206.911 106.038Z" fill="#263238"/>
<g opacity="0.3">
<path d="M199.801 145.085C198.967 153.227 202.063 161.825 208.597 166.757C209.107 167.147 209.749 167.531 210.355 167.309C210.759 167.114 211.082 166.782 211.267 166.373C213.097 163.212 213.784 159.517 213.211 155.909C212.179 158.633 211.291 161.309 210.247 164.153C204.565 160.697 201.001 153.353 199.801 145.085Z" fill="black"/>
</g>
<path opacity="0.3" d="M221.922 163.602L226.722 161.85L227.514 169.956C227.514 169.956 232.686 160.53 234.828 156.234C236.97 151.938 235.866 144.342 235.866 144.342C235.866 144.342 236.628 150.942 231.45 159.384L227.538 165.744V159.084L221.922 163.602Z" fill="black"/>
<g opacity="0.3">
<path d="M166.201 204.797C164.013 203.868 161.609 203.567 159.259 203.927C156.755 204.132 154.359 205.039 152.347 206.543C150.403 208.109 149.089 210.581 149.347 213.065L149.587 213.095C151.261 208.571 154.585 205.295 158.875 204.881C163.165 204.467 167.347 206.387 170.275 209.537C169.957 207.185 168.313 205.799 166.201 204.797Z" fill="black"/>
</g>
<g opacity="0.3">
<path d="M287.365 209.399C285.702 207.693 283.528 206.574 281.173 206.213C279.121 205.87 277.019 205.992 275.021 206.571C273.022 207.149 271.18 208.169 269.629 209.555L270.541 208.811C272.861 207.414 275.525 206.691 278.233 206.723C280.951 206.77 283.558 207.812 285.559 209.651C287.359 211.355 288.433 213.665 289.459 215.915C289.625 214.742 289.523 213.545 289.16 212.417C288.798 211.288 288.184 210.257 287.365 209.399Z" fill="black"/>
</g>
<path d="M256.471 171.78C256.519 171.555 256.592 171.336 256.687 171.126C256.873 170.652 257.101 170.07 257.365 169.38C257.965 167.91 258.745 165.882 259.585 163.62C260.425 161.358 261.151 159.3 261.673 157.812L262.273 156.042C262.337 155.821 262.426 155.607 262.537 155.406C262.518 155.636 262.468 155.862 262.387 156.078C262.273 156.51 262.093 157.122 261.859 157.878C261.391 159.39 260.695 161.478 259.855 163.728C259.015 165.978 258.181 168.018 257.545 169.464C257.233 170.19 256.945 170.772 256.771 171.174C256.696 171.387 256.595 171.591 256.471 171.78Z" fill="#263238"/>
<path d="M180.829 172.368C180.745 172.368 180.091 169.53 179.371 165.99C178.651 162.45 178.135 159.6 178.201 159.552C178.267 159.504 178.933 162.39 179.653 165.93C180.373 169.47 180.913 172.35 180.829 172.368Z" fill="#263238"/>
<path d="M179.694 208.062C179.886 208.158 177.498 189.366 177.498 189.366C177.498 189.366 179.004 175.104 179.85 174.444V169.41C179.85 169.41 182.184 168 182.808 170.28C182.808 170.28 184.878 168.48 185.208 172.758C185.538 177.036 185.646 181.404 185.646 181.404L190.248 192.912L191.004 193.296C191.004 193.296 191.994 184.296 192.57 182.952C193.146 181.608 193.542 178.398 195.72 178.884C197.898 179.37 198.084 181.17 197.694 184.11C197.304 187.05 196.812 190.11 196.998 191.994C197.184 193.878 198.042 198.072 197.778 201.396C197.514 204.72 195.69 208.224 193.782 210.684C191.874 213.144 188.22 218.238 186.24 219.768C185.598 220.308 179.694 208.062 179.694 208.062Z" fill="#E0E0E0"/>
<path d="M182.021 192.768C181.991 192.501 181.991 192.231 182.021 191.964C182.057 191.364 182.111 190.656 182.171 189.78C182.309 187.938 182.525 185.394 182.771 182.58C182.903 181.182 183.029 179.85 183.143 178.626C183.211 178.062 183.211 177.492 183.143 176.928C183.079 176.445 182.87 175.993 182.543 175.632C182.303 175.373 182.013 175.167 181.689 175.025C181.366 174.884 181.018 174.811 180.665 174.81C180.401 174.822 180.138 174.855 179.879 174.906C179.938 174.865 180.003 174.832 180.071 174.81C180.263 174.738 180.466 174.695 180.671 174.684C181.049 174.662 181.428 174.722 181.781 174.86C182.134 174.998 182.453 175.21 182.717 175.482C183.08 175.872 183.312 176.364 183.383 176.892C183.458 177.476 183.458 178.066 183.383 178.65C183.275 179.85 183.155 181.212 183.035 182.61C182.777 185.418 182.525 187.956 182.327 189.81L182.081 191.988C182.083 192.249 182.063 192.51 182.021 192.768Z" fill="#747474"/>
<path d="M184.493 185.082C184.158 185.538 183.884 186.036 183.677 186.564C183.311 187.892 183.057 189.249 182.915 190.62C182.663 192.228 182.423 193.68 182.231 194.73C182.162 195.302 182.037 195.867 181.859 196.416C181.862 195.838 181.914 195.262 182.015 194.694C182.147 193.638 182.357 192.18 182.615 190.572C182.873 188.964 183.041 187.494 183.485 186.486C183.643 186.091 183.864 185.724 184.139 185.4C184.337 185.16 184.481 185.07 184.493 185.082Z" fill="#747474"/>
<path d="M182.803 170.034C182.886 170.225 182.941 170.427 182.965 170.634C183.049 171.018 183.151 171.576 183.265 172.272C183.493 173.658 183.745 175.584 183.907 177.726C184.069 179.868 184.099 181.812 184.075 183.216C184.075 183.918 184.045 184.488 184.015 184.878C184.02 185.08 183.996 185.282 183.943 185.478C183.87 184.724 183.84 183.967 183.853 183.21C183.823 181.806 183.751 179.874 183.595 177.744C183.439 175.614 183.223 173.688 183.049 172.296C182.922 171.547 182.84 170.792 182.803 170.034Z" fill="#747474"/>
<path d="M196.081 187.65C195.853 187.796 195.593 187.885 195.323 187.908C195.053 187.931 194.782 187.888 194.533 187.782C193.651 187.518 193.243 186.84 193.333 186.81C193.746 187.072 194.181 187.297 194.635 187.482C195.111 187.578 195.595 187.634 196.081 187.65Z" fill="#747474"/>
<path d="M179.952 205.722L167.796 210.834H160.548C160.548 210.834 153.384 213.072 152.28 219.792C151.176 226.512 151.02 229.962 154.17 230.796C157.32 231.63 166.218 231.72 170.628 230.256C175.038 228.792 186.594 219.456 186.594 219.456L187.704 212.712L179.952 205.722Z" fill="#E0E0E0"/>
<path d="M182.802 213.15C182.802 213.15 182.664 213.048 182.454 212.832C182.165 212.518 181.902 212.181 181.668 211.824C180.907 210.637 180.334 209.34 179.97 207.978C179.594 206.628 179.343 205.246 179.22 203.85C179.139 203.273 179.123 202.69 179.172 202.11C179.302 202.673 179.39 203.244 179.436 203.82C179.621 205.195 179.9 206.556 180.27 207.894C180.632 209.228 181.165 210.511 181.854 211.71C182.4 212.616 182.844 213.108 182.802 213.15Z" fill="#747474"/>
<path d="M188.101 215.28C188.423 214.439 188.654 213.566 188.791 212.676C189.063 210.505 188.478 208.314 187.159 206.568C186.421 205.536 185.587 204.636 184.885 203.76C184.246 202.996 183.694 202.163 183.241 201.276C182.943 200.671 182.741 200.023 182.641 199.356C182.604 199.113 182.604 198.867 182.641 198.624C182.782 199.512 183.061 200.373 183.469 201.174C183.941 202.03 184.502 202.835 185.143 203.574C185.845 204.426 186.685 205.326 187.441 206.382C188.176 207.372 188.694 208.507 188.959 209.712C189.163 210.699 189.19 211.715 189.037 212.712C188.936 213.377 188.751 214.026 188.485 214.644C188.389 214.86 188.299 215.022 188.239 215.13C188.179 215.238 188.107 215.286 188.101 215.28Z" fill="#747474"/>
<path d="M169.35 186C168.272 184.251 167.283 182.448 166.386 180.6C164.826 177.6 163.626 175.104 163.698 175.062C164.777 176.81 165.766 178.613 166.662 180.462C167.652 182.26 168.549 184.109 169.35 186Z" fill="white"/>
<path d="M189 164.106C189.512 162.568 190.123 161.064 190.83 159.606C191.444 158.107 192.151 156.648 192.948 155.238C192.433 156.775 191.822 158.278 191.118 159.738C190.506 161.237 189.798 162.696 189 164.106Z" fill="white"/>
<path d="M208.278 178.314C207.282 177.356 206.36 176.326 205.518 175.23C204.6 174.2 203.76 173.103 203.004 171.948C204 172.904 204.921 173.935 205.758 175.032C206.678 176.062 207.521 177.159 208.278 178.314Z" fill="white"/>
<path d="M203.844 197.856C204.453 196.759 205.147 195.712 205.92 194.724C206.616 193.68 207.396 192.694 208.254 191.778C207.647 192.876 206.952 193.923 206.178 194.91C205.486 195.957 204.705 196.942 203.844 197.856Z" fill="white"/>
<path d="M197.88 225.462C197.6 225.091 197.364 224.688 197.178 224.262C196.782 223.494 196.272 222.42 195.756 221.214C195.24 220.008 194.826 218.886 194.556 218.076C194.376 217.644 194.248 217.193 194.172 216.732C194.419 217.13 194.62 217.555 194.772 217.998L196.062 221.088C196.56 222.234 197.004 223.272 197.394 224.166C197.604 224.579 197.767 225.013 197.88 225.462Z" fill="white"/>
<path d="M214.801 213.726C213.574 213.645 212.355 213.462 211.159 213.18C209.937 212.999 208.732 212.714 207.559 212.328C209.994 212.591 212.402 213.058 214.759 213.726H214.801Z" fill="white"/>
<path d="M228 187.932C229.075 186.54 230.233 185.213 231.468 183.96C232.629 182.633 233.867 181.375 235.176 180.192C234.097 181.585 232.937 182.913 231.702 184.17C230.541 185.494 229.305 186.75 228 187.932Z" fill="white"/>
<path d="M241.201 222.329C241.135 222.389 239.197 220.139 236.869 217.319C234.541 214.499 232.711 212.159 232.777 212.105C232.843 212.051 234.781 214.295 237.109 217.115C239.437 219.935 241.255 222.275 241.201 222.329Z" fill="white"/>
<path d="M159.119 207.672C159.161 207.756 157.391 208.656 155.459 210.138C153.527 211.62 152.183 213.084 152.111 213.018C152.329 212.638 152.605 212.294 152.927 211.998C153.646 211.231 154.429 210.526 155.267 209.892C156.102 209.255 156.989 208.689 157.919 208.2C158.292 207.966 158.696 207.789 159.119 207.672Z" fill="white"/>
<path d="M164.064 194.4C163.683 195.249 163.21 196.054 162.654 196.8C162.181 197.604 161.619 198.352 160.98 199.032C161.363 198.183 161.835 197.379 162.39 196.632C162.863 195.827 163.424 195.079 164.064 194.4Z" fill="white"/>
<path d="M175.201 207.432C174.24 205.904 173.83 204.094 174.037 202.302C174.127 202.302 174.157 203.502 174.487 204.9C174.817 206.298 175.285 207.39 175.201 207.432Z" fill="white"/>
<path d="M176.85 166.08C176.104 166.34 175.327 166.504 174.54 166.566C173.765 166.729 172.972 166.787 172.182 166.74C172.93 166.48 173.708 166.317 174.498 166.254C175.271 166.095 176.061 166.036 176.85 166.08Z" fill="white"/>
<path d="M185.214 151.242C183.921 152.198 182.509 152.981 181.014 153.57C181.628 153.049 182.308 152.612 183.036 152.268C183.715 151.835 184.447 151.491 185.214 151.242Z" fill="white"/>
<path d="M208.739 157.512C207.892 156.65 207.117 155.718 206.423 154.728C205.654 153.797 204.963 152.804 204.359 151.758C205.983 153.546 207.448 155.471 208.739 157.512Z" fill="white"/>
<path d="M238.603 172.428C236.949 170.799 235.705 168.8 234.973 166.596C235.063 166.56 235.705 167.958 236.713 169.56C237.721 171.162 238.675 172.368 238.603 172.428Z" fill="white"/>
<path d="M250.002 176.184C249.278 178.293 248.354 180.328 247.242 182.262C247.562 181.192 247.978 180.154 248.484 179.16C248.895 178.122 249.403 177.125 250.002 176.184Z" fill="white"/>
<path d="M251.597 160.626C250.507 159.567 249.492 158.432 248.561 157.23C247.55 156.095 246.618 154.892 245.771 153.63C247.871 155.826 249.818 158.164 251.597 160.626Z" fill="white"/>
<path d="M234.186 147.99C233.996 147.034 233.906 146.06 233.916 145.086C233.826 144.113 233.84 143.133 233.958 142.164C234.148 143.12 234.239 144.093 234.228 145.068C234.322 146.04 234.308 147.02 234.186 147.99Z" fill="white"/>
<path d="M248.401 147.204C247.185 147.523 245.945 147.742 244.693 147.858C243.457 148.075 242.205 148.19 240.949 148.2C242.165 147.881 243.405 147.663 244.657 147.546C245.894 147.329 247.146 147.214 248.401 147.204Z" fill="white"/>
<path d="M270.739 163.626C269.905 162.259 269.16 160.84 268.507 159.378C267.765 157.96 267.115 156.495 266.562 154.992C267.399 156.359 268.147 157.778 268.801 159.24C269.54 160.659 270.187 162.124 270.739 163.626Z" fill="white"/>
<path d="M267 177.816C267.251 175.524 267.705 173.259 268.356 171.048C268.284 172.199 268.109 173.342 267.834 174.462C267.659 175.603 267.38 176.726 267 177.816Z" fill="white"/>
<path d="M277.345 189C276.645 187.505 276.044 185.965 275.545 184.392C274.95 182.853 274.455 181.278 274.062 179.676C274.758 181.175 275.359 182.716 275.863 184.29C276.455 185.827 276.95 187.4 277.345 189Z" fill="white"/>
<path d="M275.899 195.546C274.828 195.385 273.798 195.016 272.869 194.46C271.892 193.991 271.021 193.33 270.307 192.516C270.367 192.444 271.471 193.356 273.019 194.184C274.567 195.012 275.929 195.456 275.899 195.546Z" fill="white"/>
<path d="M289.2 210.462C288.392 209.152 287.765 207.739 287.334 206.262C288.142 207.572 288.769 208.984 289.2 210.462Z" fill="white"/>
<path d="M210.725 231.27C210.47 230.404 210.313 229.513 210.257 228.612C210.105 227.723 210.053 226.819 210.101 225.918C210.375 226.789 210.543 227.689 210.599 228.6C210.743 229.482 210.785 230.378 210.725 231.27Z" fill="white"/>
<path d="M251.484 230.238C251.512 229.36 251.643 228.488 251.874 227.64C252.01 226.772 252.245 225.922 252.576 225.108C252.549 225.987 252.416 226.859 252.18 227.706C252.049 228.574 251.815 229.424 251.484 230.238Z" fill="white"/>
<path d="M259.295 111.265L264.599 102.001C261.328 96.721 260.15 90.4083 261.298 84.3041C262.446 78.1999 265.835 72.7458 270.801 69.0143C275.766 65.2827 281.948 63.5437 288.13 64.139C294.313 64.7344 300.049 67.621 304.211 72.2315C308.373 76.842 310.66 82.8426 310.621 89.0537C310.583 95.2647 308.223 101.237 304.004 105.796C299.786 110.354 294.014 113.17 287.825 113.689C281.636 114.209 275.476 112.394 270.557 108.601L259.295 111.265Z" fill="#FAFAFA"/>
<path d="M259.295 111.265L270.557 108.697H270.671L270.599 108.601L270.491 108.703C272.069 109.926 273.785 110.961 275.603 111.787C277.771 112.757 280.066 113.412 282.419 113.731C283.723 113.913 285.04 113.979 286.355 113.929C287.033 113.893 287.717 113.875 288.413 113.821L290.513 113.503C296.771 112.276 302.326 108.71 306.047 103.531C308.114 100.666 309.546 97.3932 310.247 93.9309C310.961 90.2679 310.861 86.4927 309.953 82.8728C309.01 79.0988 307.184 75.6029 304.625 72.6728L303.599 71.5028C303.263 71.1248 302.867 70.8188 302.507 70.4708C302.147 70.1228 301.787 69.7748 301.379 69.4868L300.179 68.5988C299.788 68.2967 299.375 68.0239 298.943 67.7828L297.683 67.0148L296.363 66.3728C295.931 66.1471 295.487 65.9468 295.031 65.7728C291.492 64.378 287.684 63.7937 283.889 64.0628C280.311 64.3035 276.829 65.3277 273.689 67.0628C268.03 70.2107 263.799 75.4168 261.875 81.6008C261.105 84.2239 260.74 86.9495 260.795 89.6829C260.857 92.0545 261.261 94.4049 261.995 96.6609C262.614 98.5357 263.45 100.332 264.485 102.013V101.935C261.161 107.893 259.535 110.803 259.277 111.259C259.541 110.809 261.209 107.917 264.611 102.007V101.971V101.935C263.601 100.258 262.792 98.4672 262.199 96.6008C261.469 94.3604 261.065 92.0265 260.999 89.6708C260.96 86.9627 261.33 84.2642 262.097 81.6668C264.023 75.5664 268.212 70.435 273.803 67.3268C276.912 65.5954 280.364 64.571 283.913 64.3268C287.662 64.0626 291.423 64.6429 294.917 66.0248C295.367 66.1987 295.806 66.3991 296.231 66.6248L297.539 67.2608L298.799 68.0408C299.217 68.2808 299.618 68.5494 299.999 68.8448L301.199 69.7268C301.601 70.0148 301.937 70.3748 302.309 70.6988C302.681 71.0228 303.059 71.3468 303.389 71.7188L304.391 72.8168C306.921 75.7189 308.727 79.1796 309.659 82.9149C310.561 86.4887 310.661 90.2177 309.953 93.8349C309.268 97.2603 307.856 100.499 305.813 103.333C302.14 108.46 296.652 111.998 290.465 113.227L288.389 113.551C287.699 113.605 287.021 113.629 286.349 113.665C285.047 113.718 283.742 113.658 282.449 113.485C280.111 113.182 277.828 112.548 275.669 111.601C273.859 110.791 272.149 109.772 270.575 108.565L270.113 108.211L270.467 108.673L270.509 108.553L259.295 111.265Z" fill="#263238"/>
<path d="M292.44 87.9307C292.446 88.4027 292.591 88.8626 292.857 89.2526C293.123 89.6427 293.498 89.9456 293.935 90.1235C294.372 90.3015 294.852 90.3464 295.315 90.2529C295.778 90.1593 296.203 89.9314 296.537 89.5975C296.87 89.2637 297.098 88.8388 297.192 88.3761C297.285 87.9134 297.24 87.4333 297.063 86.996C296.885 86.5587 296.582 86.1836 296.192 85.9176C295.802 85.6516 295.342 85.5066 294.87 85.5007C294.549 85.4966 294.232 85.5568 293.935 85.6774C293.638 85.7981 293.369 85.977 293.142 86.2034C292.916 86.4299 292.737 86.6994 292.616 86.996C292.496 87.2926 292.436 87.6105 292.44 87.9307Z" fill="#263238"/>
<path d="M282.725 87.9305C282.731 88.4038 282.876 88.8649 283.144 89.2556C283.411 89.6463 283.788 89.9492 284.227 90.1263C284.666 90.3033 285.148 90.3466 285.611 90.2507C286.075 90.1547 286.5 89.9238 286.832 89.587C287.165 89.2502 287.39 88.8225 287.481 88.3578C287.571 87.8931 287.522 87.4121 287.339 86.9753C287.157 86.5385 286.849 86.1654 286.455 85.903C286.061 85.6406 285.598 85.5005 285.125 85.5005C284.807 85.5005 284.493 85.5635 284.199 85.686C283.906 85.8085 283.64 85.988 283.417 86.214C283.194 86.4401 283.018 86.7082 282.899 87.0028C282.78 87.2975 282.721 87.6128 282.725 87.9305Z" fill="#263238"/>
<path d="M273.036 86.7189C272.804 87.1306 272.698 87.6017 272.733 88.0729C272.768 88.5442 272.941 88.9948 273.23 89.3682C273.52 89.7416 273.913 90.0211 274.361 90.1718C274.809 90.3225 275.292 90.3376 275.748 90.2152C276.205 90.0928 276.615 89.8384 276.927 89.4839C277.24 89.1293 277.44 88.6904 277.504 88.2222C277.568 87.754 277.493 87.2773 277.287 86.8519C277.081 86.4265 276.754 86.0714 276.348 85.8309C276.073 85.6684 275.768 85.5625 275.452 85.5192C275.135 85.4759 274.813 85.4962 274.505 85.5789C274.197 85.6616 273.908 85.8051 273.655 86.0008C273.403 86.1966 273.192 86.4407 273.036 86.7189Z" fill="#263238"/>
</svg>
