<svg width="86" height="85" viewBox="0 0 86 85" fill="none" xmlns="http://www.w3.org/2000/svg">
<path d="M24.8105 10.7275C26.2708 12.2756 27.7128 13.8032 29.1052 15.2774C25.5577 18.8215 21.89 22.4803 18.123 26.2408C25.2808 33.0898 32.4568 39.9591 39.6303 46.8234C44.2776 42.2557 48.8544 37.7568 53.5227 33.1662C52.7912 32.4864 51.9396 31.6945 51.1402 30.9536C49.9542 32.0535 48.7865 33.0796 47.6998 34.1744C47.2217 34.6582 46.9422 34.7091 46.4485 34.205C45.1527 32.8759 43.8022 31.5952 42.402 30.228C42.7154 29.8843 43.0054 29.538 43.3241 29.2197C45.7118 26.8493 48.1073 24.4891 50.4897 22.1162C50.8267 21.7801 51.0618 21.719 51.4406 22.0856C55.1188 25.6399 58.8048 29.1866 62.5169 32.7104C63.042 33.2094 62.9479 33.487 62.4803 33.9427C55.7092 40.5167 48.9511 47.106 42.1956 53.6978C41.3988 54.4769 40.6334 55.2891 39.8001 56.1395C38.2013 54.6067 36.7254 53.1911 35.2494 51.7755C28.204 45.0131 21.1585 38.2481 14.113 31.4832C12.4751 29.9097 10.845 28.3312 9.20448 26.7602C8.88577 26.4572 8.73426 26.2306 9.13917 25.8411C14.2463 20.889 19.3403 15.9241 24.437 10.9618C24.4944 10.9109 24.5728 10.8778 24.8105 10.7275Z" fill="#012168"/>
<path d="M39.7113 70.0616C38.1099 68.4397 36.7594 67.019 35.3513 65.6543C31.2683 61.6977 27.1643 57.764 23.0681 53.8176C22.4386 53.2116 21.843 52.5674 21.1925 51.9844C20.7432 51.5821 20.8242 51.3046 21.2265 50.9278C22.3811 49.8406 23.5331 48.7432 24.6303 47.6026C25.1267 47.0883 25.4454 47.0679 25.9626 47.5771C28.4339 50.0163 30.9339 52.4274 33.4339 54.8386C35.2834 56.6234 37.1669 58.3725 38.9955 60.1777C39.5206 60.6971 39.8628 60.6614 40.3592 60.1751C43.5593 57.0333 46.775 53.9067 49.9908 50.7801C55.7144 45.2118 61.4381 39.6435 67.1669 34.0803C68.1544 33.1205 68.1387 33.1561 67.112 32.1708C61.2944 26.5923 55.4898 21.0011 49.6251 15.359C49.7871 15.1655 49.9255 14.9745 50.0901 14.8116C51.2709 13.6353 52.4752 12.4794 53.635 11.2827C54.0504 10.855 54.3012 10.9059 54.7061 11.298C61.182 17.5817 67.6737 23.8527 74.1627 30.1237C75.0274 30.9588 75.8947 31.794 76.7803 32.6087C77.1852 32.983 77.2061 33.2503 76.7803 33.6628C70.1005 40.1273 63.4365 46.6071 56.775 53.0894C51.3283 58.3903 45.8895 63.7015 40.4584 69.0177C40.2024 69.2596 40.0431 69.588 39.7113 70.0616Z" fill="#017ABB"/>
<path d="M49.0612 77.239C50.8689 77.239 52.5304 77.239 54.1918 77.2416C54.2989 77.2416 54.4034 77.267 54.6124 77.2925C54.6124 79.0748 54.6176 80.8443 54.602 82.6138C54.602 82.7462 54.4635 82.9092 54.3433 83.0034C51.4463 85.3127 46.6239 85.3279 44.2493 82.983C42.2561 81.0149 41.65 77.8679 42.8804 75.3448C44.1317 72.7783 46.8904 71.3474 49.9337 71.6402C51.5168 71.7904 52.9405 72.2589 54.1814 73.3665C53.5936 74.0666 53.0372 74.7312 52.4938 75.3804C51.7415 75.0189 51.044 74.5351 50.2707 74.3391C47.2352 73.5752 44.6882 76.0475 45.3334 79.0748C46.0257 82.321 49.3721 82.8073 51.4985 81.6641C51.7101 81.5496 51.8747 81.2237 51.9191 80.9716C51.9896 80.5821 51.9374 80.1721 51.9374 79.6756C50.9525 79.6756 50.0278 79.6756 49.0664 79.6756C49.0612 78.8176 49.0612 78.0538 49.0612 77.239Z" fill="#1A334D"/>
<path d="M27.2271 83.4468C27.1984 83.8491 27.1775 84.1368 27.1539 84.4779C26.2605 84.4779 25.388 84.4779 24.4319 84.4779C24.4136 84.2513 24.3797 84.0196 24.377 83.7879C24.3744 79.8975 24.3849 76.0097 24.3614 72.1193C24.3588 71.5031 24.4998 71.2205 25.1895 71.2816C25.8138 71.3376 26.4486 71.2943 27.1827 71.2943C27.1827 72.8958 27.1827 74.3878 27.1827 75.7754C28.0996 75.3884 28.9303 74.8486 29.829 74.6984C31.6681 74.3878 33.4418 75.3782 34.2543 77.0485C35.0798 78.7467 35.0745 80.5111 34.3117 82.2272C33.3713 84.3532 30.1477 85.8961 27.2271 83.4468ZM32.0259 79.6786C32.0207 78.1407 30.9209 76.9135 29.573 76.939C28.1937 76.967 27.133 78.1764 27.1461 79.7066C27.1618 81.219 28.2067 82.38 29.5599 82.3902C30.9601 82.4003 32.0312 81.2215 32.0259 79.6786Z" fill="#1A334D"/>
<path d="M39.0128 15.0462C39.2348 15.0462 39.4595 15.0717 39.6763 15.0411C40.3895 14.9393 40.6611 15.283 40.7604 15.9272C41.3508 19.7616 41.9804 23.5883 42.5446 27.4253C42.5995 27.8072 42.414 28.3266 42.1528 28.6296C41.4605 29.4316 40.6533 30.1419 39.9166 30.9083C39.5326 31.308 39.1904 31.3182 38.7803 30.9618C38.1611 30.4246 37.5629 29.8491 36.8811 29.3985C36.0634 28.8562 35.878 28.1942 35.9877 27.27C36.4213 23.6036 36.7818 19.9296 37.1789 16.2581C37.3069 15.0488 37.3174 15.0488 39.0128 15.0462Z" fill="#1A334D"/>
<path d="M43.9466 4.85393C43.9544 7.41275 41.875 9.46234 39.2783 9.45725C36.6764 9.45216 34.5996 7.41275 34.5918 4.85393C34.5866 2.3104 36.666 0.273532 39.2809 0.260802C41.875 0.248071 43.9387 2.27985 43.9466 4.85393Z" fill="#1A334D"/>
<path d="M16.854 84.727C13.7479 84.7219 11.5118 82.5756 11.5274 79.6145C11.5405 76.7883 13.8759 74.642 16.9402 74.6445C20.0619 74.6471 22.3163 76.7807 22.3059 79.7214C22.2928 82.6163 19.9888 84.7321 16.854 84.727ZM14.3226 79.6909C14.3226 81.2287 15.4302 82.377 16.9114 82.3795C18.4658 82.3821 19.5316 81.2669 19.5185 79.6476C19.5081 78.1098 18.4266 77.0328 16.8775 77.02C15.3545 77.0073 14.3226 78.0868 14.3226 79.6909Z" fill="#1A334D"/>
<path d="M57.1284 74.8691C58.0427 74.8691 58.9152 74.8691 59.8949 74.8691C59.8949 76.3051 59.8949 77.7258 59.8949 79.1466C59.8949 79.6329 59.8714 80.1192 59.9079 80.6029C59.9837 81.5602 60.5584 82.1458 61.4492 82.2197C62.4001 82.2986 63.1342 81.8199 63.2857 80.8448C63.4215 79.9715 63.3902 79.0727 63.4058 78.1841C63.4241 77.1071 63.4111 76.0276 63.4111 74.887C64.3437 74.887 65.2371 74.887 66.1723 74.887C66.1723 78.0747 66.1723 81.2471 66.1723 84.4755C65.2789 84.4755 64.409 84.4755 63.4685 84.4755C63.4372 84.1292 63.4032 83.7728 63.3562 83.261C63.0532 83.5335 62.8494 83.7321 62.6274 83.9128C61.5485 84.804 60.3154 84.9109 59.038 84.4755C57.8729 84.0783 57.2094 83.1388 57.1598 82.016C57.0553 79.6532 57.1284 77.2828 57.1284 74.8691Z" fill="#1A334D"/>
<path d="M76.4342 74.8555C77.4165 74.8555 78.2681 74.8555 79.2477 74.8555C79.2477 75.8459 79.2373 76.8058 79.2503 77.7656C79.2634 78.7357 79.2503 79.7108 79.3366 80.6758C79.428 81.6892 80.068 82.2238 81.0111 82.2162C81.9959 82.206 82.6829 81.6255 82.7221 80.602C82.7848 78.9852 82.7509 77.3634 82.7587 75.744C82.7587 75.4793 82.7587 75.2119 82.7587 74.886C83.6939 74.886 84.5612 74.886 85.499 74.886C85.499 78.0584 85.499 81.2283 85.499 84.4644C84.6396 84.4644 83.7671 84.4644 82.8162 84.4644C82.7822 84.1512 82.7456 83.8177 82.696 83.3696C82.4609 83.558 82.2754 83.6904 82.1056 83.8431C81.0267 84.7954 79.7702 84.9227 78.4614 84.4797C77.1971 84.0519 76.5779 83.0513 76.5231 81.8063C76.4342 79.7847 76.4578 77.7605 76.4316 75.7364C76.4316 75.4691 76.4342 75.2043 76.4342 74.8555Z" fill="#1A334D"/>
<path d="M6.41693 71.8563C7.32341 71.8563 8.14629 71.8334 8.96395 71.8792C9.1024 71.8869 9.33751 72.1848 9.33751 72.3503C9.35319 75.2121 9.41588 78.0789 9.30355 80.9382C9.21473 83.1635 7.49843 84.5995 5.19174 84.6937C3.34222 84.77 1.76176 84.2761 0.5 82.8045C1.08777 82.1679 1.65465 81.5518 2.22936 80.9229C2.70481 81.2488 3.10188 81.5874 3.55643 81.8217C5.10815 82.6186 6.37513 81.9108 6.40125 80.21C6.43783 77.8345 6.4117 75.4565 6.41432 73.0784C6.41693 72.7067 6.41693 72.335 6.41693 71.8563Z" fill="#1A334D"/>
<path d="M68.8125 74.8533C69.7425 74.8533 70.5941 74.8533 71.5372 74.8533C71.5372 75.3727 71.5372 75.8641 71.5372 76.3555C71.498 76.2868 71.4614 76.2206 71.4222 76.1518C71.9055 75.8056 72.3548 75.3982 72.8773 75.1258C73.3919 74.8584 73.9771 74.7235 74.6537 74.4893C74.6537 75.5892 74.6537 76.4905 74.6537 77.4478C74.3167 77.5064 73.964 77.5344 73.6296 77.6286C72.3 78.0028 71.5868 79.09 71.5581 80.7806C71.5398 81.9416 71.5476 83.1001 71.5398 84.2611C71.5398 84.312 71.5084 84.3604 71.4745 84.4699C70.6228 84.4699 69.7503 84.4699 68.8125 84.4699C68.8125 81.2924 68.8125 78.1021 68.8125 74.8533Z" fill="#1A334D"/>
</svg>
