<svg width="28" height="28" viewBox="0 0 28 28" fill="none" xmlns="http://www.w3.org/2000/svg">
<path d="M19.1667 20.3334L25 14.5M25 14.5L19.1667 8.6667M25 14.5H11M14.5 20.3334C14.5 20.6782 14.5 20.8506 14.4872 21C14.354 22.5523 13.2107 23.8297 11.6825 24.1335C11.5355 24.1628 11.364 24.1818 11.0214 24.2199L9.82977 24.3523C8.03956 24.5512 7.14441 24.6507 6.43327 24.4231C5.48509 24.1197 4.71098 23.4268 4.30471 22.5179C4 21.8363 4 20.9356 4 19.1344V9.86568C4 8.06442 4 7.1638 4.30471 6.48214C4.71099 5.57326 5.48509 4.8804 6.43327 4.57698C7.14441 4.34941 8.03953 4.44887 9.82976 4.64778L11.0214 4.78019C11.3641 4.81827 11.5355 4.83731 11.6825 4.86655C13.2107 5.17038 14.354 6.44774 14.4872 8.00008C14.5 8.14944 14.5 8.32186 14.5 8.6667" stroke="white" stroke-width="2" stroke-linecap="round" stroke-linejoin="round"/>
</svg>
