<svg width="100" height="101" viewBox="0 0 100 101" fill="none" xmlns="http://www.w3.org/2000/svg">
<g clip-path="url(#clip0_1124_11509)">
<path fill-rule="evenodd" clip-rule="evenodd" d="M54.9148 12.0033C54.2679 12.0033 53.7335 11.483 53.7335 10.8361C53.7335 9.50014 37.9832 9.41576 37.9832 10.7939C37.9832 12.3408 35.6488 12.3549 35.6348 10.808C35.6348 7.92512 36.7176 5.18289 38.5879 3.31254C40.4302 1.47033 42.9193 0.5 45.8021 0.5C51.4694 0.5 56.082 5.1407 56.082 10.8361C56.082 11.483 55.5616 12.0033 54.9148 12.0033Z" fill="#DCDCDC"/>
<path fill-rule="evenodd" clip-rule="evenodd" d="M79.3421 75.9181H12.2629C11.616 75.9181 11.0957 75.3838 11.0957 74.7369V42.2801C11.0957 23.7736 26.2131 8.64209 44.7197 8.64209H46.8713C56.5464 8.64209 65.7575 12.8468 72.1701 20.1876C72.606 20.6657 80.5093 25.3486 80.5093 53.3194V74.7369C80.5093 75.3838 79.989 75.9181 79.3421 75.9181ZM45.1275 100.5C38.4336 100.5 32.7382 95.7184 31.5851 89.123C31.3179 87.6043 58.9371 87.6183 58.6699 89.1371C57.5167 95.7184 51.8213 100.5 45.1275 100.5Z" fill="#C3C3C4"/>
<path d="M58.8066 36.2053C58.8066 47.3918 67.8996 56.5009 79.1022 56.5009C90.2898 56.5009 99.3978 47.3928 99.3978 36.2053C99.3978 25.0027 90.2888 15.9097 79.1022 15.9097C67.9006 15.9097 58.8066 25.0037 58.8066 36.2053Z" fill="#888888" stroke="white" stroke-width="4"/>
<path fill-rule="evenodd" clip-rule="evenodd" d="M80.734 90.1076H10.8704C6.31412 90.1076 2.60156 86.395 2.60156 81.8387C2.60156 77.2824 6.31412 73.5698 10.8704 73.5698H80.734C85.2903 73.5698 89.0029 77.2824 89.0029 81.8387C89.0029 86.395 85.2903 90.1076 80.734 90.1076Z" fill="#DCDCDC"/>
<path fill-rule="evenodd" clip-rule="evenodd" d="M11.0947 42.281V73.5705H15.0464C15.0464 73.5283 15.0323 73.4721 15.0323 73.4299V40.9731C15.0323 26.8682 23.8074 14.7462 36.1686 9.75391C21.7683 13.5649 11.0947 26.7135 11.0947 42.281ZM31.795 90.1083C33.9888 98.9397 43.9734 103.102 51.7922 98.785C44.6203 101.148 36.8295 97.2943 34.4388 90.1083H31.795Z" fill="#BABABA"/>
<path d="M79.0066 45.3762C77.7429 45.3708 76.6632 45.0376 75.7674 44.3764C74.8716 43.7152 74.1864 42.7528 73.7118 41.489C73.2373 40.2253 73 38.703 73 36.9221C73 35.1465 73.2373 33.6295 73.7118 32.3711C74.1917 31.1127 74.8796 30.153 75.7754 29.4918C76.6765 28.8306 77.7536 28.5 79.0066 28.5C80.2597 28.5 81.3341 28.8333 82.2299 29.4998C83.1257 30.161 83.8109 31.1207 84.2854 32.3791C84.7653 33.6322 85.0053 35.1465 85.0053 36.9221C85.0053 38.7083 84.768 40.2333 84.2934 41.497C83.8189 42.7554 83.1337 43.7179 82.2379 44.3844C81.3421 45.0456 80.265 45.3762 79.0066 45.3762ZM79.0066 43.2406C80.1157 43.2406 80.9822 42.6994 81.606 41.617C82.2352 40.5346 82.5498 38.9696 82.5498 36.9221C82.5498 35.5624 82.4059 34.4133 82.1179 33.4749C81.8353 32.5311 81.4274 31.8166 80.8942 31.3314C80.3663 30.8408 79.7371 30.5955 79.0066 30.5955C77.9029 30.5955 77.0364 31.1394 76.4072 32.2272C75.778 33.3149 75.4608 34.8799 75.4554 36.9221C75.4554 38.2871 75.5967 39.4415 75.8793 40.3853C76.1673 41.3238 76.5752 42.0356 77.1031 42.5208C77.6309 43.0007 78.2655 43.2406 79.0066 43.2406Z" fill="white"/>
</g>
<defs>
<clipPath id="clip0_1124_11509">
<rect width="100" height="100" fill="white" transform="translate(0 0.5)"/>
</clipPath>
</defs>
</svg>
