<svg width="450" height="300" viewBox="0 0 450 300" fill="none" xmlns="http://www.w3.org/2000/svg">
<path d="M351.39 121.578H436.884L422.958 131.628V151.428C422.958 152.523 422.523 153.573 421.749 154.347C420.975 155.121 419.925 155.556 418.83 155.556H351.39C350.295 155.556 349.245 155.121 348.471 154.347C347.697 153.573 347.262 152.523 347.262 151.428V125.706C347.262 124.611 347.697 123.561 348.471 122.787C349.245 122.013 350.295 121.578 351.39 121.578Z" fill="#F5F5F5"/>
<path d="M354.953 135.551C354.953 135.635 367.847 135.701 383.753 135.701C399.659 135.701 412.553 135.635 412.553 135.551C412.553 135.467 399.659 135.401 383.753 135.401C367.847 135.401 354.953 135.467 354.953 135.551Z" fill="#E0E0E0"/>
<path d="M354.953 143.142C354.953 143.226 367.847 143.292 383.753 143.292C399.659 143.292 412.553 143.226 412.553 143.142C412.553 143.058 399.659 142.992 383.753 142.992C367.847 142.992 354.953 143.064 354.953 143.142Z" fill="#E0E0E0"/>
<path d="M221.545 48.6182H217.543V62.0222H221.545V48.6182Z" fill="#E0E0E0"/>
<path d="M188.123 46.6797H184.121V62.0217H188.123V46.6797Z" fill="#E0E0E0"/>
<path d="M196.482 43.4814H192.48V62.0214H196.482V43.4814Z" fill="#E0E0E0"/>
<path d="M204.834 44.4961H200.832V62.0221H204.834V44.4961Z" fill="#E0E0E0"/>
<path d="M213.186 38.5684H209.184V62.0224H213.186V38.5684Z" fill="#E0E0E0"/>
<path d="M229.897 38.6816H225.895V62.0216H229.897V38.6816Z" fill="#E0E0E0"/>
<path d="M238.256 46.3496H234.254V62.0216H238.256V46.3496Z" fill="#E0E0E0"/>
<path d="M246.607 39.708H242.605V62.022H246.607V39.708Z" fill="#E0E0E0"/>
<path d="M254.963 34.6855H250.961V62.0215H254.963V34.6855Z" fill="#E0E0E0"/>
<path d="M263.314 39.5938H259.312V62.0218H263.314V39.5938Z" fill="#E0E0E0"/>
<path d="M368.735 60.7797L401.819 55.7217C402.88 62.6376 401.747 69.712 398.58 75.951C395.414 82.1901 390.372 87.2802 384.163 90.5062C377.954 93.7323 370.891 94.9321 363.965 93.9372C357.04 92.9423 350.6 89.8026 345.55 84.9593C340.501 80.116 337.096 73.8124 335.813 66.9342C334.531 60.056 335.435 52.9489 338.4 46.6113C341.365 40.2737 346.241 35.0241 352.342 31.6002C358.444 28.1762 365.465 26.7499 372.419 27.5217L368.735 60.7797Z" fill="#EBEBEB"/>
<path d="M379.471 27.5996L375.457 53.2436L400.657 48.5156C400.657 48.5156 396.931 34.1636 379.471 27.5996Z" fill="#E0E0E0"/>
<path d="M30.888 122.999C30.8481 119.758 31.7695 116.577 33.5359 113.859C35.3022 111.141 37.8344 109.007 40.8126 107.727C43.7908 106.447 47.0816 106.078 50.2694 106.666C53.4572 107.255 56.3991 108.775 58.7238 111.034C61.0484 113.294 62.6515 116.191 63.3307 119.361C64.0098 122.531 63.7346 125.831 62.5397 128.844C61.3449 131.857 59.2839 134.449 56.6171 136.292C53.9503 138.135 50.7972 139.147 47.556 139.199C43.1996 139.254 38.9992 137.58 35.875 134.543C32.7508 131.507 30.9575 127.356 30.888 122.999ZM55.134 122.603C55.1007 121.055 54.6098 119.552 53.7234 118.282C52.837 117.013 51.5945 116.034 50.1528 115.47C48.711 114.905 47.1344 114.78 45.6217 115.11C44.1089 115.441 42.7278 116.211 41.6523 117.325C40.5768 118.439 39.8551 119.846 39.5782 121.37C39.3013 122.893 39.4815 124.464 40.0962 125.885C40.7109 127.306 41.7325 128.514 43.0322 129.355C44.332 130.197 45.8518 130.634 47.4 130.613C48.434 130.596 49.4545 130.375 50.4031 129.963C51.3517 129.551 52.2097 128.956 52.928 128.212C53.6464 127.468 54.211 126.59 54.5895 125.627C54.968 124.665 55.153 123.637 55.134 122.603Z" fill="#F5F5F5"/>
<path d="M30.8892 123C30.8137 118.64 32.4706 114.429 35.4964 111.289C38.5222 108.15 42.6698 106.339 47.0292 106.254L47.1672 114.852C45.1095 114.93 43.1641 115.811 41.7471 117.305C40.33 118.799 39.5538 120.788 39.5844 122.847C39.6149 124.906 40.4499 126.872 41.9106 128.323C43.3714 129.774 45.342 130.597 47.4012 130.614L47.5572 139.2C43.2004 139.256 38.9991 137.582 35.8745 134.545C32.7499 131.509 30.9571 127.357 30.8892 123Z" fill="#E0E0E0"/>
<path d="M45.5586 104.928C48.0522 104.869 50.5326 105.308 52.8545 106.219C55.1765 107.13 57.2933 108.496 59.0812 110.235C60.8691 111.974 62.2921 114.053 63.267 116.349C64.2418 118.644 64.7489 121.112 64.7586 123.606L54.7386 123.762C54.6606 118.68 50.7906 115.482 45.7386 115.566L45.5586 104.928Z" fill="#EBEBEB"/>
<path d="M137.473 180.863H116.617V205.655H137.473V180.863Z" fill="#F5F5F5"/>
<path d="M117.344 179.244H23.1016V207.21H117.344V179.244Z" fill="#E0E0E0"/>
<path d="M138.101 181.596H114.809V179.244H138.101C138.419 179.244 138.724 179.371 138.949 179.596C139.174 179.821 139.301 180.126 139.301 180.444C139.288 180.754 139.156 181.047 138.933 181.262C138.709 181.477 138.411 181.596 138.101 181.596Z" fill="#E0E0E0"/>
<path d="M138.101 207.209H114.809V204.857H138.101C138.419 204.857 138.724 204.984 138.949 205.209C139.174 205.434 139.301 205.739 139.301 206.057C139.288 206.367 139.156 206.66 138.933 206.875C138.709 207.09 138.411 207.21 138.101 207.209Z" fill="#E0E0E0"/>
<path d="M109.933 179.244H98.7969V207.21H109.933V179.244Z" fill="#EBEBEB"/>
<path d="M43.1946 179.556H32.0586V207.522H43.1946V179.556Z" fill="#EBEBEB"/>
<path d="M137.472 184.962C137.472 185.034 132.961 185.088 127.393 185.088C121.825 185.088 117.312 185.034 117.312 184.962C117.312 184.89 121.825 184.836 127.393 184.836C132.961 184.836 137.472 184.896 137.472 184.962Z" fill="#E0E0E0"/>
<path d="M137.472 188.682C137.472 188.748 132.961 188.802 127.393 188.802C121.825 188.802 117.312 188.748 117.312 188.682C117.312 188.616 121.825 188.556 127.393 188.556C132.961 188.556 137.472 188.61 137.472 188.682Z" fill="#E0E0E0"/>
<path d="M137.472 193.26C137.472 193.326 132.961 193.38 127.393 193.38C121.825 193.38 117.312 193.326 117.312 193.26C117.312 193.194 121.825 193.134 127.393 193.134C132.961 193.134 137.472 193.2 137.472 193.26Z" fill="#E0E0E0"/>
<path d="M137.472 197.832C137.472 197.904 132.961 197.958 127.393 197.958C121.825 197.958 117.312 197.904 117.312 197.832C117.312 197.76 121.825 197.712 127.393 197.712C132.961 197.712 137.472 197.766 137.472 197.832Z" fill="#E0E0E0"/>
<path d="M137.472 202.409C137.472 202.481 132.961 202.535 127.393 202.535C121.825 202.535 117.312 202.481 117.312 202.409C117.312 202.337 121.825 202.289 127.393 202.289C132.961 202.289 137.472 202.343 137.472 202.409Z" fill="#E0E0E0"/>
<path d="M92.8101 190.739H50.4141V195.773H92.8101V190.739Z" fill="#EBEBEB"/>
<path d="M137.26 207.762H116.086V222.87H137.26V207.762Z" fill="#FAFAFA"/>
<path d="M116.327 207.21H26.2188V223.41H116.327V207.21Z" fill="#F5F5F5"/>
<path d="M115.668 208.308H138.426C138.498 208.308 138.569 208.294 138.635 208.266C138.701 208.239 138.761 208.199 138.812 208.148C138.863 208.097 138.903 208.037 138.93 207.971C138.958 207.905 138.972 207.834 138.972 207.762C138.972 207.617 138.915 207.477 138.812 207.374C138.71 207.27 138.571 207.212 138.426 207.21H115.668V208.308Z" fill="#F5F5F5"/>
<path d="M115.668 222.318H138.72C138.787 222.318 138.851 222.345 138.898 222.392C138.945 222.439 138.972 222.504 138.972 222.57V223.17C138.972 223.237 138.945 223.301 138.898 223.349C138.851 223.396 138.787 223.422 138.72 223.422H115.668V222.324V222.318Z" fill="#F5F5F5"/>
<path d="M137.26 210.63C137.26 210.696 132.568 210.756 126.79 210.756C121.012 210.756 116.32 210.696 116.32 210.63C116.32 210.564 121.006 210.504 126.79 210.504C132.574 210.504 137.26 210.564 137.26 210.63Z" fill="#E0E0E0"/>
<path d="M137.26 213.485C137.26 213.557 132.568 213.611 126.79 213.611C121.012 213.611 116.32 213.557 116.32 213.485C116.32 213.413 121.006 213.365 126.79 213.365C132.574 213.365 137.26 213.419 137.26 213.485Z" fill="#E0E0E0"/>
<path d="M137.26 216.348C137.26 216.414 132.568 216.468 126.79 216.468C121.012 216.468 116.32 216.414 116.32 216.348C116.32 216.282 121.006 216.222 126.79 216.222C132.574 216.222 137.26 216.276 137.26 216.348Z" fill="#E0E0E0"/>
<path d="M137.26 219.204C137.26 219.27 132.568 219.324 126.79 219.324C121.012 219.324 116.32 219.27 116.32 219.204C116.32 219.138 121.006 219.078 126.79 219.078C132.574 219.078 137.26 219.132 137.26 219.204Z" fill="#E0E0E0"/>
<path d="M140.471 224.855H118.859V265.805H140.471V224.855Z" fill="#EBEBEB"/>
<path d="M118.86 223.415H17.418V267.815H118.86V223.415Z" fill="#E0E0E0"/>
<path d="M142.162 267.81H116.086V264.93H142.162C142.543 264.931 142.909 265.083 143.178 265.353C143.448 265.623 143.6 265.988 143.602 266.37C143.602 266.559 143.565 266.746 143.492 266.921C143.42 267.095 143.314 267.254 143.18 267.388C143.046 267.522 142.888 267.628 142.713 267.7C142.538 267.772 142.351 267.81 142.162 267.81Z" fill="#E0E0E0"/>
<path d="M116.086 223.415H142.942C143.029 223.415 143.114 223.432 143.195 223.465C143.275 223.498 143.347 223.547 143.409 223.608C143.47 223.67 143.519 223.742 143.552 223.822C143.585 223.903 143.602 223.988 143.602 224.075V225.635C143.602 225.81 143.532 225.978 143.409 226.102C143.285 226.226 143.117 226.295 142.942 226.295H116.086V223.415Z" fill="#E0E0E0"/>
<path d="M140.471 230.34C140.471 230.412 135.635 230.466 129.671 230.466C123.707 230.466 118.871 230.412 118.871 230.34C118.871 230.268 123.707 230.22 129.671 230.22C135.635 230.22 140.471 230.274 140.471 230.34Z" fill="#E0E0E0"/>
<path d="M140.471 235.596C140.471 235.662 135.635 235.716 129.671 235.716C123.707 235.716 118.871 235.662 118.871 235.596C118.871 235.53 123.707 235.47 129.671 235.47C135.635 235.47 140.471 235.524 140.471 235.596Z" fill="#E0E0E0"/>
<path d="M140.471 240.846C140.471 240.912 135.635 240.972 129.671 240.972C123.707 240.972 118.871 240.912 118.871 240.846C118.871 240.78 123.707 240.72 129.671 240.72C135.635 240.72 140.471 240.78 140.471 240.846Z" fill="#E0E0E0"/>
<path d="M140.471 246.096C140.471 246.168 135.635 246.222 129.671 246.222C123.707 246.222 118.871 246.168 118.871 246.096C118.871 246.024 123.707 245.976 129.671 245.976C135.635 245.976 140.471 246.03 140.471 246.096Z" fill="#E0E0E0"/>
<path d="M140.471 251.352C140.471 251.418 135.635 251.472 129.671 251.472C123.707 251.472 118.871 251.418 118.871 251.352C118.871 251.286 123.707 251.226 129.671 251.226C135.635 251.226 140.471 251.28 140.471 251.352Z" fill="#E0E0E0"/>
<path d="M140.471 256.602C140.471 256.668 135.635 256.728 129.671 256.728C123.707 256.728 118.871 256.668 118.871 256.602C118.871 256.536 123.707 256.476 129.671 256.476C135.635 256.476 140.471 256.536 140.471 256.602Z" fill="#E0E0E0"/>
<path d="M140.471 261.851C140.471 261.923 135.635 261.977 129.671 261.977C123.707 261.977 118.871 261.923 118.871 261.851C118.871 261.779 123.707 261.731 129.671 261.731C135.635 261.731 140.471 261.785 140.471 261.851Z" fill="#E0E0E0"/>
<path d="M52.1261 248.039V250.511C52.1261 253.511 50.6381 255.185 47.7701 255.185C44.9021 255.185 43.4141 253.487 43.4141 250.511V240.845C43.4141 237.845 44.9021 236.165 47.7701 236.165C50.6381 236.165 52.1261 237.869 52.1261 240.845V242.645H49.3661V240.659C49.3661 239.327 48.7661 238.823 47.8541 238.823C46.9421 238.823 46.3361 239.327 46.3361 240.659V250.697C46.3361 252.029 46.9361 252.497 47.8541 252.497C48.7721 252.497 49.3661 252.023 49.3661 250.697V248.039H52.1261Z" fill="#EBEBEB"/>
<path d="M53.6719 240.845C53.6719 237.845 55.2379 236.165 58.1059 236.165C60.9739 236.165 62.5399 237.869 62.5399 240.845V250.511C62.5399 253.511 60.9739 255.185 58.1059 255.185C55.2379 255.185 53.6719 253.487 53.6719 250.511V240.845ZM56.5939 250.697C56.5939 252.029 57.1939 252.533 58.1059 252.533C59.0179 252.533 59.6179 252.029 59.6179 250.697V240.659C59.6179 239.327 59.0179 238.823 58.1059 238.823C57.1939 238.823 56.5939 239.327 56.5939 240.659V250.697Z" fill="#EBEBEB"/>
<path d="M64.4219 236.399H67.3439V252.335H72.1439V254.999H64.4219V236.399Z" fill="#EBEBEB"/>
<path d="M73.1992 240.845C73.1992 237.845 74.7652 236.165 77.6332 236.165C80.5012 236.165 82.0732 237.869 82.0732 240.845V250.511C82.0732 253.511 80.5072 255.185 77.6332 255.185C74.7592 255.185 73.1992 253.487 73.1992 250.511V240.845ZM76.1212 250.697C76.1212 252.029 76.7212 252.533 77.6332 252.533C78.5452 252.533 79.1512 252.029 79.1512 250.697V240.659C79.1512 239.327 78.5512 238.823 77.6332 238.823C76.7152 238.823 76.1212 239.327 76.1212 240.659V250.697Z" fill="#EBEBEB"/>
<path d="M86.7345 236.399V250.745C86.7345 252.071 87.3345 252.545 88.2465 252.545C89.1585 252.545 89.7585 252.065 89.7585 250.745V236.399H92.5245V250.559C92.5245 253.529 91.0365 255.233 88.1685 255.233C85.3005 255.233 83.8125 253.529 83.8125 250.559V236.399H86.7345Z" fill="#EBEBEB"/>
<path d="M100.626 254.999C100.379 254.264 100.287 253.486 100.356 252.713V249.791C100.356 248.063 99.7557 247.427 98.4477 247.427H97.4337V254.999H94.5117V236.399H98.9217C101.922 236.399 103.254 237.809 103.254 240.677V242.135C103.254 244.049 102.654 245.297 101.34 245.909C102.804 246.509 103.278 247.925 103.278 249.863V252.737C103.225 253.504 103.336 254.273 103.602 254.993L100.626 254.999ZM97.4337 239.063V244.769H98.5797C99.6657 244.769 100.332 244.295 100.332 242.807V240.971C100.332 239.645 99.8817 239.063 98.8437 239.063H97.4337Z" fill="#EBEBEB"/>
<path d="M51.4972 213.6H49.3672L49.4812 213.048H54.3712L54.2512 213.6H52.1272L51.0292 219.084H50.3992L51.4972 213.6Z" fill="#E0E0E0"/>
<path d="M58.4753 214.541L55.1633 219.665C54.5993 220.529 54.1793 220.799 53.5253 220.799C53.3275 220.808 53.1299 220.777 52.9443 220.708C52.7587 220.639 52.589 220.533 52.4453 220.397L52.7693 219.947C52.8734 220.055 52.9985 220.139 53.1369 220.196C53.2752 220.253 53.4238 220.28 53.5733 220.277C53.9633 220.277 54.2633 220.091 54.6173 219.539L54.9353 219.059L53.8073 214.547H54.4073L55.3673 218.399L57.8453 214.535L58.4753 214.541Z" fill="#E0E0E0"/>
<path d="M63.5175 216.419C63.5371 216.768 63.4852 217.117 63.3648 217.444C63.2445 217.772 63.0582 218.072 62.8176 218.325C62.577 218.578 62.2871 218.779 61.9658 218.915C61.6445 219.052 61.2986 219.121 60.9495 219.119C60.594 219.156 60.2359 219.081 59.9258 218.903C59.6157 218.725 59.3693 218.455 59.2215 218.129L58.7055 220.751H58.1055L59.3415 214.541H59.9415L59.7975 215.267C60.0228 215.015 60.301 214.816 60.6122 214.685C60.9234 214.553 61.2598 214.492 61.5975 214.505C61.8525 214.492 62.1074 214.533 62.3457 214.625C62.5841 214.716 62.8006 214.857 62.9815 215.037C63.1623 215.217 63.3034 215.433 63.3957 215.671C63.488 215.909 63.5295 216.164 63.5175 216.419ZM62.9175 216.455C62.9314 216.259 62.9017 216.062 62.8303 215.878C62.759 215.695 62.648 215.53 62.5051 215.394C62.3622 215.259 62.1911 215.157 62.0041 215.095C61.8171 215.034 61.6188 215.015 61.4235 215.039C61.1481 215.039 60.8757 215.096 60.6236 215.207C60.3716 215.318 60.1455 215.48 59.9597 215.684C59.7739 215.887 59.6326 216.127 59.5447 216.388C59.4569 216.649 59.4244 216.925 59.4495 217.199C59.4342 217.396 59.4632 217.593 59.5341 217.777C59.6051 217.961 59.7163 218.126 59.8595 218.261C60.0028 218.396 60.1745 218.498 60.3621 218.558C60.5496 218.618 60.7483 218.636 60.9435 218.609C61.2168 218.607 61.4867 218.548 61.7361 218.437C61.9856 218.325 62.2092 218.163 62.393 217.96C62.5767 217.758 62.7166 217.52 62.8037 217.261C62.8909 217.002 62.9235 216.728 62.8995 216.455H62.9175Z" fill="#E0E0E0"/>
<path d="M64.2294 217.199C64.2129 216.847 64.2689 216.496 64.3938 216.166C64.5188 215.837 64.7102 215.536 64.956 215.284C65.2018 215.031 65.4969 214.832 65.8229 214.698C66.149 214.564 66.499 214.498 66.8514 214.505C68.1114 214.505 68.9154 215.249 68.9154 216.419C68.9318 216.772 68.8759 217.124 68.751 217.454C68.626 217.783 68.4348 218.084 68.1891 218.337C67.9433 218.59 67.6483 218.79 67.3223 218.925C66.9962 219.059 66.646 219.126 66.2934 219.119C66.0276 219.148 65.7588 219.119 65.5052 219.035C65.2516 218.95 65.019 218.812 64.8233 218.63C64.6276 218.448 64.4733 218.226 64.3708 217.979C64.2684 217.733 64.2201 217.467 64.2294 217.199ZM68.3034 216.455C68.3173 216.259 68.2876 216.062 68.2163 215.879C68.145 215.695 68.0339 215.53 67.891 215.394C67.7482 215.259 67.5771 215.157 67.39 215.095C67.203 215.034 67.0047 215.015 66.8094 215.039C66.538 215.043 66.2703 215.102 66.0224 215.212C65.7745 215.322 65.5517 215.482 65.3675 215.681C65.1834 215.881 65.0417 216.115 64.9513 216.371C64.8608 216.627 64.8234 216.899 64.8414 217.169C64.8273 217.366 64.857 217.562 64.9283 217.746C64.9996 217.929 65.1108 218.094 65.2538 218.229C65.3969 218.364 65.5681 218.465 65.7551 218.526C65.9422 218.587 66.1404 218.605 66.3354 218.579C66.6067 218.578 66.8748 218.52 67.1231 218.411C67.3713 218.301 67.5946 218.142 67.779 217.943C67.9634 217.744 68.1051 217.509 68.1952 217.254C68.2854 216.998 68.3222 216.726 68.3034 216.455Z" fill="#E0E0E0"/>
<path d="M74.7839 214.541L73.9919 218.525C73.6739 220.133 72.8279 220.793 71.3519 220.793C70.6182 220.832 69.8974 220.589 69.3359 220.115L69.6959 219.647C70.1641 220.062 70.7755 220.277 71.3999 220.247C71.6356 220.27 71.8733 220.245 72.0995 220.176C72.3257 220.106 72.5359 219.992 72.7182 219.841C72.9004 219.69 73.0511 219.505 73.1616 219.295C73.272 219.086 73.3401 218.857 73.3619 218.621L73.4699 218.123C73.2437 218.375 72.9656 218.574 72.6549 218.708C72.3441 218.841 72.0081 218.906 71.6699 218.897C70.4699 218.897 69.6659 218.201 69.6659 217.097C69.6568 216.756 69.7175 216.416 69.8444 216.099C69.9712 215.782 70.1616 215.494 70.4037 215.253C70.6459 215.012 70.9347 214.823 71.2526 214.697C71.5704 214.572 71.9104 214.513 72.2519 214.523C72.6189 214.486 72.9881 214.567 73.3062 214.754C73.6244 214.94 73.875 215.223 74.0219 215.561L74.2139 214.559L74.7839 214.541ZM73.7519 216.341C73.7519 215.513 73.1939 215.021 72.2519 215.021C71.9883 215.015 71.7261 215.062 71.4815 215.161C71.237 215.259 71.0153 215.407 70.8302 215.595C70.6451 215.783 70.5006 216.007 70.4056 216.253C70.3106 216.499 70.2672 216.762 70.2779 217.025C70.2779 217.853 70.8299 218.345 71.7779 218.345C72.04 218.352 72.3007 218.305 72.544 218.208C72.7873 218.11 73.0081 217.964 73.1929 217.778C73.3777 217.592 73.5226 217.37 73.6187 217.126C73.7149 216.882 73.7602 216.621 73.7519 216.359V216.341Z" fill="#E0E0E0"/>
<path d="M78.7855 214.506L78.6715 215.106H78.5035C77.5375 215.106 76.8895 215.658 76.6615 216.786L76.2055 219.09H75.6055L76.5055 214.554H77.1055L76.9195 215.4C77.1239 215.099 77.4042 214.858 77.732 214.701C78.0597 214.544 78.4232 214.477 78.7855 214.506Z" fill="#E0E0E0"/>
<path d="M84.0004 214.542L83.0944 219.078H82.4944L82.6383 218.364C82.4157 218.609 82.1429 218.803 81.8386 218.933C81.5342 219.064 81.2054 219.127 80.8743 219.12C80.614 219.141 80.3519 219.107 80.1059 219.019C79.8598 218.931 79.6355 218.792 79.4479 218.61C79.2603 218.428 79.1138 218.208 79.0183 217.965C78.9229 217.721 78.8806 217.46 78.8944 217.2C78.8756 216.852 78.928 216.504 79.0483 216.178C79.1687 215.851 79.3546 215.552 79.5944 215.3C79.8343 215.048 80.1232 214.847 80.4434 214.711C80.7636 214.574 81.1082 214.504 81.4563 214.506C81.8111 214.468 82.1688 214.543 82.4788 214.719C82.7888 214.896 83.0356 215.165 83.1844 215.49L83.3764 214.542H84.0004ZM82.9804 216.456C82.9943 216.259 82.9645 216.062 82.8932 215.879C82.8219 215.695 82.7108 215.53 82.568 215.394C82.4251 215.259 82.254 215.157 82.067 215.096C81.88 215.034 81.6817 215.015 81.4863 215.04C81.2153 215.043 80.9477 215.102 80.7001 215.212C80.4525 215.323 80.2301 215.482 80.0464 215.682C79.8627 215.881 79.7217 216.116 79.6319 216.372C79.5421 216.628 79.5055 216.899 79.5243 217.17C79.5096 217.364 79.5382 217.56 79.6082 217.742C79.6781 217.924 79.7876 218.089 79.9288 218.224C80.07 218.359 80.2393 218.46 80.4246 218.522C80.6099 218.584 80.8065 218.603 81.0004 218.58C81.2717 218.578 81.5397 218.52 81.788 218.411C82.0363 218.302 82.2595 218.142 82.4439 217.943C82.6284 217.744 82.77 217.51 82.8602 217.254C82.9504 216.998 82.9872 216.726 82.9684 216.456H82.9804Z" fill="#E0E0E0"/>
<path d="M89.8729 216.419C89.8926 216.768 89.8407 217.117 89.7203 217.445C89.5999 217.772 89.4137 218.072 89.1731 218.325C88.9324 218.578 88.6425 218.779 88.3212 218.916C88 219.052 87.6541 219.122 87.3049 219.119C86.9495 219.156 86.5914 219.081 86.2813 218.903C85.9712 218.725 85.7248 218.455 85.5769 218.129L85.0609 220.751H84.4609L85.6909 214.541H86.2909L86.1469 215.267C86.3678 215.02 86.6401 214.823 86.9447 214.692C87.2494 214.56 87.5792 214.496 87.9109 214.505C88.1691 214.487 88.4282 214.524 88.6712 214.613C88.9142 214.702 89.1356 214.842 89.3209 215.023C89.5061 215.203 89.6511 215.421 89.7462 215.662C89.8414 215.903 89.8846 216.161 89.8729 216.419ZM89.2729 216.455C89.2869 216.259 89.2571 216.062 89.1858 215.879C89.1145 215.695 89.0034 215.53 88.8606 215.394C88.7177 215.259 88.5466 215.157 88.3596 215.096C88.1726 215.034 87.9743 215.015 87.7789 215.039C87.5031 215.038 87.23 215.095 86.9772 215.205C86.7245 215.316 86.4976 215.478 86.3112 215.681C86.1248 215.885 85.9829 216.125 85.8947 216.386C85.8065 216.648 85.7739 216.925 85.7989 217.199C85.7839 217.395 85.8127 217.592 85.8833 217.775C85.9539 217.959 86.0645 218.124 86.2071 218.259C86.3497 218.394 86.5206 218.495 86.7074 218.556C86.8942 218.617 87.0922 218.635 87.2869 218.609C87.5613 218.609 87.8325 218.551 88.0833 218.44C88.3342 218.329 88.5593 218.167 88.7444 217.965C88.9294 217.762 89.0703 217.524 89.1582 217.264C89.2461 217.004 89.279 216.729 89.2549 216.455H89.2729Z" fill="#E0E0E0"/>
<path d="M95.3647 216C95.3658 216.174 95.3497 216.346 95.3167 216.516L94.8007 219.096H94.2007L94.7227 216.51C94.7474 216.374 94.7614 216.235 94.7647 216.096C94.7647 215.448 94.3747 215.076 93.5647 215.076C93.1123 215.054 92.6686 215.207 92.3257 215.503C91.9828 215.799 91.7669 216.215 91.7227 216.666L91.2367 219.096H90.6367L91.9147 212.694H92.5147L92.0047 215.238C92.2247 215.001 92.4937 214.814 92.7931 214.69C93.0925 214.567 93.4152 214.51 93.7387 214.524C94.8007 214.506 95.3647 215.058 95.3647 216Z" fill="#E0E0E0"/>
<path d="M101.1 214.542L97.8 219.666C97.236 220.53 96.816 220.794 96.162 220.794C95.9642 220.803 95.7666 220.772 95.581 220.703C95.3954 220.634 95.2257 220.528 95.082 220.392L95.412 219.942C95.5145 220.05 95.6385 220.135 95.776 220.192C95.9134 220.249 96.0613 220.276 96.21 220.272C96.6 220.272 96.9 220.086 97.254 219.534L97.578 219.054L96.444 214.542H97.044L97.98 218.406L100.458 214.542H101.1Z" fill="#E0E0E0"/>
<path d="M114.768 28.0742H22.7344L37.7344 38.8742V60.1562C37.7336 60.7403 37.848 61.3188 38.0712 61.8586C38.2944 62.3984 38.6218 62.8888 39.0348 63.3018C39.4478 63.7148 39.9383 64.0423 40.478 64.2654C41.0178 64.4886 41.5963 64.603 42.1804 64.6022H114.78C115.96 64.6022 117.09 64.1338 117.924 63.3C118.758 62.4662 119.226 61.3354 119.226 60.1562V32.5202C119.226 31.9354 119.111 31.3562 118.887 30.816C118.663 30.2759 118.334 29.7852 117.92 29.3722C117.506 28.9592 117.014 28.6319 116.473 28.4092C115.933 28.1865 115.353 28.0727 114.768 28.0742Z" fill="#F5F5F5"/>
<path d="M110.928 43.1161C110.928 43.2061 97.0497 43.2781 79.9317 43.2781C62.8137 43.2781 48.9297 43.2001 48.9297 43.1161C48.9297 43.0321 62.8077 42.9541 79.9317 42.9541C97.0557 42.9541 110.928 43.0261 110.928 43.1161Z" fill="#E0E0E0"/>
<path d="M110.928 51.288C110.928 51.378 97.0497 51.45 79.9317 51.45C62.8137 51.45 48.9297 51.378 48.9297 51.288C48.9297 51.198 62.8077 51.126 79.9317 51.126C97.0557 51.126 110.928 51.198 110.928 51.288Z" fill="#E0E0E0"/>
<path d="M433.961 267.809C433.961 267.899 339.857 267.965 223.811 267.965C107.765 267.965 13.6367 267.899 13.6367 267.809C13.6367 267.719 107.717 267.653 223.811 267.653C339.905 267.653 433.961 267.725 433.961 267.809Z" fill="#263238"/>
<path d="M394.471 237.187C394.471 237.187 378.565 218.887 372.565 200.587C366.565 182.287 369.415 184.387 369.415 184.387C369.415 184.387 377.515 202.171 383.665 210.757C389.815 219.343 400.801 231.937 400.801 231.937L394.471 237.187Z" fill="#747474"/>
<path d="M397.638 187.2C397.533 187.008 397.364 186.859 397.159 186.78C396.955 186.701 396.729 186.697 396.522 186.769C396.315 186.841 396.141 186.985 396.03 187.173C395.919 187.362 395.878 187.584 395.916 187.8C396.882 194.232 398.982 209.322 398.916 219.108C398.808 231.822 398.916 236.736 398.916 236.736H405.516C405.516 236.736 404.316 210.456 402.846 202.44C401.802 196.836 399.6 190.596 397.638 187.2Z" fill="#747474"/>
<path d="M401.25 234.6C404.023 228.315 405.859 221.656 406.698 214.836C407.244 210.156 406.266 203.832 404.82 195.39C404.264 192.304 403.985 189.173 403.986 186.036C403.988 185.687 404.107 185.347 404.323 185.072C404.539 184.797 404.84 184.601 405.18 184.516C405.519 184.431 405.877 184.461 406.198 184.602C406.518 184.742 406.783 184.985 406.95 185.292C407.748 186.72 410.064 191.592 410.652 194.64C412.254 202.974 414.066 207.144 412.68 215.04C411.294 222.936 406.164 235.128 406.164 235.128L401.25 234.6Z" fill="#747474"/>
<path d="M407.207 235.146C407.207 235.146 424.673 197.616 425.885 192.048C427.097 186.48 431.207 173.652 431.693 174.378C432.179 175.104 432.893 181.884 429.755 189.63C426.617 197.376 413.171 236.286 413.171 236.286H407.207" fill="#747474"/>
<path d="M399.337 233.466C399.165 233.367 399.001 233.254 398.845 233.13C398.539 232.896 398.065 232.566 397.495 232.098C395.861 230.798 394.294 229.415 392.803 227.952C387.884 223.112 383.623 217.645 380.131 211.692C376.648 205.744 373.753 199.47 371.485 192.96C370.609 190.47 369.967 188.43 369.553 187.008C369.337 186.306 369.187 185.748 369.085 185.376C369.022 185.181 368.977 184.98 368.953 184.776C369.036 184.957 369.104 185.143 369.157 185.334L369.691 186.948C370.147 188.352 370.825 190.38 371.731 192.852C374.07 199.315 376.99 205.553 380.455 211.488C383.937 217.42 388.152 222.889 393.001 227.766C394.867 229.626 396.469 231.036 397.597 231.966C398.155 232.452 398.611 232.8 398.905 233.052C399.06 233.178 399.205 233.317 399.337 233.466Z" fill="white"/>
<path d="M401.242 215.46C401.159 215.099 401.107 214.732 401.086 214.362C401.002 213.582 400.894 212.562 400.768 211.362C400.492 208.818 400.06 205.32 399.442 201.474C398.824 197.628 398.134 194.166 397.6 191.67C397.342 190.47 397.126 189.474 396.964 188.712C396.867 188.352 396.801 187.985 396.766 187.614C396.908 187.958 397.021 188.313 397.102 188.676C397.3 189.366 397.558 190.368 397.858 191.61C398.458 194.094 399.19 197.556 399.808 201.414C400.426 205.272 400.816 208.782 401.008 211.332C401.116 212.61 401.182 213.642 401.212 214.332C401.261 214.706 401.271 215.084 401.242 215.46Z" fill="white"/>
<path d="M405.336 185.011C405.419 185.164 405.487 185.325 405.54 185.491C405.678 185.845 405.852 186.307 406.068 186.883C406.284 187.459 406.56 188.233 406.818 189.121C407.076 190.009 407.418 190.993 407.664 192.121L408.096 193.885C408.246 194.485 408.348 195.151 408.48 195.817C408.768 197.149 408.942 198.595 409.152 200.113C409.949 206.721 409.71 213.414 408.444 219.949C408.126 221.449 407.844 222.877 407.466 224.185C407.286 224.839 407.136 225.481 406.944 226.081C406.752 226.681 406.566 227.281 406.386 227.815C406.05 228.925 405.648 229.891 405.324 230.749C405 231.607 404.688 232.339 404.418 232.927L403.818 234.277C403.754 234.438 403.673 234.593 403.578 234.739C403.62 234.569 403.678 234.405 403.752 234.247L404.304 232.867C404.556 232.267 404.856 231.541 405.15 230.677C405.444 229.813 405.84 228.841 406.158 227.731C406.326 227.179 406.506 226.603 406.692 226.003C406.878 225.403 407.016 224.761 407.19 224.107C407.556 222.799 407.79 221.377 408.132 219.907C409.351 213.401 409.589 206.749 408.84 200.173C408.636 198.661 408.474 197.221 408.204 195.895C408.072 195.229 407.976 194.581 407.838 193.969C407.7 193.357 407.562 192.769 407.43 192.205C407.196 191.077 406.878 190.081 406.638 189.205C406.398 188.329 406.164 187.573 405.954 186.961C405.744 186.349 405.612 185.905 405.498 185.545C405.426 185.373 405.371 185.194 405.336 185.011Z" fill="white"/>
<path d="M431.489 175.135C431.499 175.19 431.499 175.247 431.489 175.303C431.489 175.435 431.441 175.597 431.411 175.789C431.333 176.215 431.237 176.851 431.069 177.661C430.733 179.275 430.169 181.597 429.269 184.417C428.369 187.237 427.211 190.537 425.795 194.173C424.379 197.809 422.747 201.763 421.199 205.975C419.651 210.187 418.409 214.291 417.269 218.011C416.129 221.731 415.073 225.091 414.035 227.851C413.235 230.04 412.316 232.183 411.281 234.271C410.921 235.015 410.597 235.567 410.393 235.951L410.147 236.377C410.122 236.429 410.09 236.478 410.051 236.521C410.064 236.464 410.084 236.41 410.111 236.359L410.327 235.915C410.513 235.519 410.813 234.955 411.149 234.205C411.851 232.717 412.799 230.533 413.789 227.761C414.779 224.989 415.829 221.647 416.945 217.915C418.061 214.183 419.267 210.067 420.845 205.849C422.423 201.631 424.049 197.671 425.477 194.047C426.905 190.423 428.123 187.135 429.017 184.333C429.911 181.531 430.523 179.227 430.901 177.625C431.093 176.827 431.213 176.197 431.315 175.777C431.363 175.585 431.399 175.429 431.429 175.297C431.44 175.24 431.46 175.185 431.489 175.135Z" fill="white"/>
<path d="M377.647 166.842C377.406 166.612 377.095 166.468 376.763 166.434C376.431 166.399 376.098 166.476 375.814 166.652C375.531 166.827 375.313 167.092 375.197 167.405C375.08 167.717 375.07 168.06 375.169 168.378C375.767 170.308 376.501 172.193 377.365 174.018C379.765 179.124 386.821 197.418 390.121 207.48C393.421 217.542 398.071 236.28 398.071 236.28L405.121 235.14C405.121 235.14 398.671 204.33 392.401 193.2C387.307 184.302 382.243 171.414 377.647 166.842Z" fill="#747474"/>
<path d="M392.047 213.769C392.2 214.036 392.323 214.32 392.413 214.615C392.623 215.167 392.905 215.971 393.223 216.979C393.871 218.989 394.669 221.779 395.467 224.917C396.265 228.055 396.931 230.881 397.393 232.939C397.609 233.911 397.783 234.739 397.927 235.381C398.004 235.677 398.053 235.981 398.071 236.287C397.944 236.008 397.848 235.716 397.783 235.417C397.615 234.775 397.399 233.965 397.141 233.017L395.107 225.001C394.309 221.881 393.553 219.067 392.971 217.045L392.275 214.645C392.17 214.361 392.094 214.067 392.047 213.769Z" fill="white"/>
<path d="M401.608 235.717C401.589 235.656 401.577 235.594 401.572 235.531C401.572 235.381 401.524 235.201 401.488 234.973C401.416 234.487 401.35 233.773 401.2 232.837C400.942 230.989 400.48 228.319 399.724 225.067C398.82 221.258 397.719 217.499 396.424 213.805C394.978 209.605 393.166 205.117 391.108 200.443C386.962 191.113 382.822 182.839 380.098 176.725C378.724 173.671 377.656 171.181 376.954 169.441C376.594 168.577 376.354 167.899 376.162 167.437C376.084 167.221 376.018 167.053 375.964 166.909C375.938 166.851 375.92 166.791 375.91 166.729C375.91 166.729 375.946 166.783 376 166.897C376.054 167.011 376.138 167.203 376.234 167.407L377.086 169.387C377.83 171.103 378.934 173.587 380.338 176.587C383.116 182.677 387.298 190.927 391.45 200.269C393.508 204.949 395.314 209.473 396.748 213.667C398.033 217.382 399.113 221.166 399.982 225.001C400.566 227.576 401.021 230.179 401.344 232.801C401.47 233.731 401.512 234.457 401.566 234.949C401.566 235.177 401.596 235.357 401.608 235.507C401.618 235.576 401.618 235.647 401.608 235.717Z" fill="white"/>
<path d="M405.122 235.146C405.012 234.753 404.932 234.352 404.882 233.946C404.744 233.118 404.558 232.026 404.336 230.706C403.85 227.976 403.136 224.214 402.044 220.122C400.952 216.03 399.794 212.376 398.882 209.76L397.802 206.676C397.645 206.304 397.521 205.918 397.43 205.524C397.627 205.877 397.798 206.244 397.94 206.622C398.24 207.336 398.666 208.38 399.14 209.682C400.415 213.074 401.508 216.531 402.416 220.038C403.323 223.546 404.054 227.096 404.606 230.676C404.81 232.05 404.96 233.166 405.038 233.94C405.096 234.34 405.124 234.743 405.122 235.146Z" fill="white"/>
<path d="M419.586 234.132H392.07V267.654H419.586V234.132Z" fill="#C7C7C7"/>
<g opacity="0.3">
<path d="M419.582 234.132H392.066V267.654H419.582V234.132Z" fill="black"/>
</g>
<path d="M410.806 234.132H386.398V267.654H410.806V234.132Z" fill="#C7C7C7"/>
<path d="M53.1171 222.48C48.4251 219.48 41.9331 219.42 37.3731 222.606C33.0411 225.636 30.8391 231.144 31.0311 236.406C31.2231 241.668 33.7851 248.136 38.5671 250.914L52.6071 250.854C54.8634 249.212 56.727 247.09 58.0634 244.64C59.3998 242.19 60.1757 239.474 60.3351 236.688C60.5451 231.144 57.8031 225.48 53.1171 222.48Z" fill="#747474"/>
<path d="M46.201 251.442C46.135 251.046 46.1069 250.644 46.117 250.242C46.117 249.378 46.057 248.274 46.021 246.948C45.949 244.17 45.841 240.348 45.655 236.094C45.469 231.84 45.241 228.018 45.055 225.24C44.977 223.92 44.911 222.84 44.857 221.952C44.8185 221.553 44.8185 221.151 44.857 220.752C44.9575 221.145 45.0217 221.547 45.049 221.952C45.145 222.726 45.259 223.848 45.391 225.234C45.643 228.006 45.919 231.834 46.111 236.088C46.303 240.342 46.357 244.182 46.345 246.966C46.345 248.358 46.345 249.48 46.297 250.26C46.3005 250.656 46.2684 251.052 46.201 251.442Z" fill="#263238"/>
<path d="M32.4463 235.23C32.4463 235.35 31.6723 235.392 30.7423 235.314C29.8123 235.236 29.0683 235.074 29.0743 234.954C29.0803 234.834 29.8483 234.792 30.7783 234.864C31.7083 234.936 32.4583 235.104 32.4463 235.23Z" fill="#263238"/>
<path d="M32.712 230.49C32.658 230.604 32.004 230.424 31.242 230.082C30.48 229.74 29.904 229.38 29.952 229.266C30 229.152 30.66 229.338 31.422 229.674C32.184 230.01 32.76 230.4 32.712 230.49Z" fill="#263238"/>
<path d="M35.149 226.974C35.083 227.076 34.345 226.728 33.577 226.092C32.809 225.456 32.323 224.79 32.413 224.712C32.503 224.634 33.115 225.126 33.859 225.744C34.603 226.362 35.215 226.866 35.149 226.974Z" fill="#263238"/>
<path d="M37.6016 223.657C37.4876 223.705 37.1336 223.153 36.8096 222.421C36.4856 221.689 36.3116 221.053 36.4256 220.999C36.5396 220.945 36.8936 221.503 37.2176 222.241C37.5416 222.979 37.7096 223.609 37.6016 223.657Z" fill="#263238"/>
<path d="M41.4462 221.305C41.3322 221.353 40.9542 220.765 40.6962 219.949C40.4382 219.133 40.4202 218.425 40.5402 218.407C40.6602 218.389 40.8822 219.007 41.1402 219.811C41.3982 220.615 41.5602 221.251 41.4462 221.305Z" fill="#263238"/>
<path d="M47.8625 218.646C47.9825 218.688 47.9105 219.192 47.7065 219.774C47.5025 220.356 47.2385 220.788 47.1065 220.746C46.9745 220.704 47.0585 220.206 47.2625 219.624C47.4665 219.042 47.7485 218.604 47.8625 218.646Z" fill="#263238"/>
<path d="M52.6233 220.692C52.7073 220.782 52.4013 221.202 51.9393 221.628C51.4773 222.054 51.0393 222.324 50.9553 222.228C50.8713 222.132 51.1773 221.718 51.6333 221.292C52.0893 220.866 52.5393 220.602 52.6233 220.692Z" fill="#263238"/>
<path d="M56.8134 223.398C56.8854 223.5 56.5134 223.872 55.9854 224.232C55.4574 224.592 54.9714 224.796 54.8994 224.694C54.8274 224.592 55.2054 224.22 55.7334 223.86C56.2614 223.5 56.7474 223.296 56.8134 223.398Z" fill="#263238"/>
<path d="M59.7909 227.43C59.8389 227.544 59.2569 227.904 58.4829 228.234C57.7089 228.564 57.0429 228.738 56.9949 228.624C56.9469 228.51 57.5349 228.15 58.3089 227.826C59.0829 227.502 59.7429 227.316 59.7909 227.43Z" fill="#263238"/>
<path d="M60.9666 231.834C60.9666 231.954 60.3666 232.134 59.6286 232.224C58.8906 232.314 58.2606 232.296 58.2426 232.17C58.2246 232.044 58.8426 231.876 59.5746 231.78C60.3066 231.684 60.9486 231.708 60.9666 231.834Z" fill="#263238"/>
<path d="M61.5731 237.252C61.5251 237.366 60.8891 237.198 60.1571 236.88C59.4251 236.562 58.8611 236.208 58.9091 236.094C58.9571 235.98 59.5991 236.148 60.3311 236.466C61.0631 236.784 61.6271 237.138 61.5731 237.252Z" fill="#263238"/>
<path d="M61.039 241.903C60.997 242.017 60.193 241.824 59.353 241.272C58.513 240.72 58.015 240.073 58.099 239.983C58.183 239.893 58.801 240.378 59.599 240.894C60.397 241.41 61.081 241.801 61.039 241.903Z" fill="#263238"/>
<path d="M58.6142 246.133C58.5422 246.229 57.9002 245.857 57.2882 245.191C56.6762 244.525 56.3462 243.865 56.4422 243.793C56.5382 243.721 57.0422 244.255 57.6422 244.885C58.2422 245.515 58.6982 246.037 58.6142 246.133Z" fill="#263238"/>
<path d="M35.6346 246.63C35.6886 246.738 35.0346 247.23 34.1286 247.662C33.2226 248.094 32.4786 248.4 32.4006 248.304C32.3226 248.208 33.0006 247.704 33.9006 247.266C34.8006 246.828 35.5746 246.522 35.6346 246.63Z" fill="#263238"/>
<path d="M33.5332 242.802C33.5812 242.916 33.0412 243.27 32.3332 243.594C31.6252 243.918 30.9952 244.092 30.9412 243.978C30.8872 243.864 31.4332 243.51 32.1412 243.186C32.8492 242.862 33.4792 242.688 33.5332 242.802Z" fill="#263238"/>
<path d="M31.9913 239.4C31.9913 239.52 31.3433 239.718 30.5033 239.838C29.6633 239.958 28.9793 239.952 28.9613 239.838C28.9433 239.724 29.6093 239.52 30.4433 239.406C31.2773 239.292 31.9733 239.286 31.9913 239.4Z" fill="#263238"/>
<path d="M37.0476 237.54C37.0836 237.66 36.4476 237.96 35.5776 238.056C34.7076 238.152 34.0116 238.002 34.0236 237.882C34.0356 237.762 34.7076 237.708 35.5236 237.612C36.3396 237.516 37.0116 237.42 37.0476 237.54Z" fill="#263238"/>
<path d="M41.2565 233.358C41.2925 233.472 40.7765 233.736 40.0565 233.802C39.3365 233.868 38.8085 233.718 38.8205 233.598C38.8325 233.478 39.3725 233.424 40.0205 233.358C40.6685 233.292 41.2205 233.238 41.2565 233.358Z" fill="#263238"/>
<path d="M42.0594 230.004C42.0174 230.124 41.4594 230.034 40.8114 229.812C40.1634 229.59 39.6714 229.314 39.7134 229.212C39.7554 229.11 40.3134 229.182 40.9614 229.41C41.6094 229.638 42.1014 229.89 42.0594 230.004Z" fill="#263238"/>
<path d="M43.602 226.615C43.518 226.705 43.134 226.453 42.858 225.973C42.582 225.493 42.558 225.043 42.678 225.013C42.798 224.983 43.002 225.331 43.278 225.751C43.554 226.171 43.692 226.531 43.602 226.615Z" fill="#263238"/>
<path d="M41.7419 240.492C41.7719 240.612 41.2919 240.834 40.6619 240.99C40.3659 241.068 40.0619 241.112 39.7559 241.122L39.6719 240.858C39.8339 240.858 39.9359 240.858 39.9599 240.888C39.9839 240.918 39.9119 241.014 39.7799 241.116L39.6899 240.852C39.968 240.72 40.2598 240.62 40.5599 240.552C41.1839 240.402 41.7119 240.372 41.7419 240.492Z" fill="#263238"/>
<path d="M42.5976 246.438C42.6396 246.552 41.9976 246.9 41.2176 247.218C40.4376 247.536 39.7236 247.698 39.6816 247.584C39.6396 247.47 40.2816 247.116 41.0556 246.804C41.8296 246.492 42.5616 246.324 42.5976 246.438Z" fill="#263238"/>
<path d="M37.8579 243.798C37.8999 243.912 37.4859 244.158 36.9399 244.344C36.3939 244.53 35.9199 244.591 35.8779 244.471C35.8359 244.351 36.2499 244.111 36.7959 243.925C37.3419 243.739 37.7979 243.678 37.8579 243.798Z" fill="#263238"/>
<path d="M38.2207 231.702C38.2207 231.822 37.4767 231.75 36.6547 231.456C35.8327 231.162 35.2267 230.766 35.2807 230.658C35.3347 230.55 36.0007 230.748 36.8047 231.03C37.6087 231.312 38.2507 231.6 38.2207 231.702Z" fill="#263238"/>
<path d="M49.7144 230.4C49.7864 230.502 49.3844 230.886 48.8204 231.258C48.2564 231.63 47.7404 231.858 47.6684 231.744C47.5964 231.63 48.0044 231.258 48.5684 230.886C49.1324 230.514 49.6484 230.28 49.7144 230.4Z" fill="#263238"/>
<path d="M50.3469 236.352C50.3469 236.472 49.9449 236.664 49.3989 236.778C48.8529 236.892 48.3908 236.886 48.3608 236.778C48.3308 236.67 48.7628 236.466 49.3088 236.352C49.8548 236.238 50.3169 236.232 50.3469 236.352Z" fill="#263238"/>
<path d="M51.0698 243.066C51.0158 243.174 50.4038 243.006 49.7078 242.682C49.0118 242.358 48.5078 242.004 48.5078 241.89C48.5078 241.776 49.1738 241.95 49.8698 242.274C50.5658 242.598 51.1178 242.952 51.0698 243.066Z" fill="#263238"/>
<path d="M49.5296 249.6C49.4336 249.684 49.0376 249.36 48.6476 248.88C48.2576 248.4 48.0476 247.95 48.1136 247.872C48.1796 247.794 48.5996 248.118 48.9956 248.598C49.3916 249.078 49.6256 249.516 49.5296 249.6Z" fill="#263238"/>
<path d="M49.1999 225.99C49.2779 226.086 49.0139 226.416 48.5639 226.638C48.1139 226.86 47.6999 226.878 47.6699 226.758C47.6399 226.638 47.9639 226.446 48.3659 226.242C48.7679 226.038 49.1399 225.894 49.1999 225.99Z" fill="#263238"/>
<path d="M54.8512 232.008C54.8932 232.122 54.3712 232.41 53.6512 232.512C52.9312 232.614 52.3612 232.476 52.3672 232.356C52.3732 232.236 52.9252 232.158 53.5672 232.068C54.2092 231.978 54.8092 231.894 54.8512 232.008Z" fill="#263238"/>
<path d="M53.7309 226.608C53.7849 226.716 53.2689 227.088 52.5309 227.322C51.7929 227.556 51.1629 227.556 51.1449 227.436C51.1269 227.316 51.6969 227.118 52.3929 226.89C53.0889 226.662 53.6709 226.494 53.7309 226.608Z" fill="#263238"/>
<path d="M56.0801 240.378C56.0801 240.498 55.1921 240.576 54.1241 240.378C53.0561 240.18 52.2581 239.778 52.3241 239.688C52.3901 239.598 53.2061 239.754 54.2321 239.934C55.2581 240.114 56.0801 240.252 56.0801 240.378Z" fill="#263238"/>
<path d="M54.0001 248.226C53.9281 248.322 53.2741 247.938 52.6261 247.284C51.9781 246.63 51.6001 246 51.6781 245.904C51.7561 245.808 52.2781 246.336 52.9321 246.972C53.5861 247.608 54.0661 248.13 54.0001 248.226Z" fill="#263238"/>
<path d="M44.7842 220.2C43.3514 221.071 42.0315 222.115 40.8542 223.308C38.1235 226.301 36.4098 230.082 35.9582 234.108C35.7548 236.321 35.8537 238.552 36.2522 240.738C36.5736 242.533 36.9881 244.309 37.4942 246.06C37.9262 247.554 38.3222 248.754 38.5862 249.588C38.7458 250.014 38.8722 250.451 38.9642 250.896C38.7444 250.499 38.5636 250.081 38.4242 249.648C38.1062 248.832 37.6622 247.644 37.1942 246.15C36.6356 244.4 36.1867 242.616 35.8502 240.81C35.415 238.588 35.3018 236.315 35.5142 234.06C35.9637 229.934 37.7604 226.071 40.6262 223.068C41.4966 222.185 42.4813 221.422 43.5542 220.8C43.8432 220.624 44.1439 220.468 44.4542 220.332C44.5577 220.274 44.6687 220.229 44.7842 220.2Z" fill="#263238"/>
<path d="M50.8996 251.22C50.7976 251.166 51.9016 249.468 52.9096 246.42C54.2589 242.442 54.6696 238.205 54.1096 234.042C53.8071 231.746 53.164 229.507 52.2016 227.4C51.3966 225.706 50.2952 224.17 48.9496 222.864C47.9979 222.029 46.9207 221.349 45.7576 220.848C44.9296 220.506 44.4316 220.422 44.4376 220.386C44.5588 220.367 44.6823 220.367 44.8036 220.386C45.1484 220.448 45.4876 220.538 45.8176 220.656C47.0353 221.103 48.1647 221.761 49.1536 222.6C50.5723 223.901 51.7326 225.459 52.5736 227.19C53.5741 229.315 54.2419 231.582 54.5536 233.91C55.1272 238.14 54.6639 242.445 53.2036 246.456C52.9516 247.23 52.6036 247.89 52.3816 248.49C52.1596 249.09 51.8536 249.57 51.6376 249.966C51.4236 250.402 51.1769 250.821 50.8996 251.22Z" fill="#263238"/>
<path d="M33.5352 250.158H58.2432L58.3932 255.102H33.5352V250.158Z" fill="#C7C7C7"/>
<path d="M35.6328 252.63L37.0488 267.726H55.1148L56.5668 252.798L35.6328 252.63Z" fill="#C7C7C7"/>
<path d="M58.3911 255.162C58.3911 255.288 52.8291 255.384 45.9651 255.384C39.1011 255.384 33.5391 255.288 33.5391 255.162C33.5391 255.036 39.1011 254.94 45.9651 254.94C52.8291 254.94 58.3911 255.036 58.3911 255.162Z" fill="white"/>
<path d="M55.8844 259.758C55.7557 260.098 55.5778 260.417 55.3564 260.706C54.799 261.526 54.1554 262.285 53.4364 262.968L53.3224 263.076L53.2144 262.956C51.73 261.4 50.1073 259.982 48.3664 258.72H48.6424L46.4944 260.604L43.9564 262.8L43.8184 262.926L43.6744 262.806L39.5524 259.338L39.7924 259.308C38.9404 260.352 38.2204 261.222 37.6564 261.918C37.4103 262.251 37.1287 262.557 36.8164 262.83C37.0141 262.465 37.2451 262.12 37.5064 261.798L39.5224 259.104L39.6304 258.966L39.7684 259.074L43.9684 262.47H43.6924L46.2184 260.25L48.3724 258.372L48.5044 258.258L48.6484 258.36C50.3937 259.65 52.0021 261.116 53.4484 262.734H53.2204C54.189 261.817 55.08 260.822 55.8844 259.758Z" fill="white"/>
<path d="M352.771 79.0615H91.2186C86.3905 79.0615 82.4766 82.9754 82.4766 87.8035V254.844C82.4766 259.672 86.3905 263.586 91.2186 263.586H352.771C357.599 263.586 361.513 259.672 361.513 254.844V87.8035C361.513 82.9754 357.599 79.0615 352.771 79.0615Z" fill="#DBDBDB"/>
<path d="M73.3443 251.663H375.654V257.129C375.654 259.962 374.529 262.678 372.526 264.681C370.523 266.684 367.807 267.809 364.974 267.809H84.0003C81.1678 267.809 78.4513 266.684 76.4484 264.681C74.4455 262.678 73.3203 259.962 73.3203 257.129V251.663H73.3443Z" fill="#DBDBDB"/>
<path d="M194.488 249.936L198.238 255.906H251.026L254.506 249.936H194.488Z" fill="#8B8B8B"/>
<path d="M359.113 249.936C359.113 250.038 297.181 250.116 220.807 250.116C144.433 250.116 82.4766 250.038 82.4766 249.936C82.4766 249.834 144.397 249.756 220.807 249.756C297.217 249.756 359.113 249.834 359.113 249.936Z" fill="#8B8B8B"/>
<path d="M350.467 89.6689H92.4308C91.3472 89.6689 90.4688 90.5474 90.4688 91.6309V243.095C90.4688 244.179 91.3472 245.057 92.4308 245.057H350.467C351.55 245.057 352.429 244.179 352.429 243.095V91.6309C352.429 90.5474 351.55 89.6689 350.467 89.6689Z" fill="#EBEBEB"/>
<path d="M352.147 245.285H90.1875L90.4695 101.285H352.147V245.285Z" fill="white"/>
<path d="M111.954 95.6756C111.957 96.0905 111.837 96.4971 111.609 96.8438C111.382 97.1906 111.056 97.4618 110.673 97.623C110.291 97.7843 109.87 97.8283 109.462 97.7496C109.055 97.6708 108.68 97.4728 108.385 97.1807C108.091 96.8886 107.889 96.5155 107.807 96.1088C107.725 95.7021 107.765 95.2802 107.923 94.8965C108.081 94.5128 108.35 94.1847 108.694 93.9538C109.039 93.7229 109.445 93.5996 109.86 93.5996C110.412 93.598 110.943 93.8157 111.336 94.2048C111.728 94.594 111.95 95.1229 111.954 95.6756Z" fill="#263238"/>
<path d="M99.2739 95.6757C99.2774 96.0914 99.1572 96.4987 98.9285 96.8458C98.6998 97.1929 98.3729 97.464 97.9895 97.6248C97.6062 97.7855 97.1837 97.8285 96.7758 97.7482C96.3679 97.668 95.9932 97.4682 95.6993 97.1743C95.4053 96.8804 95.2055 96.5056 95.1253 96.0977C95.0451 95.6899 95.0881 95.2674 95.2488 94.884C95.4095 94.5006 95.6807 94.1738 96.0278 93.9451C96.3749 93.7164 96.7822 93.5961 97.1979 93.5997C97.7475 93.6028 98.2737 93.8226 98.6623 94.2112C99.051 94.5999 99.2707 95.1261 99.2739 95.6757Z" fill="#263238"/>
<path d="M105.36 95.6751C105.36 96.0892 105.237 96.4941 105.007 96.8384C104.777 97.1828 104.45 97.4512 104.067 97.6097C103.685 97.7682 103.264 97.8096 102.857 97.7288C102.451 97.648 102.078 97.4486 101.785 97.1557C101.492 96.8629 101.293 96.4898 101.212 96.0836C101.131 95.6774 101.173 95.2564 101.331 94.8737C101.49 94.4911 101.758 94.1641 102.103 93.934C102.447 93.7039 102.852 93.5811 103.266 93.5811C103.541 93.5803 103.814 93.6339 104.068 93.7388C104.323 93.8438 104.554 93.998 104.748 94.1926C104.943 94.3872 105.097 94.6184 105.202 94.8728C105.307 95.1272 105.361 95.3999 105.36 95.6751Z" fill="#263238"/>
<path d="M352.43 231.378H90.1875V245.286H352.43V231.378Z" fill="#EBEBEB"/>
<path d="M100.1 239.939V240.383H98.0124V240.035L99.1344 238.967C99.4104 238.703 99.4584 238.535 99.4584 238.367C99.4584 238.109 99.2784 237.959 98.9304 237.959C98.805 237.952 98.6797 237.975 98.565 238.026C98.4502 238.077 98.3492 238.155 98.2704 238.253L97.8984 237.971C98.03 237.815 98.196 237.691 98.3834 237.61C98.5708 237.529 98.7745 237.492 98.9784 237.503C99.5784 237.503 99.9924 237.809 99.9924 238.313C99.9885 238.488 99.9436 238.661 99.8613 238.816C99.779 238.971 99.6616 239.105 99.5184 239.207L98.7624 239.927L100.1 239.939Z" fill="#A5A5A5"/>
<path d="M100.382 238.536C100.382 238.469 100.402 238.404 100.439 238.349C100.476 238.293 100.529 238.25 100.591 238.225C100.652 238.2 100.72 238.194 100.786 238.207C100.851 238.221 100.911 238.253 100.958 238.301C101.004 238.348 101.036 238.409 101.048 238.474C101.06 238.54 101.053 238.608 101.027 238.669C101 238.73 100.956 238.782 100.9 238.818C100.844 238.855 100.779 238.873 100.712 238.872C100.668 238.873 100.624 238.865 100.583 238.848C100.542 238.832 100.505 238.807 100.475 238.775C100.444 238.744 100.419 238.706 100.404 238.665C100.388 238.624 100.38 238.58 100.382 238.536ZM100.382 240.078C100.376 240.031 100.379 239.982 100.393 239.936C100.407 239.891 100.43 239.848 100.462 239.812C100.494 239.776 100.532 239.747 100.576 239.727C100.62 239.708 100.667 239.697 100.715 239.697C100.763 239.697 100.81 239.708 100.854 239.727C100.897 239.747 100.936 239.776 100.968 239.812C100.999 239.848 101.023 239.891 101.037 239.936C101.05 239.982 101.054 240.031 101.048 240.078C101.054 240.126 101.05 240.174 101.037 240.22C101.023 240.266 100.999 240.308 100.968 240.344C100.936 240.38 100.897 240.409 100.854 240.429C100.81 240.449 100.763 240.459 100.715 240.459C100.667 240.459 100.62 240.449 100.576 240.429C100.532 240.409 100.494 240.38 100.462 240.344C100.43 240.308 100.407 240.266 100.393 240.22C100.379 240.174 100.376 240.126 100.382 240.078Z" fill="#A5A5A5"/>
<path d="M102.36 237.551V240.383H101.838V237.983H101.238V237.539L102.36 237.551Z" fill="#A5A5A5"/>
<path d="M105.451 239.742H104.947V240.384H104.437V239.742H102.883V239.4L104.281 237.6H104.845L103.525 239.346H104.455V238.776H104.947V239.346H105.451V239.742Z" fill="#A5A5A5"/>
<path d="M325.022 238.607H110.078V239.585H325.022V238.607Z" fill="white"/>
<path d="M177.084 237.558H109.914V240.174H177.084V237.558Z" fill="#C7C7C7"/>
<path d="M179.255 239.1C179.255 239.747 179.063 240.379 178.704 240.917C178.344 241.455 177.834 241.874 177.236 242.121C176.639 242.369 175.981 242.433 175.347 242.307C174.713 242.181 174.13 241.87 173.673 241.412C173.215 240.955 172.904 240.372 172.778 239.738C172.652 239.104 172.716 238.446 172.964 237.849C173.211 237.251 173.63 236.741 174.168 236.381C174.706 236.022 175.338 235.83 175.985 235.83C176.852 235.83 177.684 236.175 178.297 236.788C178.91 237.401 179.255 238.233 179.255 239.1Z" fill="#C7C7C7"/>
<path d="M330.433 239.069C330.432 239.2 330.404 239.329 330.35 239.448C330.297 239.567 330.219 239.674 330.122 239.761C330.025 239.849 329.911 239.915 329.787 239.956C329.663 239.997 329.531 240.012 329.401 239.999C328.627 239.999 328.201 239.501 328.201 238.589C328.178 238.396 328.196 238.199 328.256 238.013C328.316 237.828 328.416 237.657 328.548 237.514C328.681 237.37 328.843 237.258 329.023 237.183C329.204 237.109 329.398 237.075 329.593 237.083C329.854 237.077 330.111 237.141 330.337 237.269L330.139 237.665C329.979 237.567 329.793 237.519 329.605 237.527C329.071 237.527 328.735 237.857 328.735 238.499C328.832 238.398 328.95 238.319 329.081 238.269C329.211 238.218 329.352 238.196 329.491 238.205C329.611 238.197 329.73 238.213 329.843 238.253C329.956 238.292 330.06 238.354 330.148 238.435C330.236 238.516 330.307 238.614 330.356 238.723C330.405 238.832 330.431 238.95 330.433 239.069ZM329.923 239.069C329.923 238.775 329.701 238.589 329.359 238.589C329.287 238.577 329.214 238.581 329.143 238.599C329.073 238.618 329.007 238.651 328.95 238.697C328.893 238.743 328.847 238.801 328.814 238.866C328.781 238.931 328.763 239.002 328.759 239.075C328.759 239.339 328.969 239.549 329.359 239.549C329.427 239.56 329.496 239.557 329.562 239.539C329.629 239.522 329.69 239.491 329.744 239.448C329.797 239.405 329.84 239.351 329.871 239.29C329.902 239.229 329.92 239.162 329.923 239.093V239.069Z" fill="#A5A5A5"/>
<path d="M330.691 238.098C330.684 238.05 330.688 238.002 330.702 237.956C330.716 237.91 330.739 237.868 330.771 237.832C330.802 237.796 330.841 237.767 330.885 237.747C330.928 237.727 330.976 237.717 331.024 237.717C331.071 237.717 331.119 237.727 331.162 237.747C331.206 237.767 331.245 237.796 331.276 237.832C331.308 237.868 331.331 237.91 331.345 237.956C331.359 238.002 331.363 238.05 331.356 238.098C331.363 238.145 331.359 238.193 331.345 238.239C331.331 238.285 331.308 238.328 331.276 238.364C331.245 238.4 331.206 238.429 331.162 238.448C331.119 238.468 331.071 238.478 331.024 238.478C330.976 238.478 330.928 238.468 330.885 238.448C330.841 238.429 330.802 238.4 330.771 238.364C330.739 238.328 330.716 238.285 330.702 238.239C330.688 238.193 330.684 238.145 330.691 238.098ZM330.691 239.64C330.684 239.592 330.688 239.544 330.702 239.498C330.716 239.452 330.739 239.41 330.771 239.374C330.802 239.338 330.841 239.309 330.885 239.289C330.928 239.269 330.976 239.259 331.024 239.259C331.071 239.259 331.119 239.269 331.162 239.289C331.206 239.309 331.245 239.338 331.276 239.374C331.308 239.41 331.331 239.452 331.345 239.498C331.359 239.544 331.363 239.592 331.356 239.64C331.363 239.687 331.359 239.735 331.345 239.781C331.331 239.827 331.308 239.87 331.276 239.906C331.245 239.942 331.206 239.971 331.162 239.99C331.119 240.01 331.071 240.02 331.024 240.02C330.976 240.02 330.928 240.01 330.885 239.99C330.841 239.971 330.802 239.942 330.771 239.906C330.739 239.87 330.716 239.827 330.702 239.781C330.688 239.735 330.684 239.687 330.691 239.64Z" fill="#A5A5A5"/>
<path d="M331.691 238.529C331.691 237.599 332.201 237.071 332.891 237.071C333.581 237.071 334.091 237.599 334.091 238.529C334.091 239.459 333.581 239.987 332.891 239.987C332.201 239.987 331.691 239.459 331.691 238.529ZM333.527 238.529C333.527 237.845 333.263 237.533 332.873 237.533C332.483 237.533 332.219 237.845 332.219 238.529C332.219 239.213 332.489 239.531 332.873 239.531C333.257 239.531 333.527 239.213 333.527 238.529Z" fill="#A5A5A5"/>
<path d="M334.41 238.529C334.41 237.599 334.92 237.071 335.61 237.071C336.3 237.071 336.81 237.599 336.81 238.529C336.81 239.459 336.3 239.987 335.61 239.987C334.92 239.987 334.41 239.459 334.41 238.529ZM336.252 238.529C336.252 237.845 335.982 237.533 335.592 237.533C335.202 237.533 334.944 237.845 334.944 238.529C334.944 239.213 335.208 239.531 335.592 239.531C335.976 239.531 336.252 239.213 336.252 238.529Z" fill="#A5A5A5"/>
<path d="M341.359 238.355H340.375V235.529H343.201V236.507H341.359V238.355Z" fill="#A5A5A5"/>
<path d="M343.201 242.04H340.375V239.22H341.353V241.062H343.201V242.04Z" fill="#A5A5A5"/>
<path d="M347.699 242.04H344.879V241.062H346.715V239.214H347.699V242.04Z" fill="#A5A5A5"/>
<path d="M347.701 238.349H346.723V236.507H344.875V235.529H347.701V238.349Z" fill="#A5A5A5"/>
<path d="M170.399 123.084C170.399 123.168 163.457 123.24 154.895 123.24C146.333 123.24 139.391 123.168 139.391 123.084C139.391 123 146.333 122.928 154.895 122.928C163.457 122.928 170.399 123 170.399 123.084Z" fill="#263238"/>
<path d="M323.008 152.156C323.008 152.24 316.066 152.312 307.504 152.312C298.942 152.312 292 152.24 292 152.156C292 152.072 298.942 152 307.504 152C316.066 152 323.008 152.072 323.008 152.156Z" fill="#263238"/>
<path d="M156.054 126.329C156.054 126.413 152.37 126.485 147.822 126.485C143.274 126.485 139.59 126.413 139.59 126.329C139.59 126.245 143.274 126.167 147.822 126.167C152.37 126.167 156.054 126.239 156.054 126.329Z" fill="#263238"/>
<path d="M308.663 155.401C308.663 155.485 304.979 155.557 300.431 155.557C295.883 155.557 292.199 155.485 292.199 155.401C292.199 155.317 295.883 155.239 300.431 155.239C304.979 155.239 308.663 155.311 308.663 155.401Z" fill="#263238"/>
<path d="M263.276 147.054C265.992 148.598 268.374 150.666 270.286 153.138C272.197 155.61 273.6 158.436 274.412 161.454C277.31 171.822 286.172 198.822 286.172 198.822C286.172 198.822 291.236 204.78 291.776 209.19C292.316 213.6 291.236 224.274 289.604 226.266C289.131 226.844 288.524 227.297 287.836 227.587C287.148 227.877 286.399 227.994 285.655 227.928L264.337 225.906L255.938 169.698L263.276 147.054Z" fill="#AFAFAF"/>
<path d="M192.786 146.076C192.786 146.076 177.54 150.876 173.742 155.016L186.222 213.072L186 231.396H258.288C258.288 230.49 258.936 170.568 258.936 170.568L263.274 147.054L237.6 142.536L232.536 138.552L203.958 140.004L199.614 144.342L192.786 146.076Z" fill="#AFAFAF"/>
<g opacity="0.3">
<path d="M198.6 196.446C198.378 195.954 198.054 195.42 197.526 195.312C196.656 195.132 196.074 196.158 195.78 196.998C193.475 203.579 190.281 209.815 186.288 215.532L186.102 224.448C190.302 220.902 194.466 217.104 197.154 212.298C199.842 207.492 200.844 201.462 198.6 196.446Z" fill="black"/>
</g>
<path d="M173.742 155.016C173.742 155.016 168.72 161.862 166.638 166.332C164.556 170.802 147.27 208.332 146.238 212.214C145.206 216.096 142.518 228.3 150.408 231.132H166.65L182.946 198.174L183.78 159.924L173.742 155.016Z" fill="#AFAFAF"/>
<path d="M167.678 207.324C167.678 207.324 167.318 207.005 166.568 206.579C165.498 206.005 164.35 205.589 163.16 205.344C162.343 205.164 161.512 205.048 160.676 204.996C159.714 204.923 158.745 204.992 157.802 205.2C155.668 205.748 153.757 206.947 152.336 208.632C150.892 210.297 149.834 212.262 149.24 214.386C148.75 216.121 148.425 217.899 148.268 219.696C148.112 221.232 148.058 222.486 148.004 223.344C148.004 223.752 147.956 224.082 147.944 224.34C147.945 224.457 147.929 224.574 147.896 224.688C147.889 224.572 147.889 224.455 147.896 224.34C147.896 224.076 147.896 223.74 147.896 223.344C147.896 222.474 147.932 221.226 148.058 219.678C148.185 217.852 148.493 216.043 148.976 214.278C149.566 212.106 150.639 210.096 152.114 208.397C153.58 206.666 155.553 205.44 157.754 204.894C158.717 204.693 159.704 204.639 160.682 204.732C161.53 204.794 162.37 204.924 163.196 205.122C164.399 205.389 165.553 205.842 166.616 206.465C166.903 206.642 167.174 206.843 167.426 207.065C167.519 207.142 167.604 207.229 167.678 207.324Z" fill="#263238"/>
<path d="M159.977 200.76C160.154 200.708 160.338 200.68 160.523 200.676C161.024 200.637 161.527 200.637 162.029 200.676C162.775 200.72 163.516 200.83 164.243 201.006C166.03 201.438 167.708 202.239 169.169 203.358C169.763 203.81 170.316 204.317 170.819 204.87C171.159 205.245 171.47 205.646 171.749 206.07C171.862 206.217 171.955 206.378 172.025 206.55C171.977 206.586 171.533 205.95 170.657 205.038C170.139 204.519 169.583 204.04 168.995 203.604C168.269 203.076 167.498 202.614 166.691 202.224C165.878 201.845 165.035 201.536 164.171 201.3C163.461 201.117 162.739 200.989 162.011 200.916C160.763 200.754 159.977 200.82 159.977 200.76Z" fill="#263238"/>
<path d="M174.653 198.954C174.402 198.964 174.15 198.946 173.903 198.9C173.423 198.84 172.733 198.768 171.869 198.702C167.382 198.367 162.873 198.907 158.591 200.292C157.769 200.556 157.109 200.79 156.659 200.964C156.43 201.065 156.19 201.144 155.945 201.198C156.152 201.054 156.376 200.938 156.611 200.85C157.049 200.64 157.703 200.376 158.519 200.082C162.804 198.565 167.372 198.02 171.893 198.486C172.751 198.576 173.447 198.678 173.921 198.78C174.17 198.814 174.415 198.873 174.653 198.954Z" fill="#263238"/>
<path d="M220.906 166.884C220.84 166.827 220.784 166.76 220.738 166.686L220.294 166.086L218.662 163.83C217.264 161.85 215.308 159.09 213.01 155.85L213.262 155.814C212.386 158.382 211.42 161.214 210.406 164.214L210.34 164.4L210.172 164.292L209.836 164.076C208.529 163.239 207.34 162.23 206.302 161.076C205.343 160.002 204.496 158.832 203.776 157.584C202.577 155.473 201.644 153.222 200.998 150.882C200.564 149.302 200.214 147.699 199.948 146.082C199.852 145.542 199.78 145.104 199.72 144.774C199.703 144.662 199.677 144.552 199.642 144.444C199.642 144.372 199.6 144.336 199.606 144.33C199.612 144.324 199.852 144.93 200.068 146.064C200.284 147.198 200.626 148.83 201.214 150.804C201.879 153.122 202.824 155.351 204.028 157.44C204.746 158.664 205.584 159.814 206.53 160.872C207.55 161.999 208.717 162.983 209.998 163.8L210.328 164.016L210.1 164.1C211.126 161.1 212.098 158.286 212.986 155.7L213.076 155.436L213.238 155.664C215.494 158.934 217.438 161.718 218.8 163.71C219.454 164.682 220 165.456 220.366 166.02L220.768 166.62C220.823 166.703 220.869 166.792 220.906 166.884Z" fill="#263238"/>
<g opacity="0.3">
<path d="M239.72 194.599C239.072 201.369 240.54 208.173 243.92 214.075C247.28 219.919 252.212 225.133 258.35 227.929C258.548 221.971 258.26 214.951 258.458 208.993L239.72 194.599Z" fill="black"/>
</g>
<path d="M239.04 186.756C239.04 186.756 236.412 187.482 238.38 192.864C240.348 198.246 241.008 197.916 242.322 202.944C243.636 207.972 245.166 212.544 247.458 215.412C249.75 218.28 258.288 224.052 258.288 224.052L265.944 216.852C265.944 216.852 264.684 211.452 264.984 207.816C265.284 204.18 266.052 195.216 265.944 193.662C265.836 192.108 264.192 188.412 264.192 188.412V185.868L260.256 173.76C260.256 173.76 258.066 172.776 257.304 176.274L255.99 172.56C255.99 172.56 253.914 172.23 253.368 176.496C252.822 180.762 253.806 186.666 253.806 186.666L252.708 194.1L251.07 199.134L249.648 199.35C249.648 199.35 247.506 198.75 246.336 194.736C245.166 190.722 241.992 185.88 239.04 186.756Z" fill="#E0E0E0"/>
<path d="M263.401 205.8C263.401 205.8 263.401 205.71 263.365 205.53C263.329 205.35 263.329 205.056 263.311 204.726C263.269 203.994 263.215 202.98 263.149 201.726C263.029 199.116 262.867 195.48 262.675 191.238L262.705 191.328C262.509 191.125 262.261 190.979 261.989 190.908C261.716 190.836 261.428 190.84 261.157 190.92C260.864 190.991 260.587 191.12 260.344 191.3C260.101 191.479 259.896 191.705 259.741 191.964C259.069 193.038 259.033 194.442 258.823 195.792C258.409 198.858 258.013 201.792 257.653 204.438C257.473 205.77 257.281 207.03 257.023 208.2C256.78 209.285 256.462 210.352 256.069 211.392C255.733 212.346 255.433 213.192 255.247 213.99C255.081 214.647 254.999 215.323 255.001 216C255.023 216.583 255.124 217.161 255.301 217.716C255.229 217.582 255.169 217.441 255.121 217.296C254.979 216.88 254.898 216.446 254.881 216.006C254.853 215.31 254.92 214.614 255.079 213.936C255.29 213.046 255.552 212.168 255.865 211.308C256.236 210.272 256.537 209.211 256.765 208.134C257.011 206.976 257.197 205.734 257.365 204.39C257.713 201.726 258.103 198.81 258.511 195.738C258.607 195.06 258.679 194.382 258.799 193.71C258.898 193.031 259.126 192.377 259.471 191.784C259.65 191.493 259.885 191.24 260.162 191.04C260.439 190.84 260.753 190.698 261.085 190.62C261.409 190.523 261.753 190.519 262.079 190.608C262.405 190.697 262.699 190.876 262.927 191.124L262.957 191.166V191.214C263.107 195.456 263.233 199.092 263.323 201.708C263.323 202.974 263.377 203.988 263.401 204.708C263.401 205.038 263.401 205.308 263.401 205.512C263.412 205.608 263.412 205.704 263.401 205.8Z" fill="#747474"/>
<path d="M259.199 192C259.063 191.786 258.954 191.556 258.875 191.316C258.625 190.676 258.41 190.023 258.233 189.36C257.976 188.375 257.793 187.372 257.687 186.36C257.613 185.762 257.601 185.159 257.651 184.56C257.707 183.889 257.934 183.245 258.311 182.688C258.648 182.188 259.142 181.816 259.715 181.632L259.829 181.602L259.889 181.704C260.999 183.66 261.965 185.388 262.637 186.63L263.423 188.1C263.531 188.272 263.616 188.457 263.675 188.652C263.541 188.499 263.424 188.332 263.327 188.154L262.463 186.732C261.743 185.532 260.741 183.81 259.625 181.86L259.799 181.932C259.297 182.099 258.865 182.428 258.569 182.868C258.224 183.382 258.017 183.978 257.969 184.596C257.909 185.182 257.909 185.773 257.969 186.36C258.06 187.369 258.218 188.371 258.443 189.36C258.635 190.2 258.845 190.872 258.983 191.334C259.077 191.548 259.15 191.771 259.199 192Z" fill="#747474"/>
<path d="M257.363 192.984C257.309 192.754 257.285 192.518 257.291 192.282C257.291 191.766 257.243 191.13 257.213 190.38C257.165 188.772 257.111 186.552 257.081 184.098C256.991 182 257.023 179.899 257.177 177.804C257.252 177.168 257.389 176.542 257.585 175.932C257.643 175.702 257.738 175.483 257.867 175.284C257.646 176.119 257.488 176.97 257.393 177.828C257.243 179.418 257.393 181.638 257.393 184.092C257.393 186.546 257.441 188.766 257.435 190.374C257.435 191.13 257.435 191.766 257.435 192.282C257.437 192.518 257.412 192.754 257.363 192.984Z" fill="#747474"/>
<path d="M250.889 213.15C250.847 213.114 251.327 212.55 251.915 211.524C252.26 210.925 252.559 210.301 252.809 209.658C253.104 208.866 253.333 208.051 253.493 207.222C253.633 206.389 253.704 205.546 253.703 204.702C253.694 204.012 253.634 203.324 253.523 202.644C253.325 201.474 253.073 200.778 253.127 200.76C253.222 200.906 253.295 201.066 253.343 201.234C253.513 201.678 253.645 202.136 253.739 202.602C253.886 203.291 253.971 203.992 253.991 204.696C254.044 206.431 253.731 208.159 253.073 209.766C252.808 210.417 252.485 211.044 252.107 211.638C251.857 212.04 251.574 212.422 251.261 212.778C251.039 213.03 250.907 213.162 250.889 213.15Z" fill="#747474"/>
<path d="M264.331 209.4L270.973 211.704C270.973 211.704 277.321 208.422 281.695 211.704C286.069 214.986 289.867 223.632 288.667 227.13C288.667 227.13 285.667 230.862 283.351 231.408C281.035 231.954 272.125 229.788 268.411 229.008C264.697 228.228 258.289 224.064 258.289 224.064L264.331 209.4Z" fill="#E0E0E0"/>
<path d="M265.147 219.174C265.1 218.978 265.076 218.776 265.075 218.574C265.075 218.124 265.021 217.59 264.985 216.966C264.913 215.61 264.823 213.738 264.793 211.662C264.763 209.586 264.823 207.708 264.943 206.352C265.003 205.674 265.081 205.152 265.147 204.75C265.162 204.544 265.208 204.342 265.285 204.15C265.333 204.15 265.231 204.99 265.165 206.346C265.099 207.702 265.075 209.568 265.105 211.638C265.135 213.708 265.177 215.496 265.201 216.936C265.201 217.614 265.201 218.166 265.201 218.544C265.217 218.756 265.199 218.969 265.147 219.174Z" fill="#747474"/>
<path d="M287.052 211.427C286.364 210.713 285.626 210.047 284.844 209.435C282.923 207.998 280.62 207.161 278.224 207.03C275.828 206.898 273.447 207.479 271.38 208.697C270.542 209.22 269.74 209.799 268.98 210.431C269.139 210.211 269.322 210.01 269.526 209.831C270.066 209.33 270.655 208.884 271.284 208.499C273.371 207.2 275.808 206.575 278.263 206.712C280.718 206.848 283.071 207.739 285 209.261C285.584 209.71 286.119 210.219 286.596 210.779C286.773 210.977 286.926 211.194 287.052 211.427Z" fill="#263238"/>
<path d="M286.201 205.89C285.343 205.274 284.415 204.762 283.435 204.366C281.028 203.512 278.413 203.434 275.959 204.144C274.609 204.523 273.31 205.063 272.089 205.752C271.095 206.323 270.157 206.986 269.287 207.732C268.543 208.368 267.973 208.932 267.583 209.31C267.392 209.529 267.181 209.73 266.953 209.91C267.109 209.668 267.29 209.443 267.493 209.238C268.011 208.654 268.562 208.099 269.143 207.576C270.005 206.798 270.944 206.108 271.945 205.518C273.178 204.798 274.499 204.239 275.875 203.856C278.389 203.122 281.075 203.234 283.519 204.174C284.249 204.466 284.937 204.853 285.565 205.326C285.787 205.488 285.937 205.644 286.051 205.74C286.165 205.836 286.201 205.884 286.201 205.89Z" fill="#263238"/>
<path d="M286.253 201.09C286.253 201.15 285.053 200.796 283.145 200.538C282.018 200.387 280.881 200.315 279.743 200.322C278.35 200.338 276.96 200.462 275.585 200.694C274.214 200.946 272.864 201.303 271.547 201.762C270.474 202.143 269.43 202.6 268.421 203.13C266.699 204.03 265.727 204.762 265.691 204.708C265.895 204.51 266.118 204.333 266.357 204.18C266.619 203.974 266.893 203.786 267.179 203.616C267.509 203.406 267.881 203.16 268.313 202.932C269.322 202.374 270.371 201.893 271.451 201.492C272.777 201.008 274.142 200.639 275.531 200.388C276.919 200.153 278.324 200.035 279.731 200.034C280.883 200.04 282.032 200.134 283.169 200.316C283.655 200.376 284.087 200.49 284.465 200.568C284.794 200.635 285.118 200.719 285.437 200.82C285.717 200.886 285.99 200.977 286.253 201.09Z" fill="#263238"/>
<path d="M235.358 142.338C235.606 142.897 235.761 143.493 235.814 144.102C235.993 145.823 235.908 147.561 235.562 149.256C235.351 150.473 235.065 151.675 234.704 152.856C234.231 154.23 233.649 155.564 232.964 156.846C231.53 159.606 229.73 162.612 227.642 165.846L227.402 166.224V165.774C227.402 163.65 227.402 161.424 227.402 159.114L227.636 159.228L222.002 163.722L222.05 163.65C220.713 168.03 219.892 172.55 219.602 177.12C219.05 184.422 219.494 191.406 219.836 197.742C220.178 204.078 220.328 209.796 220.526 214.596C220.724 219.396 220.886 223.272 221.03 225.954C221.114 227.286 221.174 228.318 221.216 229.038C221.216 229.38 221.258 229.638 221.27 229.842C221.282 230.046 221.27 230.118 221.27 230.118C221.27 230.118 221.27 230.028 221.228 229.848C221.186 229.668 221.18 229.386 221.144 229.044C221.078 228.342 220.994 227.304 220.904 225.96C220.724 223.284 220.514 219.402 220.304 214.602C220.094 209.802 219.836 204.096 219.548 197.754C219.26 191.412 218.738 184.422 219.29 177.096C219.593 172.499 220.437 167.954 221.804 163.554V163.512H221.84L227.456 159.006L227.69 158.814V159.114C227.69 161.424 227.69 163.65 227.69 165.774L227.444 165.696C231.566 159.306 234.92 153.75 235.436 149.256C235.792 147.577 235.901 145.855 235.76 144.144C235.711 143.694 235.628 143.249 235.514 142.812C235.394 142.488 235.358 142.338 235.358 142.338Z" fill="#263238"/>
<path d="M224.59 219.731H224.398C223.961 219.759 223.553 219.956 223.258 220.28C222.964 220.605 222.807 221.03 222.821 221.468C222.835 221.906 223.019 222.321 223.333 222.625C223.648 222.93 224.069 223.1 224.506 223.1C224.944 223.1 225.365 222.93 225.679 222.625C225.994 222.321 226.177 221.906 226.191 221.468C226.205 221.03 226.049 220.605 225.754 220.28C225.46 219.956 225.051 219.759 224.614 219.731H224.59Z" fill="white"/>
<path d="M224.592 196.607H224.4C223.965 196.635 223.557 196.832 223.264 197.155C222.971 197.478 222.815 197.902 222.829 198.338C222.843 198.774 223.026 199.187 223.339 199.491C223.653 199.794 224.072 199.964 224.508 199.964C224.944 199.964 225.363 199.794 225.677 199.491C225.99 199.187 226.173 198.774 226.187 198.338C226.201 197.902 226.045 197.478 225.752 197.155C225.459 196.832 225.051 196.635 224.616 196.607H224.592Z" fill="white"/>
<path d="M224.399 175.92C224.847 175.949 225.288 175.8 225.626 175.504C225.963 175.208 226.17 174.79 226.199 174.342C226.228 173.894 226.079 173.453 225.783 173.115C225.487 172.778 225.069 172.571 224.621 172.542H224.399C223.95 172.542 223.52 172.72 223.203 173.038C222.885 173.355 222.707 173.785 222.707 174.234C222.707 174.683 222.885 175.113 223.203 175.43C223.52 175.748 223.95 175.926 224.399 175.926V175.92Z" fill="white"/>
<path d="M198.464 115.242C196.364 112.908 194.264 110.556 192.71 107.82C191.156 105.084 190.262 101.886 190.766 98.8199C191.066 97.0199 191.834 95.2799 191.966 93.4199C192.134 90.8999 191.078 88.2659 191.966 85.9079C193.358 82.2119 198.332 81.6419 201.344 79.0919C203.69 77.1059 204.83 73.8839 207.41 72.2159C209.666 70.7519 212.564 70.7879 215.21 71.1599C217.856 71.5319 220.544 72.2099 223.208 71.8499C225.104 71.5979 226.892 70.8299 228.746 70.3679C230.6 69.9059 232.682 69.7679 234.332 70.7519C235.982 71.7359 236.918 74.0579 235.832 75.6359C238.916 74.2139 242.834 76.6199 243.68 79.9079C244.526 83.1959 242.834 86.7539 240.218 88.9079C237.602 91.0619 234.218 92.0879 230.888 92.7179C221.444 94.5179 211.19 93.4919 203.048 88.3799" fill="#263238"/>
<path d="M231.682 147C231.22 143.4 230.842 140.442 230.818 140.07C230.818 140.07 242.77 137.382 242.11 125.298C241.792 119.454 240.16 107.478 238.552 96.66C237.726 91.052 234.816 85.9614 230.404 82.4029C225.991 78.8444 220.4 77.0795 214.744 77.46L213.544 77.532C201.034 79.11 195.376 90.618 197.296 103.086L204.052 144.888C204.052 144.888 206.932 154.134 213.094 155.736L220.894 166.848L222.178 162.048L227.974 156.996C229.085 155.69 230.045 154.263 230.836 152.742C231.721 150.967 232.017 148.955 231.682 147Z" fill="#E0E0E0"/>
<path d="M230.825 139.902C230.825 139.902 223.235 141.03 214.781 136.476C214.781 136.476 219.089 144.918 231.065 143.028L230.825 139.902Z" fill="#747474"/>
<path d="M234.671 107.052C234.705 107.502 234.562 107.947 234.273 108.293C233.984 108.639 233.571 108.859 233.123 108.906C232.905 108.938 232.682 108.926 232.469 108.871C232.255 108.815 232.055 108.717 231.88 108.583C231.705 108.449 231.558 108.281 231.449 108.089C231.34 107.897 231.271 107.686 231.245 107.466C231.205 107.013 231.346 106.562 231.637 106.213C231.928 105.863 232.346 105.643 232.799 105.6C233.018 105.569 233.241 105.582 233.454 105.639C233.668 105.696 233.868 105.795 234.042 105.93C234.217 106.066 234.362 106.235 234.47 106.428C234.578 106.62 234.647 106.833 234.671 107.052Z" fill="#263238"/>
<path d="M236.355 102.768C236.157 103.008 234.783 102.126 232.929 102.258C231.075 102.39 229.797 103.404 229.557 103.2C229.455 103.11 229.647 102.69 230.211 102.216C230.976 101.605 231.911 101.246 232.887 101.19C233.854 101.119 234.817 101.361 235.635 101.88C236.235 102.264 236.451 102.66 236.355 102.768Z" fill="#263238"/>
<path d="M217.142 108.306C217.177 108.755 217.035 109.201 216.745 109.546C216.456 109.892 216.042 110.11 215.594 110.154C215.376 110.187 215.153 110.176 214.94 110.121C214.726 110.066 214.526 109.969 214.351 109.835C214.176 109.701 214.029 109.534 213.92 109.342C213.811 109.151 213.742 108.939 213.716 108.72C213.682 108.271 213.824 107.827 214.112 107.481C214.4 107.135 214.81 106.915 215.258 106.866C215.476 106.834 215.699 106.846 215.913 106.902C216.127 106.957 216.328 107.055 216.503 107.189C216.679 107.323 216.826 107.491 216.936 107.683C217.045 107.875 217.115 108.087 217.142 108.306Z" fill="#263238"/>
<path d="M218.143 104.334C217.939 104.574 216.571 103.692 214.717 103.824C212.863 103.956 211.561 104.97 211.345 104.754C211.237 104.664 211.429 104.244 211.993 103.77C212.76 103.16 213.697 102.802 214.675 102.744C215.639 102.675 216.601 102.917 217.417 103.434C218.017 103.83 218.239 104.226 218.143 104.334Z" fill="#263238"/>
<path d="M225.791 117.648C225.791 117.54 226.919 117.264 228.791 116.898C229.259 116.82 229.703 116.694 229.763 116.37C229.769 115.876 229.624 115.393 229.349 114.984L227.705 111.468C225.419 106.464 223.727 102.33 223.931 102.24C224.135 102.15 226.151 106.134 228.443 111.144L230.027 114.684C230.362 115.235 230.494 115.887 230.399 116.526C230.341 116.697 230.245 116.853 230.118 116.982C229.991 117.11 229.837 117.209 229.667 117.27C229.409 117.359 229.141 117.416 228.869 117.438C226.973 117.666 225.809 117.75 225.791 117.648Z" fill="#263238"/>
<path d="M218.132 97.0256C217.982 97.5476 216.116 97.4276 213.932 97.8356C211.748 98.2436 210.05 98.9576 209.732 98.5256C209.588 98.3156 209.864 97.8236 210.542 97.2836C211.451 96.6245 212.496 96.1796 213.601 95.9822C214.705 95.7848 215.84 95.8399 216.92 96.1436C217.766 96.4136 218.198 96.7856 218.132 97.0256Z" fill="#263238"/>
<path d="M235.314 97.4401C235.02 97.8841 233.712 97.5361 232.17 97.6141C230.628 97.6921 229.35 98.0881 229.02 97.6681C228.876 97.4641 229.056 97.0261 229.62 96.5881C230.353 96.0609 231.225 95.7625 232.128 95.7304C233.03 95.6984 233.922 95.9342 234.69 96.4081C235.242 96.8041 235.446 97.2001 235.314 97.4401Z" fill="#263238"/>
<path d="M198.912 111.996C198.702 111.924 190.452 110.1 191.268 118.338C192.084 126.576 201 123.888 201 123.654C201 123.42 198.912 111.996 198.912 111.996Z" fill="#E0E0E0"/>
<path d="M197.352 120.948C197.31 120.948 197.22 121.062 196.986 121.194C196.661 121.375 196.277 121.423 195.918 121.326C195.012 121.092 194.118 119.784 193.956 118.326C193.866 117.622 193.934 116.906 194.154 116.232C194.207 115.968 194.324 115.722 194.493 115.513C194.662 115.304 194.879 115.139 195.126 115.032C195.287 114.972 195.464 114.971 195.626 115.028C195.788 115.085 195.925 115.196 196.014 115.344C196.146 115.566 196.11 115.734 196.152 115.74C196.194 115.746 196.314 115.59 196.218 115.254C196.15 115.054 196.017 114.882 195.84 114.768C195.718 114.686 195.581 114.629 195.436 114.6C195.292 114.571 195.144 114.571 195 114.6C194.669 114.701 194.369 114.886 194.13 115.136C193.89 115.386 193.719 115.693 193.632 116.028C193.35 116.776 193.258 117.581 193.362 118.374C193.578 120.03 194.562 121.5 195.804 121.722C196.032 121.765 196.267 121.756 196.492 121.696C196.716 121.636 196.924 121.526 197.1 121.374C197.358 121.146 197.4 120.96 197.352 120.948Z" fill="#747474"/>
<path d="M237.947 85.41C237.383 88.692 230.747 91.698 225.215 91.536C220.133 91.386 217.619 88.866 213.929 87.072C211.589 85.938 211.589 85.938 208.415 86.472C205.853 86.886 204.521 89.916 203.081 92.076C205.823 98.076 204.713 105.012 203.549 111.492C203.499 112.223 203.205 112.916 202.715 113.46C201.791 114.276 200.315 113.79 199.379 112.956C197.921 111.618 197.255 109.638 196.781 107.718C195.619 103.351 195.341 98.7957 195.965 94.32C196.596 89.8224 198.532 85.6085 201.533 82.2C205.458 78.0638 210.837 75.6136 216.533 75.366C222.202 75.1628 227.79 76.7499 232.505 79.902C234.689 81.336 236.705 83.106 237.965 85.404" fill="#263238"/>
<path d="M227.008 121.8L222.808 119.844C222.578 119.707 222.313 119.641 222.046 119.652C221.75 119.718 221.491 119.894 221.32 120.144C220.827 120.733 220.52 121.454 220.437 122.218C220.354 122.981 220.498 123.752 220.852 124.434C221.236 125.097 221.841 125.606 222.561 125.871C223.28 126.136 224.07 126.141 224.794 125.886C226.282 125.286 227.002 123.54 227.122 121.932L227.008 121.8Z" fill="#747474"/>
<path d="M224.927 126.198C224.927 126.234 224.729 126.354 224.327 126.444C223.726 126.552 223.106 126.506 222.527 126.312C221.641 126.013 220.899 125.395 220.445 124.578C220.158 124.08 219.986 123.524 219.941 122.951C219.897 122.378 219.981 121.802 220.187 121.266C220.398 120.71 220.73 120.208 221.159 119.796C221.367 119.599 221.597 119.426 221.843 119.28C221.991 119.192 222.157 119.14 222.329 119.13C222.496 119.123 222.662 119.154 222.815 119.22C223.039 119.333 223.257 119.457 223.469 119.592L224.039 119.946L225.065 120.582C226.307 121.374 227.057 121.902 227.015 121.974C226.973 122.046 226.145 121.662 224.843 120.966L223.781 120.366L223.181 120.036C222.977 119.934 222.761 119.796 222.581 119.724C222.507 119.688 222.425 119.674 222.343 119.683C222.262 119.691 222.184 119.722 222.119 119.772C221.92 119.897 221.735 120.044 221.567 120.21C221.211 120.564 220.933 120.989 220.751 121.458C220.577 121.912 220.503 122.399 220.534 122.884C220.565 123.37 220.701 123.843 220.931 124.272C221.305 124.99 221.918 125.555 222.665 125.868C223.182 126.076 223.734 126.18 224.291 126.174C224.687 126.192 224.909 126.156 224.927 126.198Z" fill="#263238"/>
<path d="M223.601 107.262C223.541 106.559 223.431 105.861 223.271 105.174C222.974 104.025 222.44 102.951 221.703 102.021C220.966 101.091 220.042 100.325 218.992 99.773C217.941 99.221 216.787 98.8948 215.603 98.8154C214.419 98.736 213.232 98.9051 212.117 99.312C211.349 99.5877 210.626 99.9781 209.975 100.47C209.28 100.967 208.672 101.575 208.175 102.27C207.105 103.716 206.528 105.467 206.528 107.265C206.528 109.063 207.105 110.814 208.175 112.26C208.672 112.955 209.28 113.563 209.975 114.06C210.626 114.552 211.349 114.942 212.117 115.218C213.232 115.621 214.419 115.787 215.601 115.706C216.784 115.625 217.937 115.298 218.987 114.747C220.036 114.195 220.959 113.431 221.697 112.503C222.434 111.575 222.97 110.503 223.271 109.356C223.43 108.671 223.54 107.975 223.601 107.274C223.608 107.32 223.608 107.366 223.601 107.412C223.601 107.52 223.601 107.658 223.601 107.82C223.606 108.043 223.59 108.266 223.553 108.486C223.519 108.789 223.465 109.09 223.391 109.386C223.201 110.203 222.887 110.986 222.461 111.708C221.436 113.46 219.83 114.797 217.922 115.487C216.013 116.178 213.923 116.178 212.015 115.488C211.22 115.204 210.473 114.799 209.801 114.288C209.085 113.775 208.456 113.149 207.941 112.434C206.833 110.936 206.234 109.122 206.234 107.259C206.234 105.396 206.833 103.582 207.941 102.084C208.453 101.368 209.079 100.742 209.795 100.23C210.467 99.7191 211.214 99.3143 212.009 99.03C213.479 98.502 215.064 98.3777 216.599 98.67C217.814 98.9024 218.965 99.3921 219.975 100.106C220.985 100.82 221.831 101.742 222.455 102.81C222.881 103.532 223.195 104.315 223.385 105.132C223.459 105.428 223.513 105.729 223.547 106.032C223.584 106.252 223.6 106.475 223.595 106.698C223.595 106.86 223.595 106.998 223.595 107.106C223.605 107.157 223.607 107.21 223.601 107.262Z" fill="#263238"/>
<path d="M244.145 106.452C244.086 105.767 243.98 105.088 243.827 104.418C243.346 102.603 242.268 101.003 240.767 99.8759C239.744 99.0981 238.551 98.5738 237.287 98.3459C235.836 98.0796 234.34 98.206 232.955 98.7119C232.209 98.9816 231.508 99.3596 230.873 99.8339C230.205 100.323 229.617 100.914 229.133 101.586C228.096 102.996 227.536 104.701 227.536 106.452C227.536 108.203 228.096 109.908 229.133 111.318C229.616 111.989 230.203 112.578 230.873 113.064C231.506 113.542 232.208 113.923 232.955 114.192C234.341 114.695 235.836 114.821 237.287 114.558C238.551 114.33 239.744 113.806 240.767 113.028C242.268 111.901 243.346 110.301 243.827 108.486C243.98 107.816 244.086 107.136 244.145 106.452C244.159 106.63 244.159 106.808 244.145 106.986C244.147 107.205 244.131 107.424 244.097 107.64C244.065 107.935 244.013 108.228 243.941 108.516C243.558 110.087 242.733 111.516 241.564 112.633C240.394 113.749 238.928 114.507 237.341 114.816C235.844 115.099 234.299 114.976 232.865 114.462C231.279 113.884 229.898 112.854 228.893 111.498C227.813 110.037 227.23 108.268 227.23 106.452C227.23 104.635 227.813 102.867 228.893 101.406C229.898 100.05 231.279 99.0196 232.865 98.4419C234.299 97.9276 235.844 97.8054 237.341 98.0879C238.928 98.3968 240.394 99.1545 241.564 100.271C242.733 101.388 243.558 102.817 243.941 104.388C244.013 104.676 244.065 104.969 244.097 105.264C244.131 105.48 244.147 105.699 244.145 105.918C244.159 106.096 244.159 106.274 244.145 106.452Z" fill="#263238"/>
<path d="M227.398 104.556C227.362 104.586 227.164 104.424 226.798 104.25C226.326 104.025 225.809 103.912 225.286 103.92C224.765 103.927 224.252 104.059 223.792 104.304C223.432 104.49 223.24 104.664 223.192 104.628C223.144 104.592 223.3 104.364 223.66 104.112C224.134 103.789 224.692 103.612 225.266 103.602C225.84 103.592 226.403 103.751 226.888 104.058C227.254 104.298 227.398 104.532 227.398 104.556Z" fill="#263238"/>
<path d="M206.911 106.038C205.724 107.116 204.469 108.119 203.155 109.038C201.898 110.038 200.579 110.958 199.207 111.792C200.393 110.71 201.65 109.707 202.969 108.792C204.222 107.79 205.539 106.87 206.911 106.038Z" fill="#263238"/>
<g opacity="0.3">
<path d="M199.801 145.086C198.967 153.228 202.063 161.826 208.597 166.758C209.107 167.148 209.749 167.532 210.355 167.31C210.759 167.114 211.082 166.783 211.267 166.374C213.097 163.212 213.784 159.518 213.211 155.91C212.179 158.634 211.291 161.31 210.247 164.154C204.565 160.698 201.001 153.354 199.801 145.086Z" fill="black"/>
</g>
<path opacity="0.3" d="M221.922 163.602L226.722 161.85L227.514 169.956C227.514 169.956 232.686 160.53 234.828 156.234C236.97 151.938 235.866 144.342 235.866 144.342C235.866 144.342 236.628 150.942 231.45 159.384L227.538 165.744V159.084L221.922 163.602Z" fill="black"/>
<g opacity="0.3">
<path d="M166.199 204.797C164.011 203.868 161.607 203.567 159.257 203.927C156.753 204.132 154.357 205.039 152.345 206.543C150.401 208.109 149.087 210.581 149.345 213.065L149.585 213.095C151.259 208.571 154.583 205.295 158.873 204.881C163.163 204.467 167.345 206.387 170.273 209.537C169.955 207.185 168.311 205.799 166.199 204.797Z" fill="black"/>
</g>
<g opacity="0.3">
<path d="M287.365 209.4C285.702 207.693 283.528 206.575 281.173 206.214C279.121 205.871 277.019 205.993 275.021 206.571C273.022 207.15 271.18 208.17 269.629 209.556L270.541 208.812C272.861 207.415 275.525 206.692 278.233 206.724C280.951 206.77 283.558 207.812 285.559 209.652C287.359 211.356 288.433 213.666 289.459 215.916C289.625 214.742 289.523 213.546 289.16 212.417C288.798 211.289 288.184 210.257 287.365 209.4Z" fill="black"/>
</g>
<path d="M256.469 171.78C256.518 171.555 256.59 171.336 256.685 171.126C256.871 170.652 257.099 170.07 257.363 169.38C257.963 167.91 258.743 165.882 259.583 163.62C260.423 161.358 261.149 159.3 261.671 157.812L262.271 156.042C262.335 155.821 262.424 155.608 262.535 155.406C262.516 155.636 262.466 155.862 262.385 156.078C262.271 156.51 262.091 157.122 261.857 157.878C261.389 159.39 260.693 161.478 259.853 163.728C259.013 165.978 258.179 168.018 257.543 169.464C257.231 170.19 256.943 170.772 256.769 171.174C256.694 171.388 256.593 171.591 256.469 171.78Z" fill="#263238"/>
<path d="M180.829 172.368C180.745 172.368 180.091 169.53 179.371 165.99C178.651 162.45 178.135 159.6 178.201 159.552C178.267 159.504 178.933 162.39 179.653 165.93C180.373 169.47 180.913 172.35 180.829 172.368Z" fill="#263238"/>
<path d="M179.696 208.062C179.888 208.158 177.5 189.366 177.5 189.366C177.5 189.366 179.006 175.104 179.852 174.444V169.41C179.852 169.41 182.186 168 182.81 170.28C182.81 170.28 184.88 168.48 185.21 172.758C185.54 177.036 185.648 181.404 185.648 181.404L190.25 192.912L191.006 193.296C191.006 193.296 191.996 184.296 192.572 182.952C193.148 181.608 193.544 178.398 195.722 178.884C197.9 179.37 198.086 181.17 197.696 184.11C197.306 187.05 196.814 190.11 197 191.994C197.186 193.878 198.044 198.072 197.78 201.396C197.516 204.72 195.692 208.224 193.784 210.684C191.876 213.144 188.222 218.238 186.242 219.768C185.6 220.308 179.696 208.062 179.696 208.062Z" fill="#E0E0E0"/>
<path d="M182.021 192.768C181.991 192.501 181.991 192.231 182.021 191.964C182.057 191.364 182.111 190.656 182.171 189.78C182.309 187.938 182.525 185.394 182.771 182.58C182.903 181.182 183.029 179.85 183.143 178.626C183.211 178.062 183.211 177.492 183.143 176.928C183.079 176.445 182.87 175.993 182.543 175.632C182.303 175.373 182.013 175.167 181.689 175.025C181.366 174.884 181.018 174.811 180.665 174.81C180.401 174.822 180.138 174.855 179.879 174.906C179.938 174.865 180.003 174.832 180.071 174.81C180.263 174.738 180.466 174.695 180.671 174.684C181.049 174.662 181.428 174.722 181.781 174.86C182.134 174.998 182.453 175.21 182.717 175.482C183.08 175.872 183.312 176.364 183.383 176.892C183.458 177.476 183.458 178.066 183.383 178.65C183.275 179.85 183.155 181.212 183.035 182.61C182.777 185.418 182.525 187.956 182.327 189.81L182.081 191.988C182.083 192.249 182.063 192.51 182.021 192.768Z" fill="#747474"/>
<path d="M184.493 185.082C184.158 185.539 183.884 186.037 183.677 186.564C183.311 187.893 183.057 189.249 182.915 190.62C182.663 192.228 182.423 193.68 182.231 194.73C182.162 195.303 182.037 195.867 181.859 196.416C181.862 195.839 181.914 195.263 182.015 194.694C182.147 193.638 182.357 192.18 182.615 190.572C182.873 188.964 183.041 187.494 183.485 186.486C183.643 186.091 183.864 185.724 184.139 185.4C184.337 185.16 184.481 185.07 184.493 185.082Z" fill="#747474"/>
<path d="M182.801 170.034C182.884 170.225 182.939 170.427 182.963 170.634C183.047 171.018 183.149 171.576 183.263 172.272C183.491 173.658 183.743 175.584 183.905 177.726C184.067 179.868 184.097 181.812 184.073 183.216C184.073 183.918 184.043 184.488 184.013 184.878C184.018 185.081 183.994 185.283 183.941 185.478C183.868 184.724 183.838 183.967 183.851 183.21C183.821 181.806 183.749 179.874 183.593 177.744C183.437 175.614 183.221 173.688 183.047 172.296C182.92 171.548 182.838 170.792 182.801 170.034Z" fill="#747474"/>
<path d="M196.081 187.65C195.853 187.796 195.593 187.885 195.323 187.908C195.053 187.931 194.782 187.888 194.533 187.782C193.651 187.518 193.243 186.84 193.333 186.81C193.746 187.072 194.181 187.297 194.635 187.482C195.111 187.578 195.595 187.634 196.081 187.65Z" fill="#747474"/>
<path d="M179.95 205.722L167.794 210.834H160.546C160.546 210.834 153.382 213.072 152.278 219.792C151.174 226.512 151.018 229.962 154.168 230.796C157.318 231.63 166.216 231.72 170.626 230.256C175.036 228.792 186.592 219.456 186.592 219.456L187.702 212.712L179.95 205.722Z" fill="#E0E0E0"/>
<path d="M182.802 213.149C182.802 213.149 182.664 213.047 182.454 212.831C182.165 212.518 181.902 212.181 181.668 211.823C180.907 210.637 180.334 209.339 179.97 207.977C179.594 206.627 179.343 205.245 179.22 203.849C179.139 203.273 179.123 202.689 179.172 202.109C179.302 202.672 179.39 203.244 179.436 203.819C179.621 205.195 179.9 206.556 180.27 207.893C180.632 209.228 181.165 210.511 181.854 211.709C182.4 212.615 182.844 213.107 182.802 213.149Z" fill="#747474"/>
<path d="M188.101 215.28C188.423 214.439 188.654 213.566 188.791 212.676C189.063 210.505 188.478 208.314 187.159 206.568C186.421 205.536 185.587 204.636 184.885 203.76C184.246 202.996 183.694 202.163 183.241 201.276C182.943 200.671 182.741 200.023 182.641 199.356C182.604 199.113 182.604 198.867 182.641 198.624C182.782 199.512 183.061 200.373 183.469 201.174C183.941 202.03 184.502 202.835 185.143 203.574C185.845 204.426 186.685 205.326 187.441 206.382C188.176 207.372 188.694 208.507 188.959 209.712C189.163 210.699 189.19 211.715 189.037 212.712C188.936 213.377 188.751 214.026 188.485 214.644C188.389 214.86 188.299 215.022 188.239 215.13C188.179 215.238 188.107 215.286 188.101 215.28Z" fill="#747474"/>
<path d="M169.35 186C168.272 184.251 167.283 182.448 166.386 180.6C164.826 177.6 163.626 175.104 163.698 175.062C164.777 176.81 165.766 178.613 166.662 180.462C167.652 182.26 168.549 184.109 169.35 186Z" fill="white"/>
<path d="M189 164.105C189.512 162.567 190.123 161.064 190.83 159.605C191.444 158.106 192.151 156.647 192.948 155.237C192.433 156.774 191.822 158.277 191.118 159.737C190.506 161.237 189.798 162.696 189 164.105Z" fill="white"/>
<path d="M208.278 178.314C207.282 177.356 206.36 176.326 205.518 175.23C204.6 174.2 203.76 173.103 203.004 171.948C204 172.904 204.921 173.935 205.758 175.032C206.678 176.062 207.521 177.159 208.278 178.314Z" fill="white"/>
<path d="M203.844 197.856C204.453 196.76 205.147 195.712 205.92 194.724C206.616 193.68 207.396 192.695 208.254 191.778C207.647 192.876 206.952 193.923 206.178 194.91C205.486 195.957 204.705 196.943 203.844 197.856Z" fill="white"/>
<path d="M197.88 225.461C197.6 225.09 197.364 224.687 197.178 224.261C196.782 223.493 196.272 222.419 195.756 221.213C195.24 220.007 194.826 218.885 194.556 218.075C194.376 217.644 194.248 217.193 194.172 216.731C194.419 217.129 194.62 217.554 194.772 217.997L196.062 221.087C196.56 222.233 197.004 223.271 197.394 224.165C197.604 224.578 197.767 225.013 197.88 225.461Z" fill="white"/>
<path d="M214.801 213.726C213.574 213.645 212.355 213.462 211.159 213.18C209.937 212.999 208.732 212.714 207.559 212.328C209.994 212.591 212.402 213.058 214.759 213.726H214.801Z" fill="white"/>
<path d="M228 187.932C229.075 186.54 230.233 185.213 231.468 183.96C232.629 182.633 233.867 181.375 235.176 180.192C234.097 181.585 232.937 182.913 231.702 184.17C230.541 185.494 229.305 186.75 228 187.932Z" fill="white"/>
<path d="M241.199 222.329C241.133 222.389 239.195 220.139 236.867 217.319C234.539 214.499 232.709 212.159 232.775 212.105C232.841 212.051 234.779 214.295 237.107 217.115C239.435 219.935 241.253 222.275 241.199 222.329Z" fill="white"/>
<path d="M159.121 207.672C159.163 207.756 157.393 208.656 155.461 210.138C153.529 211.62 152.185 213.084 152.113 213.018C152.331 212.638 152.607 212.294 152.929 211.998C153.648 211.231 154.431 210.526 155.269 209.892C156.104 209.255 156.991 208.689 157.921 208.2C158.293 207.966 158.698 207.789 159.121 207.672Z" fill="white"/>
<path d="M164.064 194.4C163.683 195.249 163.21 196.054 162.654 196.8C162.181 197.604 161.619 198.353 160.98 199.032C161.363 198.184 161.835 197.379 162.39 196.632C162.863 195.828 163.424 195.079 164.064 194.4Z" fill="white"/>
<path d="M175.201 207.432C174.24 205.904 173.83 204.094 174.037 202.302C174.127 202.302 174.157 203.502 174.487 204.9C174.817 206.298 175.285 207.39 175.201 207.432Z" fill="white"/>
<path d="M176.848 166.079C176.102 166.34 175.325 166.503 174.538 166.565C173.763 166.728 172.97 166.787 172.18 166.739C172.928 166.48 173.706 166.316 174.496 166.253C175.269 166.094 176.059 166.036 176.848 166.079Z" fill="white"/>
<path d="M185.216 151.242C183.923 152.198 182.511 152.981 181.016 153.57C181.63 153.049 182.309 152.612 183.038 152.268C183.717 151.835 184.449 151.491 185.216 151.242Z" fill="white"/>
<path d="M208.739 157.512C207.892 156.65 207.117 155.718 206.423 154.728C205.654 153.797 204.963 152.804 204.359 151.758C205.983 153.546 207.448 155.471 208.739 157.512Z" fill="white"/>
<path d="M238.603 172.428C236.949 170.799 235.705 168.8 234.973 166.596C235.063 166.56 235.705 167.958 236.713 169.56C237.721 171.162 238.675 172.368 238.603 172.428Z" fill="white"/>
<path d="M250.002 176.184C249.278 178.293 248.354 180.328 247.242 182.262C247.562 181.192 247.978 180.154 248.484 179.16C248.895 178.122 249.403 177.125 250.002 176.184Z" fill="white"/>
<path d="M251.599 160.626C250.509 159.567 249.494 158.432 248.563 157.23C247.552 156.095 246.62 154.892 245.773 153.63C247.873 155.826 249.819 158.164 251.599 160.626Z" fill="white"/>
<path d="M234.188 147.99C233.998 147.034 233.907 146.061 233.918 145.086C233.828 144.113 233.842 143.134 233.96 142.164C234.15 143.12 234.241 144.093 234.23 145.068C234.324 146.041 234.31 147.021 234.188 147.99Z" fill="white"/>
<path d="M248.401 147.204C247.185 147.523 245.945 147.742 244.693 147.858C243.457 148.075 242.205 148.19 240.949 148.2C242.165 147.881 243.405 147.663 244.657 147.546C245.894 147.329 247.146 147.214 248.401 147.204Z" fill="white"/>
<path d="M270.739 163.626C269.905 162.259 269.16 160.84 268.507 159.378C267.765 157.96 267.115 156.495 266.562 154.992C267.399 156.359 268.147 157.778 268.801 159.24C269.54 160.659 270.187 162.124 270.739 163.626Z" fill="white"/>
<path d="M267 177.816C267.251 175.524 267.705 173.259 268.356 171.048C268.284 172.199 268.109 173.342 267.834 174.462C267.659 175.603 267.38 176.726 267 177.816Z" fill="white"/>
<path d="M277.345 189C276.645 187.505 276.044 185.965 275.545 184.392C274.95 182.853 274.455 181.278 274.062 179.676C274.758 181.175 275.359 182.716 275.863 184.29C276.455 185.827 276.95 187.4 277.345 189Z" fill="white"/>
<path d="M275.897 195.546C274.826 195.385 273.796 195.016 272.867 194.46C271.89 193.991 271.019 193.33 270.305 192.516C270.365 192.444 271.469 193.356 273.017 194.184C274.565 195.012 275.927 195.456 275.897 195.546Z" fill="white"/>
<path d="M289.198 210.462C288.39 209.152 287.763 207.739 287.332 206.262C288.14 207.572 288.768 208.984 289.198 210.462Z" fill="white"/>
<path d="M210.727 231.27C210.471 230.404 210.314 229.513 210.259 228.612C210.107 227.723 210.055 226.819 210.103 225.918C210.377 226.789 210.545 227.689 210.601 228.6C210.745 229.482 210.787 230.378 210.727 231.27Z" fill="white"/>
<path d="M251.484 230.237C251.512 229.359 251.643 228.487 251.874 227.639C252.01 226.771 252.245 225.921 252.576 225.107C252.549 225.986 252.416 226.858 252.18 227.705C252.049 228.574 251.815 229.424 251.484 230.237Z" fill="white"/>
<path d="M259.297 111.265L264.601 102.001C261.33 96.721 260.152 90.4083 261.3 84.3041C262.448 78.1999 265.837 72.7458 270.803 69.0143C275.768 65.2827 281.95 63.5437 288.132 64.139C294.315 64.7344 300.051 67.621 304.213 72.2315C308.375 76.842 310.662 82.8426 310.623 89.0537C310.585 95.2647 308.225 101.237 304.006 105.796C299.788 110.354 294.016 113.17 287.827 113.689C281.638 114.209 275.478 112.394 270.559 108.601L259.297 111.265Z" fill="#FAFAFA"/>
<path d="M259.295 111.265L270.557 108.697H270.671L270.599 108.601L270.491 108.703C272.069 109.926 273.785 110.961 275.603 111.787C277.771 112.757 280.066 113.412 282.419 113.731C283.723 113.913 285.04 113.979 286.355 113.929C287.033 113.893 287.717 113.875 288.413 113.821L290.513 113.503C296.771 112.276 302.326 108.71 306.047 103.531C308.114 100.666 309.546 97.3932 310.247 93.9309C310.961 90.2679 310.861 86.4927 309.953 82.8728C309.01 79.0988 307.184 75.6029 304.625 72.6728L303.599 71.5028C303.263 71.1248 302.867 70.8188 302.507 70.4708C302.147 70.1228 301.787 69.7748 301.379 69.4868L300.179 68.5988C299.788 68.2967 299.375 68.0239 298.943 67.7828L297.683 67.0148L296.363 66.3728C295.931 66.1471 295.487 65.9468 295.031 65.7728C291.492 64.378 287.684 63.7937 283.889 64.0628C280.311 64.3035 276.829 65.3277 273.689 67.0628C268.03 70.2107 263.799 75.4168 261.875 81.6008C261.105 84.2239 260.74 86.9495 260.795 89.6829C260.857 92.0545 261.261 94.4049 261.995 96.6609C262.614 98.5357 263.45 100.332 264.485 102.013V101.935C261.161 107.893 259.535 110.803 259.277 111.259C259.541 110.809 261.209 107.917 264.611 102.007V101.971V101.935C263.601 100.258 262.792 98.4672 262.199 96.6008C261.469 94.3604 261.065 92.0265 260.999 89.6708C260.96 86.9627 261.33 84.2642 262.097 81.6668C264.023 75.5664 268.212 70.435 273.803 67.3268C276.912 65.5954 280.364 64.571 283.913 64.3268C287.662 64.0626 291.423 64.6429 294.917 66.0248C295.367 66.1987 295.806 66.3991 296.231 66.6248L297.539 67.2608L298.799 68.0408C299.217 68.2808 299.618 68.5494 299.999 68.8448L301.199 69.7268C301.601 70.0148 301.937 70.3748 302.309 70.6988C302.681 71.0228 303.059 71.3468 303.389 71.7188L304.391 72.8168C306.921 75.7189 308.727 79.1796 309.659 82.9149C310.561 86.4887 310.661 90.2177 309.953 93.8349C309.268 97.2603 307.856 100.499 305.813 103.333C302.14 108.46 296.652 111.998 290.465 113.227L288.389 113.551C287.699 113.605 287.021 113.629 286.349 113.665C285.047 113.718 283.742 113.658 282.449 113.485C280.111 113.182 277.828 112.548 275.669 111.601C273.859 110.791 272.149 109.772 270.575 108.565L270.113 108.211L270.467 108.673L270.509 108.553L259.295 111.265Z" fill="#263238"/>
<path d="M292.438 87.9312C292.444 88.4032 292.589 88.8631 292.855 89.2531C293.121 89.6432 293.496 89.9461 293.933 90.124C294.37 90.3019 294.85 90.3469 295.313 90.2534C295.776 90.1598 296.201 89.9319 296.535 89.598C296.868 89.2642 297.096 88.8393 297.19 88.3766C297.283 87.9138 297.238 87.4338 297.061 86.9965C296.883 86.5592 296.58 86.1841 296.19 85.9181C295.8 85.6521 295.34 85.5071 294.868 85.5012C294.547 85.4971 294.23 85.5572 293.933 85.6779C293.636 85.7986 293.367 85.9775 293.14 86.2039C292.914 86.4304 292.735 86.6999 292.614 86.9965C292.494 87.2931 292.434 87.6109 292.438 87.9312Z" fill="#263238"/>
<path d="M282.727 87.931C282.733 88.4043 282.878 88.8654 283.146 89.2561C283.413 89.6468 283.79 89.9497 284.229 90.1268C284.668 90.3038 285.15 90.3471 285.613 90.2511C286.077 90.1552 286.501 89.9243 286.834 89.5875C287.167 89.2507 287.392 88.823 287.483 88.3583C287.573 87.8936 287.524 87.4125 287.341 86.9757C287.159 86.5389 286.851 86.1659 286.457 85.9035C286.063 85.641 285.6 85.501 285.127 85.501C284.809 85.501 284.494 85.564 284.201 85.6865C283.908 85.809 283.642 85.9884 283.419 86.2145C283.196 86.4405 283.02 86.7087 282.901 87.0033C282.782 87.298 282.723 87.6133 282.727 87.931Z" fill="#263238"/>
<path d="M273.036 86.7189C272.804 87.1306 272.698 87.6017 272.733 88.0729C272.768 88.5442 272.941 88.9948 273.23 89.3682C273.52 89.7416 273.913 90.0211 274.361 90.1718C274.809 90.3225 275.292 90.3376 275.748 90.2152C276.205 90.0928 276.615 89.8384 276.927 89.4839C277.24 89.1293 277.44 88.6904 277.504 88.2222C277.568 87.754 277.493 87.2773 277.287 86.8519C277.081 86.4265 276.754 86.0714 276.348 85.8309C276.073 85.6684 275.768 85.5625 275.452 85.5192C275.135 85.4759 274.813 85.4962 274.505 85.5789C274.197 85.6616 273.908 85.8051 273.655 86.0008C273.403 86.1966 273.192 86.4407 273.036 86.7189Z" fill="#263238"/>
</svg>
