<svg width="32" height="32" viewBox="0 0 32 32" fill="none" xmlns="http://www.w3.org/2000/svg">
<circle cx="16" cy="16" r="16" fill="#EFEFEF"/>
<path d="M13.7954 23.4998C14.3831 24.0185 15.1549 24.3332 16.0003 24.3332C16.8457 24.3332 17.6175 24.0185 18.2052 23.4998M21.0003 12.6665C21.0003 11.3404 20.4735 10.0687 19.5358 9.13097C18.5982 8.19329 17.3264 7.6665 16.0003 7.6665C14.6742 7.6665 13.4024 8.19329 12.4648 9.13097C11.5271 10.0687 11.0003 11.3404 11.0003 12.6665C11.0003 15.2417 10.3507 17.0048 9.62502 18.171C9.01291 19.1547 8.70685 19.6466 8.71807 19.7838C8.7305 19.9357 8.76268 19.9937 8.88511 20.0845C8.99568 20.1665 9.49413 20.1665 10.491 20.1665H21.5096C22.5065 20.1665 23.0049 20.1665 23.1155 20.0845C23.2379 19.9937 23.2701 19.9357 23.2825 19.7838C23.2938 19.6466 22.9877 19.1547 22.3756 18.171C21.6499 17.0048 21.0003 15.2417 21.0003 12.6665Z" stroke="#667085" stroke-width="1.66667" stroke-linecap="round" stroke-linejoin="round"/>
</svg>
