<svg width="52" height="52" viewBox="0 0 52 52" fill="none" xmlns="http://www.w3.org/2000/svg">
<g clip-path="url(#clip0_1372_24290)">
<path d="M16.8204 26.4214C16.8204 27.5231 15.9445 28.3616 14.8346 28.3616C14.0043 28.3616 13.39 27.892 13.39 27.008C13.39 25.9063 14.248 25.0223 15.3498 25.0223C16.1899 25.0223 16.8204 25.5374 16.8204 26.4214ZM7.26863 22.0436H6.8445C6.70962 22.0436 6.57312 22.1346 6.55525 22.2874L6.16687 24.6989L6.90788 24.6713C7.90075 24.6713 8.66775 24.5364 8.84812 23.3891C9.05612 22.1785 8.28913 22.0436 7.26863 22.0436ZM32.9079 22.0436H32.5016C32.3391 22.0436 32.2303 22.1346 32.2124 22.2874L31.8337 24.6989L32.5553 24.6713C33.7285 24.6713 34.541 24.3999 34.541 23.0463C34.5312 22.0891 33.6765 22.0436 32.9079 22.0436ZM52.0016 10.3339V42.1124C52.0012 43.2617 51.5444 44.3637 50.7318 45.1764C49.9191 45.9891 48.817 46.4458 47.6677 46.4463H4.33387C3.18459 46.4458 2.0825 45.9891 1.26984 45.1764C0.457172 44.3637 0.000430685 43.2617 0 42.1124V10.3339C0.000430685 9.18459 0.457172 8.0825 1.26984 7.26984C2.0825 6.45717 3.18459 6.00043 4.33387 6H47.6677C48.817 6.00043 49.9191 6.45717 50.7318 7.26984C51.5444 8.0825 52.0012 9.18459 52.0016 10.3339ZM11.5846 22.5571C11.5846 20.6608 10.1221 20.0286 8.45162 20.0286H4.84087C4.72423 20.0295 4.61198 20.0732 4.52541 20.1514C4.43884 20.2296 4.38399 20.3368 4.37125 20.4528L2.89088 29.6698C2.86325 29.8501 2.99975 30.0305 3.18012 30.0305H4.89612C5.13987 30.0305 5.36575 29.7689 5.39337 29.5154L5.79962 27.1136C5.89062 26.4636 6.99075 26.6895 7.42462 26.6895C10.0067 26.6895 11.5863 25.1555 11.5863 22.5555L11.5846 22.5571ZM19.1864 23.3518H17.4704C17.1275 23.3518 17.1096 23.849 17.0918 24.0928C16.5685 23.3258 15.8096 23.1893 14.9516 23.1893C12.74 23.1893 11.0516 25.1295 11.0516 27.2696C11.0516 29.0295 12.1534 30.1768 13.9132 30.1768C14.7257 30.1768 15.7365 29.7348 16.3053 29.1026C16.2527 29.2852 16.2222 29.4734 16.2143 29.6633C16.2143 29.8713 16.3053 30.024 16.5035 30.024H18.057C18.3008 30.024 18.5088 29.7624 18.5543 29.5089L19.4756 23.7044C19.5033 23.5321 19.3667 23.3518 19.1864 23.3518ZM22.8426 32.1901L28.5935 23.8295C28.639 23.784 28.639 23.7385 28.639 23.6768C28.639 23.524 28.5041 23.3615 28.3497 23.3615H26.6159C26.5352 23.3647 26.4564 23.3868 26.3858 23.426C26.3153 23.4652 26.2549 23.5205 26.2096 23.5874L23.8176 27.1088L22.8248 23.7239C22.7874 23.6209 22.7201 23.5315 22.6315 23.4672C22.5428 23.4029 22.437 23.3666 22.3275 23.3631H20.6391C20.4848 23.3631 20.3499 23.5256 20.3499 23.6784C20.3499 23.7873 22.1098 28.8069 22.2641 29.2846C22.0204 29.6275 20.4132 31.8668 20.4132 32.1381C20.4132 32.3006 20.5481 32.4274 20.7025 32.4274H22.4364C22.5175 32.422 22.5963 32.3982 22.6667 32.3576C22.7371 32.317 22.7973 32.2609 22.8426 32.1934V32.1901ZM37.2239 22.5571C37.2239 20.6608 35.7614 20.0286 34.0909 20.0286H30.5061C30.3861 20.0277 30.2697 20.07 30.1784 20.1479C30.087 20.2258 30.0269 20.3341 30.0089 20.4528L28.5464 29.6616C28.5285 29.842 28.6634 30.0224 28.8356 30.0224H30.6865C30.8669 30.0224 31.0017 29.8875 31.0472 29.7331L31.4535 27.1153C31.5445 26.4653 32.6462 26.6911 33.0785 26.6911C35.6427 26.6911 37.2239 25.1571 37.2239 22.5571ZM44.824 23.3518H43.108C42.7651 23.3518 42.7472 23.849 42.7196 24.0928C42.2224 23.3258 41.4554 23.1893 40.5795 23.1893C38.3679 23.1893 36.6795 25.1295 36.6795 27.2696C36.6795 29.0295 37.7812 30.1768 39.5411 30.1768C40.3813 30.1768 41.392 29.7348 41.9331 29.1026C41.9055 29.2375 41.8421 29.5268 41.8421 29.6633C41.8421 29.8713 41.9331 30.024 42.1314 30.024H43.693C43.9367 30.024 44.1447 29.7624 44.1903 29.5089L45.1116 23.7044C45.1393 23.5321 45.0044 23.3518 44.824 23.3518ZM49.1124 20.3455C49.1124 20.1651 48.9775 20.0303 48.8231 20.0303H47.1526C47.0177 20.0303 46.8812 20.1391 46.8634 20.274L45.4009 29.6633L45.3749 29.7088C45.3749 29.8713 45.5098 30.024 45.6901 30.024H47.1803C47.4061 30.024 47.632 29.7624 47.6499 29.5089L49.1124 20.3731V20.3455ZM40.9874 25.0223C39.8856 25.0223 39.0276 25.8981 39.0276 27.008C39.0276 27.8839 39.6597 28.3616 40.4901 28.3616C41.574 28.3616 42.4499 27.5312 42.4499 26.4214C42.4596 25.5374 41.8275 25.0223 40.9874 25.0223Z" fill="#113984"/>
</g>
<defs>
<clipPath id="clip0_1372_24290">
<rect width="52" height="52" fill="white"/>
</clipPath>
</defs>
</svg>
