<svg width="52" height="52" viewBox="0 0 52 52" fill="none" xmlns="http://www.w3.org/2000/svg">
<g clip-path="url(#clip0_1372_24295)">
<path d="M44.4515 22.8213C43.6488 22.8213 42.7632 23.4258 42.7632 24.8704H46.0765C46.0765 23.4258 45.238 22.8213 44.4515 22.8213ZM33.8533 23.0569C33.1123 23.0569 32.6524 23.3186 32.3193 23.6891L32.3372 28.4552C32.6524 28.7899 33.1042 29.0597 33.8533 29.0597C35.0363 29.0597 35.8309 27.7694 35.8309 26.0453C35.8309 24.3667 35.0184 23.0488 33.8533 23.0569ZM47.6658 5.77832H4.33192C3.18264 5.77875 2.08055 6.23549 1.26789 7.04816C0.455219 7.86082 -0.00152244 8.96291 -0.00195312 10.1122V41.8907C-0.00152244 43.04 0.455219 44.1421 1.26789 44.9547C2.08055 45.7674 3.18264 46.2241 4.33192 46.2246H47.6658C48.8151 46.2241 49.9172 45.7674 50.7298 44.9547C51.5425 44.1421 51.9992 43.04 51.9997 41.8907V10.1122C51.9992 8.96291 51.5425 7.86082 50.7298 7.04816C49.9172 6.23549 48.8151 5.77875 47.6658 5.77832ZM11.0318 28.2667C11.0318 30.5774 9.1988 31.8872 6.5273 31.9051C5.3219 31.902 4.12979 31.6532 3.0238 31.1738V28.1123C4.10767 28.6908 5.47105 29.1328 6.53542 29.1328C7.2488 29.1328 7.76392 28.9443 7.76392 28.3479C7.76392 26.8139 2.88892 27.3908 2.88892 23.8434C2.88892 21.5684 4.6228 20.2132 7.2228 20.2132C8.2888 20.2132 9.34505 20.3757 10.4094 20.7998V23.8158C9.42474 23.2999 8.33417 23.0185 7.2228 22.9936C6.54517 22.9936 6.1308 23.1918 6.1308 23.6891C6.1308 25.1337 11.0318 24.4479 11.0318 28.2667ZM17.2425 23.1561H14.805V27.7158C14.805 29.6024 16.8363 29.0158 17.2425 28.8533V31.4614C16.8184 31.6971 16.0417 31.8856 14.9952 31.8856C13.0907 31.8856 11.6639 30.4864 11.6639 28.5901L11.6818 18.3071L14.8148 17.6392V20.4196H17.2425V23.1561ZM23.9229 23.3722C23.5167 23.2373 22.2345 23.0472 21.4757 24.0401V31.6597H18.2712V20.4196H21.0434L21.2417 21.3669C21.9908 19.9857 23.489 20.2652 23.9132 20.4196H23.9229V23.3722ZM27.9042 31.6597H24.6802V20.4196H27.9042V31.6597ZM27.9042 18.7588L24.6802 19.4446V16.8364L27.9042 16.1507V18.7588ZM34.5943 31.8953C33.4747 31.8953 32.7889 31.4176 32.329 31.0828L32.3193 34.7114L29.1148 35.3891V20.4212H31.9407L32.1032 21.2158C32.5452 20.8096 33.3577 20.2132 34.6122 20.2132C36.8612 20.2132 38.9818 22.2444 38.9818 25.9738C38.9818 30.0461 36.8872 31.8856 34.5943 31.8953ZM49.0747 27.2462H42.8005C42.9452 28.7444 44.0453 29.1864 45.2917 29.1864C46.564 29.1864 47.5667 28.9151 48.4425 28.4731V31.0552C47.5667 31.5329 46.4194 31.8856 44.8854 31.8856C41.7622 31.8856 39.5765 29.9258 39.5765 26.0632C39.5765 22.7953 41.4274 20.2051 44.4792 20.2051C47.5212 20.2051 49.1104 22.7953 49.1104 26.0811C49.1104 26.3963 49.0828 27.0658 49.0747 27.2462Z" fill="#635BFF"/>
</g>
<defs>
<clipPath id="clip0_1372_24295">
<rect width="52" height="52" fill="white"/>
</clipPath>
</defs>
</svg>
