<svg width="50" height="40" viewBox="0 0 50 40" fill="none" xmlns="http://www.w3.org/2000/svg">
<rect x="0.5" y="0.5" width="49" height="39" rx="3.5" fill="white"/>
<rect x="0.5" y="0.5" width="49" height="39" rx="3.5" stroke="#F2F4F7"/>
<path fill-rule="evenodd" clip-rule="evenodd" d="M15.809 26.4304H12.7799L10.5085 16.3206C10.4007 15.8556 10.1718 15.4444 9.83508 15.2507C8.99475 14.7637 8.06876 14.3762 7.05859 14.1807V13.7915H11.9381C12.6116 13.7915 13.1167 14.3762 13.2008 15.0552L14.3794 22.3477L17.4069 13.7915H20.3518L15.809 26.4304ZM22.0354 26.4304H19.1747L21.5303 13.7915H24.391L22.0354 26.4304ZM28.092 17.2929C28.1762 16.6121 28.6812 16.2229 29.2705 16.2229C30.1965 16.1252 31.2052 16.3206 32.047 16.8059L32.5521 14.0847C31.7103 13.6955 30.7843 13.5 29.944 13.5C27.1675 13.5 25.1471 15.2507 25.1471 17.6804C25.1471 19.5288 26.5782 20.4993 27.5884 21.084C28.6812 21.667 29.1021 22.0563 29.018 22.6392C29.018 23.5137 28.1762 23.903 27.3358 23.903C26.3257 23.903 25.3155 23.6115 24.391 23.1245L23.8859 25.8474C24.8961 26.3327 25.9889 26.5281 26.9991 26.5281C30.1123 26.6242 32.047 24.8752 32.047 22.25C32.047 18.9441 28.092 18.7504 28.092 17.2929ZM42.0586 26.4304L39.7872 13.7915H37.3474C36.8423 13.7915 36.3373 14.1807 36.1689 14.7637L31.9628 26.4304H34.9077L35.4954 24.5837H39.1137L39.4505 26.4304H42.0586ZM37.7683 17.1951L38.6087 21.9585H36.2531L37.7683 17.1951Z" fill="#172B85"/>
</svg>
